%TF.GenerationSoftware,KiCad,Pcbnew,5.1.8*%
%TF.CreationDate,2020-12-14T21:05:08+01:00*%
%TF.ProjectId,breathe,62726561-7468-4652-9e6b-696361645f70,rev?*%
%TF.SameCoordinates,Original*%
%TF.FileFunction,Legend,Bot*%
%TF.FilePolarity,Positive*%
%FSLAX46Y46*%
G04 Gerber Fmt 4.6, Leading zero omitted, Abs format (unit mm)*
G04 Created by KiCad (PCBNEW 5.1.8) date 2020-12-14 21:05:08*
%MOMM*%
%LPD*%
G01*
G04 APERTURE LIST*
%ADD10C,0.120000*%
%ADD11C,0.150000*%
G04 APERTURE END LIST*
D10*
%TO.C,SW2*%
X176250000Y-88900000D02*
X176250000Y-90400000D01*
X175000000Y-92900000D02*
X170500000Y-92900000D01*
X169250000Y-90400000D02*
X169250000Y-88900000D01*
X170500000Y-86400000D02*
X175000000Y-86400000D01*
%TO.C,SW1*%
X176250000Y-97000000D02*
X176250000Y-98500000D01*
X175000000Y-101000000D02*
X170500000Y-101000000D01*
X169250000Y-98500000D02*
X169250000Y-97000000D01*
X170500000Y-94500000D02*
X175000000Y-94500000D01*
%TO.C,R12*%
X163127064Y-87835000D02*
X162672936Y-87835000D01*
X163127064Y-86365000D02*
X162672936Y-86365000D01*
%TO.C,R11*%
X163127064Y-96235000D02*
X162672936Y-96235000D01*
X163127064Y-94765000D02*
X162672936Y-94765000D01*
%TO.C,R10*%
X140872936Y-122865000D02*
X141327064Y-122865000D01*
X140872936Y-124335000D02*
X141327064Y-124335000D01*
%TO.C,R9*%
X160965000Y-135327064D02*
X160965000Y-134872936D01*
X162435000Y-135327064D02*
X162435000Y-134872936D01*
%TO.C,R8*%
X151765000Y-139327064D02*
X151765000Y-138872936D01*
X153235000Y-139327064D02*
X153235000Y-138872936D01*
%TO.C,Q1*%
X146360000Y-123020000D02*
X144900000Y-123020000D01*
X146360000Y-126180000D02*
X144200000Y-126180000D01*
X146360000Y-126180000D02*
X146360000Y-125250000D01*
X146360000Y-123020000D02*
X146360000Y-123950000D01*
%TO.C,C5*%
X163161252Y-92635000D02*
X162638748Y-92635000D01*
X163161252Y-91165000D02*
X162638748Y-91165000D01*
%TO.C,C4*%
X163161252Y-100735000D02*
X162638748Y-100735000D01*
X163161252Y-99265000D02*
X162638748Y-99265000D01*
%TO.C,BZ1*%
X159400000Y-110100000D02*
G75*
G03*
X159400000Y-110100000I-6100000J0D01*
G01*
%TO.C,U1*%
X129900000Y-94760000D02*
X126040000Y-94760000D01*
X126040000Y-94760000D02*
X126040000Y-94505000D01*
X129900000Y-94760000D02*
X133760000Y-94760000D01*
X133760000Y-94760000D02*
X133760000Y-94505000D01*
X129900000Y-84240000D02*
X126040000Y-84240000D01*
X126040000Y-84240000D02*
X126040000Y-84495000D01*
X129900000Y-84240000D02*
X133760000Y-84240000D01*
X133760000Y-84240000D02*
X133760000Y-84495000D01*
X133760000Y-84495000D02*
X135575000Y-84495000D01*
%TO.C,R7*%
X170072936Y-110465000D02*
X170527064Y-110465000D01*
X170072936Y-111935000D02*
X170527064Y-111935000D01*
%TO.C,R6*%
X169972936Y-105765000D02*
X170427064Y-105765000D01*
X169972936Y-107235000D02*
X170427064Y-107235000D01*
%TO.C,R5*%
X136965000Y-87072936D02*
X136965000Y-87527064D01*
X138435000Y-87072936D02*
X138435000Y-87527064D01*
%TO.C,R4*%
X141235000Y-85427064D02*
X141235000Y-84972936D01*
X139765000Y-85427064D02*
X139765000Y-84972936D01*
%TO.C,R3*%
X139765000Y-89072936D02*
X139765000Y-89527064D01*
X141235000Y-89072936D02*
X141235000Y-89527064D01*
%TO.C,R2*%
X115235000Y-132727064D02*
X115235000Y-132272936D01*
X113765000Y-132727064D02*
X113765000Y-132272936D01*
%TO.C,R1*%
X116135000Y-118127064D02*
X116135000Y-117672936D01*
X114665000Y-118127064D02*
X114665000Y-117672936D01*
%TO.C,D2*%
X174200000Y-110240000D02*
X177060000Y-110240000D01*
X177060000Y-110240000D02*
X177060000Y-112160000D01*
X177060000Y-112160000D02*
X174200000Y-112160000D01*
%TO.C,D1*%
X177060000Y-107460000D02*
X174200000Y-107460000D01*
X177060000Y-105540000D02*
X177060000Y-107460000D01*
X174200000Y-105540000D02*
X177060000Y-105540000D01*
%TO.C,C3*%
X141035000Y-107561252D02*
X141035000Y-107038748D01*
X139565000Y-107561252D02*
X139565000Y-107038748D01*
%TO.C,C2*%
X144235000Y-107598752D02*
X144235000Y-107076248D01*
X142765000Y-107598752D02*
X142765000Y-107076248D01*
%TO.C,C1*%
X136665000Y-92638748D02*
X136665000Y-93161252D01*
X138135000Y-92638748D02*
X138135000Y-93161252D01*
%TO.C,BT1*%
X88750000Y-97150000D02*
X85550000Y-97150000D01*
X85550000Y-97150000D02*
X85550000Y-95600000D01*
X88750000Y-101650000D02*
X88750000Y-97150000D01*
X88750000Y-101650000D02*
X109650000Y-101650000D01*
X111450000Y-99850000D02*
X111450000Y-97150000D01*
X109650000Y-101650000D02*
X111450000Y-99850000D01*
X111450000Y-97150000D02*
X114650000Y-97150000D01*
X114650000Y-97150000D02*
X114650000Y-95600000D01*
X111450000Y-89450000D02*
X114650000Y-89450000D01*
X114650000Y-89450000D02*
X114650000Y-91000000D01*
X88750000Y-89450000D02*
X85550000Y-89450000D01*
X85550000Y-89450000D02*
X85550000Y-91000000D01*
X111450000Y-84950000D02*
X88750000Y-84950000D01*
X111450000Y-84950000D02*
X111450000Y-89450000D01*
X88750000Y-84950000D02*
X88750000Y-89450000D01*
X113100000Y-98300000D02*
X113100000Y-100300000D01*
X112100000Y-99300000D02*
X114100000Y-99300000D01*
%TO.C,SW2*%
D11*
X174083333Y-94304761D02*
X173940476Y-94352380D01*
X173702380Y-94352380D01*
X173607142Y-94304761D01*
X173559523Y-94257142D01*
X173511904Y-94161904D01*
X173511904Y-94066666D01*
X173559523Y-93971428D01*
X173607142Y-93923809D01*
X173702380Y-93876190D01*
X173892857Y-93828571D01*
X173988095Y-93780952D01*
X174035714Y-93733333D01*
X174083333Y-93638095D01*
X174083333Y-93542857D01*
X174035714Y-93447619D01*
X173988095Y-93400000D01*
X173892857Y-93352380D01*
X173654761Y-93352380D01*
X173511904Y-93400000D01*
X173178571Y-93352380D02*
X172940476Y-94352380D01*
X172750000Y-93638095D01*
X172559523Y-94352380D01*
X172321428Y-93352380D01*
X171988095Y-93447619D02*
X171940476Y-93400000D01*
X171845238Y-93352380D01*
X171607142Y-93352380D01*
X171511904Y-93400000D01*
X171464285Y-93447619D01*
X171416666Y-93542857D01*
X171416666Y-93638095D01*
X171464285Y-93780952D01*
X172035714Y-94352380D01*
X171416666Y-94352380D01*
%TO.C,SW1*%
X174083333Y-102404761D02*
X173940476Y-102452380D01*
X173702380Y-102452380D01*
X173607142Y-102404761D01*
X173559523Y-102357142D01*
X173511904Y-102261904D01*
X173511904Y-102166666D01*
X173559523Y-102071428D01*
X173607142Y-102023809D01*
X173702380Y-101976190D01*
X173892857Y-101928571D01*
X173988095Y-101880952D01*
X174035714Y-101833333D01*
X174083333Y-101738095D01*
X174083333Y-101642857D01*
X174035714Y-101547619D01*
X173988095Y-101500000D01*
X173892857Y-101452380D01*
X173654761Y-101452380D01*
X173511904Y-101500000D01*
X173178571Y-101452380D02*
X172940476Y-102452380D01*
X172750000Y-101738095D01*
X172559523Y-102452380D01*
X172321428Y-101452380D01*
X171416666Y-102452380D02*
X171988095Y-102452380D01*
X171702380Y-102452380D02*
X171702380Y-101452380D01*
X171797619Y-101595238D01*
X171892857Y-101690476D01*
X171988095Y-101738095D01*
%TO.C,R12*%
X163542857Y-85902380D02*
X163876190Y-85426190D01*
X164114285Y-85902380D02*
X164114285Y-84902380D01*
X163733333Y-84902380D01*
X163638095Y-84950000D01*
X163590476Y-84997619D01*
X163542857Y-85092857D01*
X163542857Y-85235714D01*
X163590476Y-85330952D01*
X163638095Y-85378571D01*
X163733333Y-85426190D01*
X164114285Y-85426190D01*
X162590476Y-85902380D02*
X163161904Y-85902380D01*
X162876190Y-85902380D02*
X162876190Y-84902380D01*
X162971428Y-85045238D01*
X163066666Y-85140476D01*
X163161904Y-85188095D01*
X162209523Y-84997619D02*
X162161904Y-84950000D01*
X162066666Y-84902380D01*
X161828571Y-84902380D01*
X161733333Y-84950000D01*
X161685714Y-84997619D01*
X161638095Y-85092857D01*
X161638095Y-85188095D01*
X161685714Y-85330952D01*
X162257142Y-85902380D01*
X161638095Y-85902380D01*
%TO.C,R11*%
X163542857Y-94302380D02*
X163876190Y-93826190D01*
X164114285Y-94302380D02*
X164114285Y-93302380D01*
X163733333Y-93302380D01*
X163638095Y-93350000D01*
X163590476Y-93397619D01*
X163542857Y-93492857D01*
X163542857Y-93635714D01*
X163590476Y-93730952D01*
X163638095Y-93778571D01*
X163733333Y-93826190D01*
X164114285Y-93826190D01*
X162590476Y-94302380D02*
X163161904Y-94302380D01*
X162876190Y-94302380D02*
X162876190Y-93302380D01*
X162971428Y-93445238D01*
X163066666Y-93540476D01*
X163161904Y-93588095D01*
X161638095Y-94302380D02*
X162209523Y-94302380D01*
X161923809Y-94302380D02*
X161923809Y-93302380D01*
X162019047Y-93445238D01*
X162114285Y-93540476D01*
X162209523Y-93588095D01*
%TO.C,R10*%
X141742857Y-125702380D02*
X142076190Y-125226190D01*
X142314285Y-125702380D02*
X142314285Y-124702380D01*
X141933333Y-124702380D01*
X141838095Y-124750000D01*
X141790476Y-124797619D01*
X141742857Y-124892857D01*
X141742857Y-125035714D01*
X141790476Y-125130952D01*
X141838095Y-125178571D01*
X141933333Y-125226190D01*
X142314285Y-125226190D01*
X140790476Y-125702380D02*
X141361904Y-125702380D01*
X141076190Y-125702380D02*
X141076190Y-124702380D01*
X141171428Y-124845238D01*
X141266666Y-124940476D01*
X141361904Y-124988095D01*
X140171428Y-124702380D02*
X140076190Y-124702380D01*
X139980952Y-124750000D01*
X139933333Y-124797619D01*
X139885714Y-124892857D01*
X139838095Y-125083333D01*
X139838095Y-125321428D01*
X139885714Y-125511904D01*
X139933333Y-125607142D01*
X139980952Y-125654761D01*
X140076190Y-125702380D01*
X140171428Y-125702380D01*
X140266666Y-125654761D01*
X140314285Y-125607142D01*
X140361904Y-125511904D01*
X140409523Y-125321428D01*
X140409523Y-125083333D01*
X140361904Y-124892857D01*
X140314285Y-124797619D01*
X140266666Y-124750000D01*
X140171428Y-124702380D01*
%TO.C,R9*%
X163802380Y-134933333D02*
X163326190Y-134600000D01*
X163802380Y-134361904D02*
X162802380Y-134361904D01*
X162802380Y-134742857D01*
X162850000Y-134838095D01*
X162897619Y-134885714D01*
X162992857Y-134933333D01*
X163135714Y-134933333D01*
X163230952Y-134885714D01*
X163278571Y-134838095D01*
X163326190Y-134742857D01*
X163326190Y-134361904D01*
X163802380Y-135409523D02*
X163802380Y-135600000D01*
X163754761Y-135695238D01*
X163707142Y-135742857D01*
X163564285Y-135838095D01*
X163373809Y-135885714D01*
X162992857Y-135885714D01*
X162897619Y-135838095D01*
X162850000Y-135790476D01*
X162802380Y-135695238D01*
X162802380Y-135504761D01*
X162850000Y-135409523D01*
X162897619Y-135361904D01*
X162992857Y-135314285D01*
X163230952Y-135314285D01*
X163326190Y-135361904D01*
X163373809Y-135409523D01*
X163421428Y-135504761D01*
X163421428Y-135695238D01*
X163373809Y-135790476D01*
X163326190Y-135838095D01*
X163230952Y-135885714D01*
%TO.C,R8*%
X154602380Y-138933333D02*
X154126190Y-138600000D01*
X154602380Y-138361904D02*
X153602380Y-138361904D01*
X153602380Y-138742857D01*
X153650000Y-138838095D01*
X153697619Y-138885714D01*
X153792857Y-138933333D01*
X153935714Y-138933333D01*
X154030952Y-138885714D01*
X154078571Y-138838095D01*
X154126190Y-138742857D01*
X154126190Y-138361904D01*
X154030952Y-139504761D02*
X153983333Y-139409523D01*
X153935714Y-139361904D01*
X153840476Y-139314285D01*
X153792857Y-139314285D01*
X153697619Y-139361904D01*
X153650000Y-139409523D01*
X153602380Y-139504761D01*
X153602380Y-139695238D01*
X153650000Y-139790476D01*
X153697619Y-139838095D01*
X153792857Y-139885714D01*
X153840476Y-139885714D01*
X153935714Y-139838095D01*
X153983333Y-139790476D01*
X154030952Y-139695238D01*
X154030952Y-139504761D01*
X154078571Y-139409523D01*
X154126190Y-139361904D01*
X154221428Y-139314285D01*
X154411904Y-139314285D01*
X154507142Y-139361904D01*
X154554761Y-139409523D01*
X154602380Y-139504761D01*
X154602380Y-139695238D01*
X154554761Y-139790476D01*
X154507142Y-139838095D01*
X154411904Y-139885714D01*
X154221428Y-139885714D01*
X154126190Y-139838095D01*
X154078571Y-139790476D01*
X154030952Y-139695238D01*
%TO.C,Q1*%
X145695238Y-127647619D02*
X145790476Y-127600000D01*
X145885714Y-127504761D01*
X146028571Y-127361904D01*
X146123809Y-127314285D01*
X146219047Y-127314285D01*
X146171428Y-127552380D02*
X146266666Y-127504761D01*
X146361904Y-127409523D01*
X146409523Y-127219047D01*
X146409523Y-126885714D01*
X146361904Y-126695238D01*
X146266666Y-126600000D01*
X146171428Y-126552380D01*
X145980952Y-126552380D01*
X145885714Y-126600000D01*
X145790476Y-126695238D01*
X145742857Y-126885714D01*
X145742857Y-127219047D01*
X145790476Y-127409523D01*
X145885714Y-127504761D01*
X145980952Y-127552380D01*
X146171428Y-127552380D01*
X144790476Y-127552380D02*
X145361904Y-127552380D01*
X145076190Y-127552380D02*
X145076190Y-126552380D01*
X145171428Y-126695238D01*
X145266666Y-126790476D01*
X145361904Y-126838095D01*
%TO.C,C5*%
X163066666Y-90577142D02*
X163114285Y-90624761D01*
X163257142Y-90672380D01*
X163352380Y-90672380D01*
X163495238Y-90624761D01*
X163590476Y-90529523D01*
X163638095Y-90434285D01*
X163685714Y-90243809D01*
X163685714Y-90100952D01*
X163638095Y-89910476D01*
X163590476Y-89815238D01*
X163495238Y-89720000D01*
X163352380Y-89672380D01*
X163257142Y-89672380D01*
X163114285Y-89720000D01*
X163066666Y-89767619D01*
X162161904Y-89672380D02*
X162638095Y-89672380D01*
X162685714Y-90148571D01*
X162638095Y-90100952D01*
X162542857Y-90053333D01*
X162304761Y-90053333D01*
X162209523Y-90100952D01*
X162161904Y-90148571D01*
X162114285Y-90243809D01*
X162114285Y-90481904D01*
X162161904Y-90577142D01*
X162209523Y-90624761D01*
X162304761Y-90672380D01*
X162542857Y-90672380D01*
X162638095Y-90624761D01*
X162685714Y-90577142D01*
%TO.C,C4*%
X163066666Y-98677142D02*
X163114285Y-98724761D01*
X163257142Y-98772380D01*
X163352380Y-98772380D01*
X163495238Y-98724761D01*
X163590476Y-98629523D01*
X163638095Y-98534285D01*
X163685714Y-98343809D01*
X163685714Y-98200952D01*
X163638095Y-98010476D01*
X163590476Y-97915238D01*
X163495238Y-97820000D01*
X163352380Y-97772380D01*
X163257142Y-97772380D01*
X163114285Y-97820000D01*
X163066666Y-97867619D01*
X162209523Y-98105714D02*
X162209523Y-98772380D01*
X162447619Y-97724761D02*
X162685714Y-98439047D01*
X162066666Y-98439047D01*
%TO.C,BZ1*%
X146028571Y-109219047D02*
X146076190Y-109361904D01*
X146123809Y-109409523D01*
X146219047Y-109457142D01*
X146361904Y-109457142D01*
X146457142Y-109409523D01*
X146504761Y-109361904D01*
X146552380Y-109266666D01*
X146552380Y-108885714D01*
X145552380Y-108885714D01*
X145552380Y-109219047D01*
X145600000Y-109314285D01*
X145647619Y-109361904D01*
X145742857Y-109409523D01*
X145838095Y-109409523D01*
X145933333Y-109361904D01*
X145980952Y-109314285D01*
X146028571Y-109219047D01*
X146028571Y-108885714D01*
X145552380Y-109790476D02*
X145552380Y-110457142D01*
X146552380Y-109790476D01*
X146552380Y-110457142D01*
X146552380Y-111361904D02*
X146552380Y-110790476D01*
X146552380Y-111076190D02*
X145552380Y-111076190D01*
X145695238Y-110980952D01*
X145790476Y-110885714D01*
X145838095Y-110790476D01*
X150831428Y-105909047D02*
X150831428Y-106670952D01*
X151212380Y-106290000D02*
X150450476Y-106290000D01*
%TO.C,U1*%
X130661904Y-82852380D02*
X130661904Y-83661904D01*
X130614285Y-83757142D01*
X130566666Y-83804761D01*
X130471428Y-83852380D01*
X130280952Y-83852380D01*
X130185714Y-83804761D01*
X130138095Y-83757142D01*
X130090476Y-83661904D01*
X130090476Y-82852380D01*
X129090476Y-83852380D02*
X129661904Y-83852380D01*
X129376190Y-83852380D02*
X129376190Y-82852380D01*
X129471428Y-82995238D01*
X129566666Y-83090476D01*
X129661904Y-83138095D01*
%TO.C,R7*%
X170466666Y-113302380D02*
X170800000Y-112826190D01*
X171038095Y-113302380D02*
X171038095Y-112302380D01*
X170657142Y-112302380D01*
X170561904Y-112350000D01*
X170514285Y-112397619D01*
X170466666Y-112492857D01*
X170466666Y-112635714D01*
X170514285Y-112730952D01*
X170561904Y-112778571D01*
X170657142Y-112826190D01*
X171038095Y-112826190D01*
X170133333Y-112302380D02*
X169466666Y-112302380D01*
X169895238Y-113302380D01*
%TO.C,R6*%
X170366666Y-108602380D02*
X170700000Y-108126190D01*
X170938095Y-108602380D02*
X170938095Y-107602380D01*
X170557142Y-107602380D01*
X170461904Y-107650000D01*
X170414285Y-107697619D01*
X170366666Y-107792857D01*
X170366666Y-107935714D01*
X170414285Y-108030952D01*
X170461904Y-108078571D01*
X170557142Y-108126190D01*
X170938095Y-108126190D01*
X169509523Y-107602380D02*
X169700000Y-107602380D01*
X169795238Y-107650000D01*
X169842857Y-107697619D01*
X169938095Y-107840476D01*
X169985714Y-108030952D01*
X169985714Y-108411904D01*
X169938095Y-108507142D01*
X169890476Y-108554761D01*
X169795238Y-108602380D01*
X169604761Y-108602380D01*
X169509523Y-108554761D01*
X169461904Y-108507142D01*
X169414285Y-108411904D01*
X169414285Y-108173809D01*
X169461904Y-108078571D01*
X169509523Y-108030952D01*
X169604761Y-107983333D01*
X169795238Y-107983333D01*
X169890476Y-108030952D01*
X169938095Y-108078571D01*
X169985714Y-108173809D01*
%TO.C,R5*%
X136502380Y-87133333D02*
X136026190Y-86800000D01*
X136502380Y-86561904D02*
X135502380Y-86561904D01*
X135502380Y-86942857D01*
X135550000Y-87038095D01*
X135597619Y-87085714D01*
X135692857Y-87133333D01*
X135835714Y-87133333D01*
X135930952Y-87085714D01*
X135978571Y-87038095D01*
X136026190Y-86942857D01*
X136026190Y-86561904D01*
X135502380Y-88038095D02*
X135502380Y-87561904D01*
X135978571Y-87514285D01*
X135930952Y-87561904D01*
X135883333Y-87657142D01*
X135883333Y-87895238D01*
X135930952Y-87990476D01*
X135978571Y-88038095D01*
X136073809Y-88085714D01*
X136311904Y-88085714D01*
X136407142Y-88038095D01*
X136454761Y-87990476D01*
X136502380Y-87895238D01*
X136502380Y-87657142D01*
X136454761Y-87561904D01*
X136407142Y-87514285D01*
%TO.C,R4*%
X142602380Y-85033333D02*
X142126190Y-84700000D01*
X142602380Y-84461904D02*
X141602380Y-84461904D01*
X141602380Y-84842857D01*
X141650000Y-84938095D01*
X141697619Y-84985714D01*
X141792857Y-85033333D01*
X141935714Y-85033333D01*
X142030952Y-84985714D01*
X142078571Y-84938095D01*
X142126190Y-84842857D01*
X142126190Y-84461904D01*
X141935714Y-85890476D02*
X142602380Y-85890476D01*
X141554761Y-85652380D02*
X142269047Y-85414285D01*
X142269047Y-86033333D01*
%TO.C,R3*%
X139302380Y-89133333D02*
X138826190Y-88800000D01*
X139302380Y-88561904D02*
X138302380Y-88561904D01*
X138302380Y-88942857D01*
X138350000Y-89038095D01*
X138397619Y-89085714D01*
X138492857Y-89133333D01*
X138635714Y-89133333D01*
X138730952Y-89085714D01*
X138778571Y-89038095D01*
X138826190Y-88942857D01*
X138826190Y-88561904D01*
X138302380Y-89466666D02*
X138302380Y-90085714D01*
X138683333Y-89752380D01*
X138683333Y-89895238D01*
X138730952Y-89990476D01*
X138778571Y-90038095D01*
X138873809Y-90085714D01*
X139111904Y-90085714D01*
X139207142Y-90038095D01*
X139254761Y-89990476D01*
X139302380Y-89895238D01*
X139302380Y-89609523D01*
X139254761Y-89514285D01*
X139207142Y-89466666D01*
%TO.C,R2*%
X116602380Y-132333333D02*
X116126190Y-132000000D01*
X116602380Y-131761904D02*
X115602380Y-131761904D01*
X115602380Y-132142857D01*
X115650000Y-132238095D01*
X115697619Y-132285714D01*
X115792857Y-132333333D01*
X115935714Y-132333333D01*
X116030952Y-132285714D01*
X116078571Y-132238095D01*
X116126190Y-132142857D01*
X116126190Y-131761904D01*
X115697619Y-132714285D02*
X115650000Y-132761904D01*
X115602380Y-132857142D01*
X115602380Y-133095238D01*
X115650000Y-133190476D01*
X115697619Y-133238095D01*
X115792857Y-133285714D01*
X115888095Y-133285714D01*
X116030952Y-133238095D01*
X116602380Y-132666666D01*
X116602380Y-133285714D01*
%TO.C,R1*%
X117502380Y-117733333D02*
X117026190Y-117400000D01*
X117502380Y-117161904D02*
X116502380Y-117161904D01*
X116502380Y-117542857D01*
X116550000Y-117638095D01*
X116597619Y-117685714D01*
X116692857Y-117733333D01*
X116835714Y-117733333D01*
X116930952Y-117685714D01*
X116978571Y-117638095D01*
X117026190Y-117542857D01*
X117026190Y-117161904D01*
X117502380Y-118685714D02*
X117502380Y-118114285D01*
X117502380Y-118400000D02*
X116502380Y-118400000D01*
X116645238Y-118304761D01*
X116740476Y-118209523D01*
X116788095Y-118114285D01*
%TO.C,D2*%
X175938095Y-110002380D02*
X175938095Y-109002380D01*
X175700000Y-109002380D01*
X175557142Y-109050000D01*
X175461904Y-109145238D01*
X175414285Y-109240476D01*
X175366666Y-109430952D01*
X175366666Y-109573809D01*
X175414285Y-109764285D01*
X175461904Y-109859523D01*
X175557142Y-109954761D01*
X175700000Y-110002380D01*
X175938095Y-110002380D01*
X174985714Y-109097619D02*
X174938095Y-109050000D01*
X174842857Y-109002380D01*
X174604761Y-109002380D01*
X174509523Y-109050000D01*
X174461904Y-109097619D01*
X174414285Y-109192857D01*
X174414285Y-109288095D01*
X174461904Y-109430952D01*
X175033333Y-110002380D01*
X174414285Y-110002380D01*
%TO.C,D1*%
X175938095Y-105302380D02*
X175938095Y-104302380D01*
X175700000Y-104302380D01*
X175557142Y-104350000D01*
X175461904Y-104445238D01*
X175414285Y-104540476D01*
X175366666Y-104730952D01*
X175366666Y-104873809D01*
X175414285Y-105064285D01*
X175461904Y-105159523D01*
X175557142Y-105254761D01*
X175700000Y-105302380D01*
X175938095Y-105302380D01*
X174414285Y-105302380D02*
X174985714Y-105302380D01*
X174700000Y-105302380D02*
X174700000Y-104302380D01*
X174795238Y-104445238D01*
X174890476Y-104540476D01*
X174985714Y-104588095D01*
%TO.C,C3*%
X141622857Y-107466666D02*
X141575238Y-107514285D01*
X141527619Y-107657142D01*
X141527619Y-107752380D01*
X141575238Y-107895238D01*
X141670476Y-107990476D01*
X141765714Y-108038095D01*
X141956190Y-108085714D01*
X142099047Y-108085714D01*
X142289523Y-108038095D01*
X142384761Y-107990476D01*
X142480000Y-107895238D01*
X142527619Y-107752380D01*
X142527619Y-107657142D01*
X142480000Y-107514285D01*
X142432380Y-107466666D01*
X142527619Y-107133333D02*
X142527619Y-106514285D01*
X142146666Y-106847619D01*
X142146666Y-106704761D01*
X142099047Y-106609523D01*
X142051428Y-106561904D01*
X141956190Y-106514285D01*
X141718095Y-106514285D01*
X141622857Y-106561904D01*
X141575238Y-106609523D01*
X141527619Y-106704761D01*
X141527619Y-106990476D01*
X141575238Y-107085714D01*
X141622857Y-107133333D01*
%TO.C,C2*%
X144822857Y-107504166D02*
X144775238Y-107551785D01*
X144727619Y-107694642D01*
X144727619Y-107789880D01*
X144775238Y-107932738D01*
X144870476Y-108027976D01*
X144965714Y-108075595D01*
X145156190Y-108123214D01*
X145299047Y-108123214D01*
X145489523Y-108075595D01*
X145584761Y-108027976D01*
X145680000Y-107932738D01*
X145727619Y-107789880D01*
X145727619Y-107694642D01*
X145680000Y-107551785D01*
X145632380Y-107504166D01*
X145632380Y-107123214D02*
X145680000Y-107075595D01*
X145727619Y-106980357D01*
X145727619Y-106742261D01*
X145680000Y-106647023D01*
X145632380Y-106599404D01*
X145537142Y-106551785D01*
X145441904Y-106551785D01*
X145299047Y-106599404D01*
X144727619Y-107170833D01*
X144727619Y-106551785D01*
%TO.C,C1*%
X136077142Y-92733333D02*
X136124761Y-92685714D01*
X136172380Y-92542857D01*
X136172380Y-92447619D01*
X136124761Y-92304761D01*
X136029523Y-92209523D01*
X135934285Y-92161904D01*
X135743809Y-92114285D01*
X135600952Y-92114285D01*
X135410476Y-92161904D01*
X135315238Y-92209523D01*
X135220000Y-92304761D01*
X135172380Y-92447619D01*
X135172380Y-92542857D01*
X135220000Y-92685714D01*
X135267619Y-92733333D01*
X136172380Y-93685714D02*
X136172380Y-93114285D01*
X136172380Y-93400000D02*
X135172380Y-93400000D01*
X135315238Y-93304761D01*
X135410476Y-93209523D01*
X135458095Y-93114285D01*
%TO.C,BT1*%
X115010714Y-87928571D02*
X114867857Y-87976190D01*
X114820238Y-88023809D01*
X114772619Y-88119047D01*
X114772619Y-88261904D01*
X114820238Y-88357142D01*
X114867857Y-88404761D01*
X114963095Y-88452380D01*
X115344047Y-88452380D01*
X115344047Y-87452380D01*
X115010714Y-87452380D01*
X114915476Y-87500000D01*
X114867857Y-87547619D01*
X114820238Y-87642857D01*
X114820238Y-87738095D01*
X114867857Y-87833333D01*
X114915476Y-87880952D01*
X115010714Y-87928571D01*
X115344047Y-87928571D01*
X114486904Y-87452380D02*
X113915476Y-87452380D01*
X114201190Y-88452380D02*
X114201190Y-87452380D01*
X113058333Y-88452380D02*
X113629761Y-88452380D01*
X113344047Y-88452380D02*
X113344047Y-87452380D01*
X113439285Y-87595238D01*
X113534523Y-87690476D01*
X113629761Y-87738095D01*
%TD*%
M02*
