M48
; DRILL file {KiCad 5.1.8} date Mon Dec 14 21:05:06 2020
; FORMAT={-:-/ absolute / inch / decimal}
; #@! TF.CreationDate,2020-12-14T21:05:06+01:00
; #@! TF.GenerationSoftware,Kicad,Pcbnew,5.1.8
FMAT,2
INCH
T1C0.0300
T2C0.0315
T3C0.0394
T4C0.0400
T5C0.0433
T6C0.1063
%
G90
G05
T1
X4.7197Y-4.0654
X4.7197Y-4.1654
X4.7197Y-4.2654
X4.7197Y-4.3654
X4.7197Y-4.4654
X4.7197Y-4.5654
X4.7197Y-4.6654
X4.7197Y-4.7654
X4.7197Y-4.8654
X4.7197Y-4.9654
X4.7197Y-5.0654
X4.7197Y-5.1654
X4.7197Y-5.2654
X4.7197Y-5.3654
X4.7197Y-5.4654
X4.7197Y-5.5654
X4.7197Y-5.6654
X4.7197Y-5.7654
X4.7197Y-5.8654
X4.7197Y-5.9654
X5.3197Y-4.0654
X5.3197Y-4.1654
X5.3197Y-4.2654
X5.3197Y-4.3654
X5.3197Y-4.4654
X5.3197Y-4.5654
X5.3197Y-4.6654
X5.3197Y-4.7654
X5.3197Y-4.8654
X5.3197Y-4.9654
X5.3197Y-5.0654
X5.3197Y-5.1654
X5.3197Y-5.2654
X5.3197Y-5.3654
X5.3197Y-5.4654
X5.3197Y-5.5654
X5.3197Y-5.6654
X5.3197Y-5.7654
X5.3197Y-5.8654
X5.3197Y-5.9654
T2
X3.4764Y-4.3858
X3.9134Y-4.4882
X4.5079Y-5.0787
X4.5433Y-4.5236
X4.5669Y-4.1772
X4.5677Y-4.3772
X4.6693Y-3.3504
X4.6772Y-3.4291
X5.5118Y-4.9685
X5.5157Y-5.0669
X5.5236Y-4.0827
X5.9961Y-5.5827
X6.5433Y-4.0039
X6.5472Y-3.6811
X6.6811Y-6.0394
X6.937Y-4.2923
T3
X6.0354Y-4.185
X6.0354Y-4.4843
X3.1102Y-4.185
X3.1102Y-4.285
X3.1102Y-4.385
X3.1102Y-4.485
X3.1102Y-4.585
X3.1102Y-4.685
X3.1102Y-4.785
X3.1102Y-4.885
X4.3268Y-5.3772
X4.3268Y-5.4772
X4.3268Y-5.5772
X4.3268Y-5.6772
T4
X6.1417Y-5.2795
X6.1417Y-5.3795
X6.1417Y-5.4795
X6.1417Y-5.5795
X6.2417Y-5.2795
X6.2417Y-5.3795
X6.2417Y-5.4795
X6.2417Y-5.5795
T5
X6.6732Y-3.7598
X6.6732Y-3.937
X6.9291Y-3.7598
X6.9291Y-3.937
X6.6732Y-3.4409
X6.6732Y-3.6181
X6.9291Y-3.4409
X6.9291Y-3.6181
T6
X6.9291Y-5.9646
X3.1102Y-5.9646
X3.1102Y-3.1102
X6.9291Y-3.1102
T0
M30
