%TF.GenerationSoftware,KiCad,Pcbnew,5.1.8*%
%TF.CreationDate,2020-12-14T21:05:08+01:00*%
%TF.ProjectId,breathe,62726561-7468-4652-9e6b-696361645f70,rev?*%
%TF.SameCoordinates,Original*%
%TF.FileFunction,Soldermask,Bot*%
%TF.FilePolarity,Negative*%
%FSLAX46Y46*%
G04 Gerber Fmt 4.6, Leading zero omitted, Abs format (unit mm)*
G04 Created by KiCad (PCBNEW 5.1.8) date 2020-12-14 21:05:08*
%MOMM*%
%LPD*%
G01*
G04 APERTURE LIST*
%ADD10O,1.727200X1.727200*%
%ADD11R,1.727200X1.727200*%
%ADD12C,2.000000*%
%ADD13R,0.900000X0.800000*%
%ADD14R,2.000000X2.000000*%
%ADD15C,1.524000*%
%ADD16O,1.700000X1.700000*%
%ADD17R,1.700000X1.700000*%
%ADD18R,2.600000X3.600000*%
%ADD19C,2.700000*%
G04 APERTURE END LIST*
D10*
%TO.C,U3*%
X158540000Y-141720000D03*
X156000000Y-141720000D03*
X158540000Y-139180000D03*
X156000000Y-139180000D03*
X158540000Y-136640000D03*
X156000000Y-136640000D03*
X158540000Y-134100000D03*
D11*
X156000000Y-134100000D03*
%TD*%
D12*
%TO.C,SW2*%
X176000000Y-91900000D03*
X176000000Y-87400000D03*
X169500000Y-91900000D03*
X169500000Y-87400000D03*
%TD*%
%TO.C,SW1*%
X176000000Y-100000000D03*
X176000000Y-95500000D03*
X169500000Y-100000000D03*
X169500000Y-95500000D03*
%TD*%
%TO.C,R12*%
G36*
G01*
X162500000Y-86649999D02*
X162500000Y-87550001D01*
G75*
G02*
X162250001Y-87800000I-249999J0D01*
G01*
X161549999Y-87800000D01*
G75*
G02*
X161300000Y-87550001I0J249999D01*
G01*
X161300000Y-86649999D01*
G75*
G02*
X161549999Y-86400000I249999J0D01*
G01*
X162250001Y-86400000D01*
G75*
G02*
X162500000Y-86649999I0J-249999D01*
G01*
G37*
G36*
G01*
X164500000Y-86649999D02*
X164500000Y-87550001D01*
G75*
G02*
X164250001Y-87800000I-249999J0D01*
G01*
X163549999Y-87800000D01*
G75*
G02*
X163300000Y-87550001I0J249999D01*
G01*
X163300000Y-86649999D01*
G75*
G02*
X163549999Y-86400000I249999J0D01*
G01*
X164250001Y-86400000D01*
G75*
G02*
X164500000Y-86649999I0J-249999D01*
G01*
G37*
%TD*%
%TO.C,R11*%
G36*
G01*
X162500000Y-95049999D02*
X162500000Y-95950001D01*
G75*
G02*
X162250001Y-96200000I-249999J0D01*
G01*
X161549999Y-96200000D01*
G75*
G02*
X161300000Y-95950001I0J249999D01*
G01*
X161300000Y-95049999D01*
G75*
G02*
X161549999Y-94800000I249999J0D01*
G01*
X162250001Y-94800000D01*
G75*
G02*
X162500000Y-95049999I0J-249999D01*
G01*
G37*
G36*
G01*
X164500000Y-95049999D02*
X164500000Y-95950001D01*
G75*
G02*
X164250001Y-96200000I-249999J0D01*
G01*
X163549999Y-96200000D01*
G75*
G02*
X163300000Y-95950001I0J249999D01*
G01*
X163300000Y-95049999D01*
G75*
G02*
X163549999Y-94800000I249999J0D01*
G01*
X164250001Y-94800000D01*
G75*
G02*
X164500000Y-95049999I0J-249999D01*
G01*
G37*
%TD*%
%TO.C,R10*%
G36*
G01*
X141500000Y-124050001D02*
X141500000Y-123149999D01*
G75*
G02*
X141749999Y-122900000I249999J0D01*
G01*
X142450001Y-122900000D01*
G75*
G02*
X142700000Y-123149999I0J-249999D01*
G01*
X142700000Y-124050001D01*
G75*
G02*
X142450001Y-124300000I-249999J0D01*
G01*
X141749999Y-124300000D01*
G75*
G02*
X141500000Y-124050001I0J249999D01*
G01*
G37*
G36*
G01*
X139500000Y-124050001D02*
X139500000Y-123149999D01*
G75*
G02*
X139749999Y-122900000I249999J0D01*
G01*
X140450001Y-122900000D01*
G75*
G02*
X140700000Y-123149999I0J-249999D01*
G01*
X140700000Y-124050001D01*
G75*
G02*
X140450001Y-124300000I-249999J0D01*
G01*
X139749999Y-124300000D01*
G75*
G02*
X139500000Y-124050001I0J249999D01*
G01*
G37*
%TD*%
%TO.C,R9*%
G36*
G01*
X162150001Y-134700000D02*
X161249999Y-134700000D01*
G75*
G02*
X161000000Y-134450001I0J249999D01*
G01*
X161000000Y-133749999D01*
G75*
G02*
X161249999Y-133500000I249999J0D01*
G01*
X162150001Y-133500000D01*
G75*
G02*
X162400000Y-133749999I0J-249999D01*
G01*
X162400000Y-134450001D01*
G75*
G02*
X162150001Y-134700000I-249999J0D01*
G01*
G37*
G36*
G01*
X162150001Y-136700000D02*
X161249999Y-136700000D01*
G75*
G02*
X161000000Y-136450001I0J249999D01*
G01*
X161000000Y-135749999D01*
G75*
G02*
X161249999Y-135500000I249999J0D01*
G01*
X162150001Y-135500000D01*
G75*
G02*
X162400000Y-135749999I0J-249999D01*
G01*
X162400000Y-136450001D01*
G75*
G02*
X162150001Y-136700000I-249999J0D01*
G01*
G37*
%TD*%
%TO.C,R8*%
G36*
G01*
X152950001Y-138700000D02*
X152049999Y-138700000D01*
G75*
G02*
X151800000Y-138450001I0J249999D01*
G01*
X151800000Y-137749999D01*
G75*
G02*
X152049999Y-137500000I249999J0D01*
G01*
X152950001Y-137500000D01*
G75*
G02*
X153200000Y-137749999I0J-249999D01*
G01*
X153200000Y-138450001D01*
G75*
G02*
X152950001Y-138700000I-249999J0D01*
G01*
G37*
G36*
G01*
X152950001Y-140700000D02*
X152049999Y-140700000D01*
G75*
G02*
X151800000Y-140450001I0J249999D01*
G01*
X151800000Y-139749999D01*
G75*
G02*
X152049999Y-139500000I249999J0D01*
G01*
X152950001Y-139500000D01*
G75*
G02*
X153200000Y-139749999I0J-249999D01*
G01*
X153200000Y-140450001D01*
G75*
G02*
X152950001Y-140700000I-249999J0D01*
G01*
G37*
%TD*%
D13*
%TO.C,Q1*%
X146600000Y-124600000D03*
X144600000Y-123650000D03*
X144600000Y-125550000D03*
%TD*%
%TO.C,C5*%
G36*
G01*
X162450000Y-91425000D02*
X162450000Y-92375000D01*
G75*
G02*
X162200000Y-92625000I-250000J0D01*
G01*
X161525000Y-92625000D01*
G75*
G02*
X161275000Y-92375000I0J250000D01*
G01*
X161275000Y-91425000D01*
G75*
G02*
X161525000Y-91175000I250000J0D01*
G01*
X162200000Y-91175000D01*
G75*
G02*
X162450000Y-91425000I0J-250000D01*
G01*
G37*
G36*
G01*
X164525000Y-91425000D02*
X164525000Y-92375000D01*
G75*
G02*
X164275000Y-92625000I-250000J0D01*
G01*
X163600000Y-92625000D01*
G75*
G02*
X163350000Y-92375000I0J250000D01*
G01*
X163350000Y-91425000D01*
G75*
G02*
X163600000Y-91175000I250000J0D01*
G01*
X164275000Y-91175000D01*
G75*
G02*
X164525000Y-91425000I0J-250000D01*
G01*
G37*
%TD*%
%TO.C,C4*%
G36*
G01*
X162450000Y-99525000D02*
X162450000Y-100475000D01*
G75*
G02*
X162200000Y-100725000I-250000J0D01*
G01*
X161525000Y-100725000D01*
G75*
G02*
X161275000Y-100475000I0J250000D01*
G01*
X161275000Y-99525000D01*
G75*
G02*
X161525000Y-99275000I250000J0D01*
G01*
X162200000Y-99275000D01*
G75*
G02*
X162450000Y-99525000I0J-250000D01*
G01*
G37*
G36*
G01*
X164525000Y-99525000D02*
X164525000Y-100475000D01*
G75*
G02*
X164275000Y-100725000I-250000J0D01*
G01*
X163600000Y-100725000D01*
G75*
G02*
X163350000Y-100475000I0J250000D01*
G01*
X163350000Y-99525000D01*
G75*
G02*
X163600000Y-99275000I250000J0D01*
G01*
X164275000Y-99275000D01*
G75*
G02*
X164525000Y-99525000I0J-250000D01*
G01*
G37*
%TD*%
D12*
%TO.C,BZ1*%
X153300000Y-113900000D03*
D14*
X153300000Y-106300000D03*
%TD*%
D15*
%TO.C,U2*%
X135120000Y-151520000D03*
X135120000Y-148980000D03*
X135120000Y-146440000D03*
X135120000Y-143900000D03*
X135120000Y-141360000D03*
X135120000Y-138820000D03*
X135120000Y-136280000D03*
X135120000Y-133740000D03*
X135120000Y-131200000D03*
X135120000Y-128660000D03*
X135120000Y-126120000D03*
X135120000Y-123580000D03*
X135120000Y-121040000D03*
X135120000Y-118500000D03*
X135120000Y-115960000D03*
X135120000Y-113420000D03*
X135120000Y-110880000D03*
X135120000Y-108340000D03*
X135120000Y-105800000D03*
X135120000Y-103260000D03*
X119880000Y-151520000D03*
X119880000Y-148980000D03*
X119880000Y-146440000D03*
X119880000Y-143900000D03*
X119880000Y-141360000D03*
X119880000Y-138820000D03*
X119880000Y-136280000D03*
X119880000Y-133740000D03*
X119880000Y-131200000D03*
X119880000Y-128660000D03*
X119880000Y-126120000D03*
X119880000Y-123580000D03*
X119880000Y-121040000D03*
X119880000Y-118500000D03*
X119880000Y-115960000D03*
X119880000Y-113420000D03*
X119880000Y-110880000D03*
X119880000Y-108340000D03*
X119880000Y-105800000D03*
X119880000Y-103260000D03*
%TD*%
%TO.C,U1*%
G36*
G01*
X126275000Y-84905000D02*
X126275000Y-85205000D01*
G75*
G02*
X126125000Y-85355000I-150000J0D01*
G01*
X124375000Y-85355000D01*
G75*
G02*
X124225000Y-85205000I0J150000D01*
G01*
X124225000Y-84905000D01*
G75*
G02*
X124375000Y-84755000I150000J0D01*
G01*
X126125000Y-84755000D01*
G75*
G02*
X126275000Y-84905000I0J-150000D01*
G01*
G37*
G36*
G01*
X126275000Y-86175000D02*
X126275000Y-86475000D01*
G75*
G02*
X126125000Y-86625000I-150000J0D01*
G01*
X124375000Y-86625000D01*
G75*
G02*
X124225000Y-86475000I0J150000D01*
G01*
X124225000Y-86175000D01*
G75*
G02*
X124375000Y-86025000I150000J0D01*
G01*
X126125000Y-86025000D01*
G75*
G02*
X126275000Y-86175000I0J-150000D01*
G01*
G37*
G36*
G01*
X126275000Y-87445000D02*
X126275000Y-87745000D01*
G75*
G02*
X126125000Y-87895000I-150000J0D01*
G01*
X124375000Y-87895000D01*
G75*
G02*
X124225000Y-87745000I0J150000D01*
G01*
X124225000Y-87445000D01*
G75*
G02*
X124375000Y-87295000I150000J0D01*
G01*
X126125000Y-87295000D01*
G75*
G02*
X126275000Y-87445000I0J-150000D01*
G01*
G37*
G36*
G01*
X126275000Y-88715000D02*
X126275000Y-89015000D01*
G75*
G02*
X126125000Y-89165000I-150000J0D01*
G01*
X124375000Y-89165000D01*
G75*
G02*
X124225000Y-89015000I0J150000D01*
G01*
X124225000Y-88715000D01*
G75*
G02*
X124375000Y-88565000I150000J0D01*
G01*
X126125000Y-88565000D01*
G75*
G02*
X126275000Y-88715000I0J-150000D01*
G01*
G37*
G36*
G01*
X126275000Y-89985000D02*
X126275000Y-90285000D01*
G75*
G02*
X126125000Y-90435000I-150000J0D01*
G01*
X124375000Y-90435000D01*
G75*
G02*
X124225000Y-90285000I0J150000D01*
G01*
X124225000Y-89985000D01*
G75*
G02*
X124375000Y-89835000I150000J0D01*
G01*
X126125000Y-89835000D01*
G75*
G02*
X126275000Y-89985000I0J-150000D01*
G01*
G37*
G36*
G01*
X126275000Y-91255000D02*
X126275000Y-91555000D01*
G75*
G02*
X126125000Y-91705000I-150000J0D01*
G01*
X124375000Y-91705000D01*
G75*
G02*
X124225000Y-91555000I0J150000D01*
G01*
X124225000Y-91255000D01*
G75*
G02*
X124375000Y-91105000I150000J0D01*
G01*
X126125000Y-91105000D01*
G75*
G02*
X126275000Y-91255000I0J-150000D01*
G01*
G37*
G36*
G01*
X126275000Y-92525000D02*
X126275000Y-92825000D01*
G75*
G02*
X126125000Y-92975000I-150000J0D01*
G01*
X124375000Y-92975000D01*
G75*
G02*
X124225000Y-92825000I0J150000D01*
G01*
X124225000Y-92525000D01*
G75*
G02*
X124375000Y-92375000I150000J0D01*
G01*
X126125000Y-92375000D01*
G75*
G02*
X126275000Y-92525000I0J-150000D01*
G01*
G37*
G36*
G01*
X126275000Y-93795000D02*
X126275000Y-94095000D01*
G75*
G02*
X126125000Y-94245000I-150000J0D01*
G01*
X124375000Y-94245000D01*
G75*
G02*
X124225000Y-94095000I0J150000D01*
G01*
X124225000Y-93795000D01*
G75*
G02*
X124375000Y-93645000I150000J0D01*
G01*
X126125000Y-93645000D01*
G75*
G02*
X126275000Y-93795000I0J-150000D01*
G01*
G37*
G36*
G01*
X135575000Y-93795000D02*
X135575000Y-94095000D01*
G75*
G02*
X135425000Y-94245000I-150000J0D01*
G01*
X133675000Y-94245000D01*
G75*
G02*
X133525000Y-94095000I0J150000D01*
G01*
X133525000Y-93795000D01*
G75*
G02*
X133675000Y-93645000I150000J0D01*
G01*
X135425000Y-93645000D01*
G75*
G02*
X135575000Y-93795000I0J-150000D01*
G01*
G37*
G36*
G01*
X135575000Y-92525000D02*
X135575000Y-92825000D01*
G75*
G02*
X135425000Y-92975000I-150000J0D01*
G01*
X133675000Y-92975000D01*
G75*
G02*
X133525000Y-92825000I0J150000D01*
G01*
X133525000Y-92525000D01*
G75*
G02*
X133675000Y-92375000I150000J0D01*
G01*
X135425000Y-92375000D01*
G75*
G02*
X135575000Y-92525000I0J-150000D01*
G01*
G37*
G36*
G01*
X135575000Y-91255000D02*
X135575000Y-91555000D01*
G75*
G02*
X135425000Y-91705000I-150000J0D01*
G01*
X133675000Y-91705000D01*
G75*
G02*
X133525000Y-91555000I0J150000D01*
G01*
X133525000Y-91255000D01*
G75*
G02*
X133675000Y-91105000I150000J0D01*
G01*
X135425000Y-91105000D01*
G75*
G02*
X135575000Y-91255000I0J-150000D01*
G01*
G37*
G36*
G01*
X135575000Y-89985000D02*
X135575000Y-90285000D01*
G75*
G02*
X135425000Y-90435000I-150000J0D01*
G01*
X133675000Y-90435000D01*
G75*
G02*
X133525000Y-90285000I0J150000D01*
G01*
X133525000Y-89985000D01*
G75*
G02*
X133675000Y-89835000I150000J0D01*
G01*
X135425000Y-89835000D01*
G75*
G02*
X135575000Y-89985000I0J-150000D01*
G01*
G37*
G36*
G01*
X135575000Y-88715000D02*
X135575000Y-89015000D01*
G75*
G02*
X135425000Y-89165000I-150000J0D01*
G01*
X133675000Y-89165000D01*
G75*
G02*
X133525000Y-89015000I0J150000D01*
G01*
X133525000Y-88715000D01*
G75*
G02*
X133675000Y-88565000I150000J0D01*
G01*
X135425000Y-88565000D01*
G75*
G02*
X135575000Y-88715000I0J-150000D01*
G01*
G37*
G36*
G01*
X135575000Y-87445000D02*
X135575000Y-87745000D01*
G75*
G02*
X135425000Y-87895000I-150000J0D01*
G01*
X133675000Y-87895000D01*
G75*
G02*
X133525000Y-87745000I0J150000D01*
G01*
X133525000Y-87445000D01*
G75*
G02*
X133675000Y-87295000I150000J0D01*
G01*
X135425000Y-87295000D01*
G75*
G02*
X135575000Y-87445000I0J-150000D01*
G01*
G37*
G36*
G01*
X135575000Y-86175000D02*
X135575000Y-86475000D01*
G75*
G02*
X135425000Y-86625000I-150000J0D01*
G01*
X133675000Y-86625000D01*
G75*
G02*
X133525000Y-86475000I0J150000D01*
G01*
X133525000Y-86175000D01*
G75*
G02*
X133675000Y-86025000I150000J0D01*
G01*
X135425000Y-86025000D01*
G75*
G02*
X135575000Y-86175000I0J-150000D01*
G01*
G37*
G36*
G01*
X135575000Y-84905000D02*
X135575000Y-85205000D01*
G75*
G02*
X135425000Y-85355000I-150000J0D01*
G01*
X133675000Y-85355000D01*
G75*
G02*
X133525000Y-85205000I0J150000D01*
G01*
X133525000Y-84905000D01*
G75*
G02*
X133675000Y-84755000I150000J0D01*
G01*
X135425000Y-84755000D01*
G75*
G02*
X135575000Y-84905000I0J-150000D01*
G01*
G37*
%TD*%
%TO.C,R7*%
G36*
G01*
X168700000Y-111650001D02*
X168700000Y-110749999D01*
G75*
G02*
X168949999Y-110500000I249999J0D01*
G01*
X169650001Y-110500000D01*
G75*
G02*
X169900000Y-110749999I0J-249999D01*
G01*
X169900000Y-111650001D01*
G75*
G02*
X169650001Y-111900000I-249999J0D01*
G01*
X168949999Y-111900000D01*
G75*
G02*
X168700000Y-111650001I0J249999D01*
G01*
G37*
G36*
G01*
X170700000Y-111650001D02*
X170700000Y-110749999D01*
G75*
G02*
X170949999Y-110500000I249999J0D01*
G01*
X171650001Y-110500000D01*
G75*
G02*
X171900000Y-110749999I0J-249999D01*
G01*
X171900000Y-111650001D01*
G75*
G02*
X171650001Y-111900000I-249999J0D01*
G01*
X170949999Y-111900000D01*
G75*
G02*
X170700000Y-111650001I0J249999D01*
G01*
G37*
%TD*%
%TO.C,R6*%
G36*
G01*
X168600000Y-106950001D02*
X168600000Y-106049999D01*
G75*
G02*
X168849999Y-105800000I249999J0D01*
G01*
X169550001Y-105800000D01*
G75*
G02*
X169800000Y-106049999I0J-249999D01*
G01*
X169800000Y-106950001D01*
G75*
G02*
X169550001Y-107200000I-249999J0D01*
G01*
X168849999Y-107200000D01*
G75*
G02*
X168600000Y-106950001I0J249999D01*
G01*
G37*
G36*
G01*
X170600000Y-106950001D02*
X170600000Y-106049999D01*
G75*
G02*
X170849999Y-105800000I249999J0D01*
G01*
X171550001Y-105800000D01*
G75*
G02*
X171800000Y-106049999I0J-249999D01*
G01*
X171800000Y-106950001D01*
G75*
G02*
X171550001Y-107200000I-249999J0D01*
G01*
X170849999Y-107200000D01*
G75*
G02*
X170600000Y-106950001I0J249999D01*
G01*
G37*
%TD*%
%TO.C,R5*%
G36*
G01*
X137249999Y-87700000D02*
X138150001Y-87700000D01*
G75*
G02*
X138400000Y-87949999I0J-249999D01*
G01*
X138400000Y-88650001D01*
G75*
G02*
X138150001Y-88900000I-249999J0D01*
G01*
X137249999Y-88900000D01*
G75*
G02*
X137000000Y-88650001I0J249999D01*
G01*
X137000000Y-87949999D01*
G75*
G02*
X137249999Y-87700000I249999J0D01*
G01*
G37*
G36*
G01*
X137249999Y-85700000D02*
X138150001Y-85700000D01*
G75*
G02*
X138400000Y-85949999I0J-249999D01*
G01*
X138400000Y-86650001D01*
G75*
G02*
X138150001Y-86900000I-249999J0D01*
G01*
X137249999Y-86900000D01*
G75*
G02*
X137000000Y-86650001I0J249999D01*
G01*
X137000000Y-85949999D01*
G75*
G02*
X137249999Y-85700000I249999J0D01*
G01*
G37*
%TD*%
%TO.C,R4*%
G36*
G01*
X140950001Y-84800000D02*
X140049999Y-84800000D01*
G75*
G02*
X139800000Y-84550001I0J249999D01*
G01*
X139800000Y-83849999D01*
G75*
G02*
X140049999Y-83600000I249999J0D01*
G01*
X140950001Y-83600000D01*
G75*
G02*
X141200000Y-83849999I0J-249999D01*
G01*
X141200000Y-84550001D01*
G75*
G02*
X140950001Y-84800000I-249999J0D01*
G01*
G37*
G36*
G01*
X140950001Y-86800000D02*
X140049999Y-86800000D01*
G75*
G02*
X139800000Y-86550001I0J249999D01*
G01*
X139800000Y-85849999D01*
G75*
G02*
X140049999Y-85600000I249999J0D01*
G01*
X140950001Y-85600000D01*
G75*
G02*
X141200000Y-85849999I0J-249999D01*
G01*
X141200000Y-86550001D01*
G75*
G02*
X140950001Y-86800000I-249999J0D01*
G01*
G37*
%TD*%
%TO.C,R3*%
G36*
G01*
X140049999Y-89700000D02*
X140950001Y-89700000D01*
G75*
G02*
X141200000Y-89949999I0J-249999D01*
G01*
X141200000Y-90650001D01*
G75*
G02*
X140950001Y-90900000I-249999J0D01*
G01*
X140049999Y-90900000D01*
G75*
G02*
X139800000Y-90650001I0J249999D01*
G01*
X139800000Y-89949999D01*
G75*
G02*
X140049999Y-89700000I249999J0D01*
G01*
G37*
G36*
G01*
X140049999Y-87700000D02*
X140950001Y-87700000D01*
G75*
G02*
X141200000Y-87949999I0J-249999D01*
G01*
X141200000Y-88650001D01*
G75*
G02*
X140950001Y-88900000I-249999J0D01*
G01*
X140049999Y-88900000D01*
G75*
G02*
X139800000Y-88650001I0J249999D01*
G01*
X139800000Y-87949999D01*
G75*
G02*
X140049999Y-87700000I249999J0D01*
G01*
G37*
%TD*%
%TO.C,R2*%
G36*
G01*
X114950001Y-132100000D02*
X114049999Y-132100000D01*
G75*
G02*
X113800000Y-131850001I0J249999D01*
G01*
X113800000Y-131149999D01*
G75*
G02*
X114049999Y-130900000I249999J0D01*
G01*
X114950001Y-130900000D01*
G75*
G02*
X115200000Y-131149999I0J-249999D01*
G01*
X115200000Y-131850001D01*
G75*
G02*
X114950001Y-132100000I-249999J0D01*
G01*
G37*
G36*
G01*
X114950001Y-134100000D02*
X114049999Y-134100000D01*
G75*
G02*
X113800000Y-133850001I0J249999D01*
G01*
X113800000Y-133149999D01*
G75*
G02*
X114049999Y-132900000I249999J0D01*
G01*
X114950001Y-132900000D01*
G75*
G02*
X115200000Y-133149999I0J-249999D01*
G01*
X115200000Y-133850001D01*
G75*
G02*
X114950001Y-134100000I-249999J0D01*
G01*
G37*
%TD*%
%TO.C,R1*%
G36*
G01*
X115850001Y-117500000D02*
X114949999Y-117500000D01*
G75*
G02*
X114700000Y-117250001I0J249999D01*
G01*
X114700000Y-116549999D01*
G75*
G02*
X114949999Y-116300000I249999J0D01*
G01*
X115850001Y-116300000D01*
G75*
G02*
X116100000Y-116549999I0J-249999D01*
G01*
X116100000Y-117250001D01*
G75*
G02*
X115850001Y-117500000I-249999J0D01*
G01*
G37*
G36*
G01*
X115850001Y-119500000D02*
X114949999Y-119500000D01*
G75*
G02*
X114700000Y-119250001I0J249999D01*
G01*
X114700000Y-118549999D01*
G75*
G02*
X114949999Y-118300000I249999J0D01*
G01*
X115850001Y-118300000D01*
G75*
G02*
X116100000Y-118549999I0J-249999D01*
G01*
X116100000Y-119250001D01*
G75*
G02*
X115850001Y-119500000I-249999J0D01*
G01*
G37*
%TD*%
D16*
%TO.C,J2*%
X109900000Y-136580000D03*
X109900000Y-139120000D03*
X109900000Y-141660000D03*
D17*
X109900000Y-144200000D03*
%TD*%
%TO.C,D2*%
G36*
G01*
X174750000Y-110749999D02*
X174750000Y-111650001D01*
G75*
G02*
X174500001Y-111900000I-249999J0D01*
G01*
X173849999Y-111900000D01*
G75*
G02*
X173600000Y-111650001I0J249999D01*
G01*
X173600000Y-110749999D01*
G75*
G02*
X173849999Y-110500000I249999J0D01*
G01*
X174500001Y-110500000D01*
G75*
G02*
X174750000Y-110749999I0J-249999D01*
G01*
G37*
G36*
G01*
X176800000Y-110749999D02*
X176800000Y-111650001D01*
G75*
G02*
X176550001Y-111900000I-249999J0D01*
G01*
X175899999Y-111900000D01*
G75*
G02*
X175650000Y-111650001I0J249999D01*
G01*
X175650000Y-110749999D01*
G75*
G02*
X175899999Y-110500000I249999J0D01*
G01*
X176550001Y-110500000D01*
G75*
G02*
X176800000Y-110749999I0J-249999D01*
G01*
G37*
%TD*%
%TO.C,D1*%
G36*
G01*
X176800000Y-106049999D02*
X176800000Y-106950001D01*
G75*
G02*
X176550001Y-107200000I-249999J0D01*
G01*
X175899999Y-107200000D01*
G75*
G02*
X175650000Y-106950001I0J249999D01*
G01*
X175650000Y-106049999D01*
G75*
G02*
X175899999Y-105800000I249999J0D01*
G01*
X176550001Y-105800000D01*
G75*
G02*
X176800000Y-106049999I0J-249999D01*
G01*
G37*
G36*
G01*
X174750000Y-106049999D02*
X174750000Y-106950001D01*
G75*
G02*
X174500001Y-107200000I-249999J0D01*
G01*
X173849999Y-107200000D01*
G75*
G02*
X173600000Y-106950001I0J249999D01*
G01*
X173600000Y-106049999D01*
G75*
G02*
X173849999Y-105800000I249999J0D01*
G01*
X174500001Y-105800000D01*
G75*
G02*
X174750000Y-106049999I0J-249999D01*
G01*
G37*
%TD*%
%TO.C,C3*%
G36*
G01*
X140775000Y-106850000D02*
X139825000Y-106850000D01*
G75*
G02*
X139575000Y-106600000I0J250000D01*
G01*
X139575000Y-105925000D01*
G75*
G02*
X139825000Y-105675000I250000J0D01*
G01*
X140775000Y-105675000D01*
G75*
G02*
X141025000Y-105925000I0J-250000D01*
G01*
X141025000Y-106600000D01*
G75*
G02*
X140775000Y-106850000I-250000J0D01*
G01*
G37*
G36*
G01*
X140775000Y-108925000D02*
X139825000Y-108925000D01*
G75*
G02*
X139575000Y-108675000I0J250000D01*
G01*
X139575000Y-108000000D01*
G75*
G02*
X139825000Y-107750000I250000J0D01*
G01*
X140775000Y-107750000D01*
G75*
G02*
X141025000Y-108000000I0J-250000D01*
G01*
X141025000Y-108675000D01*
G75*
G02*
X140775000Y-108925000I-250000J0D01*
G01*
G37*
%TD*%
%TO.C,C2*%
G36*
G01*
X143975000Y-106887500D02*
X143025000Y-106887500D01*
G75*
G02*
X142775000Y-106637500I0J250000D01*
G01*
X142775000Y-105962500D01*
G75*
G02*
X143025000Y-105712500I250000J0D01*
G01*
X143975000Y-105712500D01*
G75*
G02*
X144225000Y-105962500I0J-250000D01*
G01*
X144225000Y-106637500D01*
G75*
G02*
X143975000Y-106887500I-250000J0D01*
G01*
G37*
G36*
G01*
X143975000Y-108962500D02*
X143025000Y-108962500D01*
G75*
G02*
X142775000Y-108712500I0J250000D01*
G01*
X142775000Y-108037500D01*
G75*
G02*
X143025000Y-107787500I250000J0D01*
G01*
X143975000Y-107787500D01*
G75*
G02*
X144225000Y-108037500I0J-250000D01*
G01*
X144225000Y-108712500D01*
G75*
G02*
X143975000Y-108962500I-250000J0D01*
G01*
G37*
%TD*%
%TO.C,C1*%
G36*
G01*
X136925000Y-93350000D02*
X137875000Y-93350000D01*
G75*
G02*
X138125000Y-93600000I0J-250000D01*
G01*
X138125000Y-94275000D01*
G75*
G02*
X137875000Y-94525000I-250000J0D01*
G01*
X136925000Y-94525000D01*
G75*
G02*
X136675000Y-94275000I0J250000D01*
G01*
X136675000Y-93600000D01*
G75*
G02*
X136925000Y-93350000I250000J0D01*
G01*
G37*
G36*
G01*
X136925000Y-91275000D02*
X137875000Y-91275000D01*
G75*
G02*
X138125000Y-91525000I0J-250000D01*
G01*
X138125000Y-92200000D01*
G75*
G02*
X137875000Y-92450000I-250000J0D01*
G01*
X136925000Y-92450000D01*
G75*
G02*
X136675000Y-92200000I0J250000D01*
G01*
X136675000Y-91525000D01*
G75*
G02*
X136925000Y-91275000I250000J0D01*
G01*
G37*
%TD*%
D18*
%TO.C,BT1*%
X114750000Y-93300000D03*
X85450000Y-93300000D03*
%TD*%
D19*
%TO.C,H4*%
X79000000Y-151500000D03*
%TD*%
%TO.C,H3*%
X176000000Y-79000000D03*
%TD*%
%TO.C,H2*%
X176000000Y-151500000D03*
%TD*%
%TO.C,H1*%
X79000000Y-79000000D03*
%TD*%
D16*
%TO.C,J1*%
X79000000Y-124080000D03*
X79000000Y-121540000D03*
X79000000Y-119000000D03*
X79000000Y-116460000D03*
X79000000Y-113920000D03*
X79000000Y-111380000D03*
X79000000Y-108840000D03*
D17*
X79000000Y-106300000D03*
%TD*%
M02*
