%TF.GenerationSoftware,KiCad,Pcbnew,5.1.8*%
%TF.CreationDate,2020-12-14T21:05:08+01:00*%
%TF.ProjectId,breathe,62726561-7468-4652-9e6b-696361645f70,rev?*%
%TF.SameCoordinates,Original*%
%TF.FileFunction,Copper,L2,Bot*%
%TF.FilePolarity,Positive*%
%FSLAX46Y46*%
G04 Gerber Fmt 4.6, Leading zero omitted, Abs format (unit mm)*
G04 Created by KiCad (PCBNEW 5.1.8) date 2020-12-14 21:05:08*
%MOMM*%
%LPD*%
G01*
G04 APERTURE LIST*
%TA.AperFunction,ComponentPad*%
%ADD10O,1.727200X1.727200*%
%TD*%
%TA.AperFunction,ComponentPad*%
%ADD11R,1.727200X1.727200*%
%TD*%
%TA.AperFunction,ComponentPad*%
%ADD12C,2.000000*%
%TD*%
%TA.AperFunction,SMDPad,CuDef*%
%ADD13R,0.900000X0.800000*%
%TD*%
%TA.AperFunction,ComponentPad*%
%ADD14R,2.000000X2.000000*%
%TD*%
%TA.AperFunction,ComponentPad*%
%ADD15C,1.524000*%
%TD*%
%TA.AperFunction,ComponentPad*%
%ADD16O,1.700000X1.700000*%
%TD*%
%TA.AperFunction,ComponentPad*%
%ADD17R,1.700000X1.700000*%
%TD*%
%TA.AperFunction,SMDPad,CuDef*%
%ADD18R,2.600000X3.600000*%
%TD*%
%TA.AperFunction,ViaPad*%
%ADD19C,1.200000*%
%TD*%
%TA.AperFunction,Conductor*%
%ADD20C,0.700000*%
%TD*%
%TA.AperFunction,Conductor*%
%ADD21C,0.250000*%
%TD*%
%TA.AperFunction,Conductor*%
%ADD22C,0.254000*%
%TD*%
%TA.AperFunction,Conductor*%
%ADD23C,0.100000*%
%TD*%
G04 APERTURE END LIST*
D10*
%TO.P,U3,8*%
%TO.N,TX*%
X158540000Y-141720000D03*
%TO.P,U3,7*%
%TO.N,+3V3*%
X156000000Y-141720000D03*
%TO.P,U3,6*%
%TO.N,N/C*%
X158540000Y-139180000D03*
%TO.P,U3,5*%
%TO.N,Net-(R9-Pad1)*%
X156000000Y-139180000D03*
%TO.P,U3,4*%
%TO.N,N/C*%
X158540000Y-136640000D03*
%TO.P,U3,3*%
%TO.N,Net-(R8-Pad2)*%
X156000000Y-136640000D03*
%TO.P,U3,2*%
%TO.N,GND*%
X158540000Y-134100000D03*
D11*
%TO.P,U3,1*%
%TO.N,RX*%
X156000000Y-134100000D03*
%TD*%
D12*
%TO.P,SW2,1*%
%TO.N,SW1*%
X176000000Y-91900000D03*
%TO.P,SW2,2*%
%TO.N,+3V3*%
X176000000Y-87400000D03*
%TO.P,SW2,1*%
%TO.N,SW1*%
X169500000Y-91900000D03*
%TO.P,SW2,2*%
%TO.N,+3V3*%
X169500000Y-87400000D03*
%TD*%
%TO.P,SW1,1*%
%TO.N,SW2*%
X176000000Y-100000000D03*
%TO.P,SW1,2*%
%TO.N,+3V3*%
X176000000Y-95500000D03*
%TO.P,SW1,1*%
%TO.N,SW2*%
X169500000Y-100000000D03*
%TO.P,SW1,2*%
%TO.N,+3V3*%
X169500000Y-95500000D03*
%TD*%
%TO.P,R12,2*%
%TO.N,GND*%
%TA.AperFunction,SMDPad,CuDef*%
G36*
G01*
X162500000Y-86649999D02*
X162500000Y-87550001D01*
G75*
G02*
X162250001Y-87800000I-249999J0D01*
G01*
X161549999Y-87800000D01*
G75*
G02*
X161300000Y-87550001I0J249999D01*
G01*
X161300000Y-86649999D01*
G75*
G02*
X161549999Y-86400000I249999J0D01*
G01*
X162250001Y-86400000D01*
G75*
G02*
X162500000Y-86649999I0J-249999D01*
G01*
G37*
%TD.AperFunction*%
%TO.P,R12,1*%
%TO.N,SW1*%
%TA.AperFunction,SMDPad,CuDef*%
G36*
G01*
X164500000Y-86649999D02*
X164500000Y-87550001D01*
G75*
G02*
X164250001Y-87800000I-249999J0D01*
G01*
X163549999Y-87800000D01*
G75*
G02*
X163300000Y-87550001I0J249999D01*
G01*
X163300000Y-86649999D01*
G75*
G02*
X163549999Y-86400000I249999J0D01*
G01*
X164250001Y-86400000D01*
G75*
G02*
X164500000Y-86649999I0J-249999D01*
G01*
G37*
%TD.AperFunction*%
%TD*%
%TO.P,R11,2*%
%TO.N,GND*%
%TA.AperFunction,SMDPad,CuDef*%
G36*
G01*
X162500000Y-95049999D02*
X162500000Y-95950001D01*
G75*
G02*
X162250001Y-96200000I-249999J0D01*
G01*
X161549999Y-96200000D01*
G75*
G02*
X161300000Y-95950001I0J249999D01*
G01*
X161300000Y-95049999D01*
G75*
G02*
X161549999Y-94800000I249999J0D01*
G01*
X162250001Y-94800000D01*
G75*
G02*
X162500000Y-95049999I0J-249999D01*
G01*
G37*
%TD.AperFunction*%
%TO.P,R11,1*%
%TO.N,SW2*%
%TA.AperFunction,SMDPad,CuDef*%
G36*
G01*
X164500000Y-95049999D02*
X164500000Y-95950001D01*
G75*
G02*
X164250001Y-96200000I-249999J0D01*
G01*
X163549999Y-96200000D01*
G75*
G02*
X163300000Y-95950001I0J249999D01*
G01*
X163300000Y-95049999D01*
G75*
G02*
X163549999Y-94800000I249999J0D01*
G01*
X164250001Y-94800000D01*
G75*
G02*
X164500000Y-95049999I0J-249999D01*
G01*
G37*
%TD.AperFunction*%
%TD*%
%TO.P,R10,2*%
%TO.N,GND*%
%TA.AperFunction,SMDPad,CuDef*%
G36*
G01*
X141500000Y-124050001D02*
X141500000Y-123149999D01*
G75*
G02*
X141749999Y-122900000I249999J0D01*
G01*
X142450001Y-122900000D01*
G75*
G02*
X142700000Y-123149999I0J-249999D01*
G01*
X142700000Y-124050001D01*
G75*
G02*
X142450001Y-124300000I-249999J0D01*
G01*
X141749999Y-124300000D01*
G75*
G02*
X141500000Y-124050001I0J249999D01*
G01*
G37*
%TD.AperFunction*%
%TO.P,R10,1*%
%TO.N,BUZZ*%
%TA.AperFunction,SMDPad,CuDef*%
G36*
G01*
X139500000Y-124050001D02*
X139500000Y-123149999D01*
G75*
G02*
X139749999Y-122900000I249999J0D01*
G01*
X140450001Y-122900000D01*
G75*
G02*
X140700000Y-123149999I0J-249999D01*
G01*
X140700000Y-124050001D01*
G75*
G02*
X140450001Y-124300000I-249999J0D01*
G01*
X139749999Y-124300000D01*
G75*
G02*
X139500000Y-124050001I0J249999D01*
G01*
G37*
%TD.AperFunction*%
%TD*%
%TO.P,R9,2*%
%TO.N,GND*%
%TA.AperFunction,SMDPad,CuDef*%
G36*
G01*
X162150001Y-134700000D02*
X161249999Y-134700000D01*
G75*
G02*
X161000000Y-134450001I0J249999D01*
G01*
X161000000Y-133749999D01*
G75*
G02*
X161249999Y-133500000I249999J0D01*
G01*
X162150001Y-133500000D01*
G75*
G02*
X162400000Y-133749999I0J-249999D01*
G01*
X162400000Y-134450001D01*
G75*
G02*
X162150001Y-134700000I-249999J0D01*
G01*
G37*
%TD.AperFunction*%
%TO.P,R9,1*%
%TO.N,Net-(R9-Pad1)*%
%TA.AperFunction,SMDPad,CuDef*%
G36*
G01*
X162150001Y-136700000D02*
X161249999Y-136700000D01*
G75*
G02*
X161000000Y-136450001I0J249999D01*
G01*
X161000000Y-135749999D01*
G75*
G02*
X161249999Y-135500000I249999J0D01*
G01*
X162150001Y-135500000D01*
G75*
G02*
X162400000Y-135749999I0J-249999D01*
G01*
X162400000Y-136450001D01*
G75*
G02*
X162150001Y-136700000I-249999J0D01*
G01*
G37*
%TD.AperFunction*%
%TD*%
%TO.P,R8,2*%
%TO.N,Net-(R8-Pad2)*%
%TA.AperFunction,SMDPad,CuDef*%
G36*
G01*
X152950001Y-138700000D02*
X152049999Y-138700000D01*
G75*
G02*
X151800000Y-138450001I0J249999D01*
G01*
X151800000Y-137749999D01*
G75*
G02*
X152049999Y-137500000I249999J0D01*
G01*
X152950001Y-137500000D01*
G75*
G02*
X153200000Y-137749999I0J-249999D01*
G01*
X153200000Y-138450001D01*
G75*
G02*
X152950001Y-138700000I-249999J0D01*
G01*
G37*
%TD.AperFunction*%
%TO.P,R8,1*%
%TO.N,+3V3*%
%TA.AperFunction,SMDPad,CuDef*%
G36*
G01*
X152950001Y-140700000D02*
X152049999Y-140700000D01*
G75*
G02*
X151800000Y-140450001I0J249999D01*
G01*
X151800000Y-139749999D01*
G75*
G02*
X152049999Y-139500000I249999J0D01*
G01*
X152950001Y-139500000D01*
G75*
G02*
X153200000Y-139749999I0J-249999D01*
G01*
X153200000Y-140450001D01*
G75*
G02*
X152950001Y-140700000I-249999J0D01*
G01*
G37*
%TD.AperFunction*%
%TD*%
D13*
%TO.P,Q1,3*%
%TO.N,Net-(BZ1-Pad2)*%
X146600000Y-124600000D03*
%TO.P,Q1,2*%
%TO.N,GND*%
X144600000Y-123650000D03*
%TO.P,Q1,1*%
%TO.N,BUZZ*%
X144600000Y-125550000D03*
%TD*%
%TO.P,C5,2*%
%TO.N,GND*%
%TA.AperFunction,SMDPad,CuDef*%
G36*
G01*
X162450000Y-91425000D02*
X162450000Y-92375000D01*
G75*
G02*
X162200000Y-92625000I-250000J0D01*
G01*
X161525000Y-92625000D01*
G75*
G02*
X161275000Y-92375000I0J250000D01*
G01*
X161275000Y-91425000D01*
G75*
G02*
X161525000Y-91175000I250000J0D01*
G01*
X162200000Y-91175000D01*
G75*
G02*
X162450000Y-91425000I0J-250000D01*
G01*
G37*
%TD.AperFunction*%
%TO.P,C5,1*%
%TO.N,SW1*%
%TA.AperFunction,SMDPad,CuDef*%
G36*
G01*
X164525000Y-91425000D02*
X164525000Y-92375000D01*
G75*
G02*
X164275000Y-92625000I-250000J0D01*
G01*
X163600000Y-92625000D01*
G75*
G02*
X163350000Y-92375000I0J250000D01*
G01*
X163350000Y-91425000D01*
G75*
G02*
X163600000Y-91175000I250000J0D01*
G01*
X164275000Y-91175000D01*
G75*
G02*
X164525000Y-91425000I0J-250000D01*
G01*
G37*
%TD.AperFunction*%
%TD*%
%TO.P,C4,2*%
%TO.N,GND*%
%TA.AperFunction,SMDPad,CuDef*%
G36*
G01*
X162450000Y-99525000D02*
X162450000Y-100475000D01*
G75*
G02*
X162200000Y-100725000I-250000J0D01*
G01*
X161525000Y-100725000D01*
G75*
G02*
X161275000Y-100475000I0J250000D01*
G01*
X161275000Y-99525000D01*
G75*
G02*
X161525000Y-99275000I250000J0D01*
G01*
X162200000Y-99275000D01*
G75*
G02*
X162450000Y-99525000I0J-250000D01*
G01*
G37*
%TD.AperFunction*%
%TO.P,C4,1*%
%TO.N,SW2*%
%TA.AperFunction,SMDPad,CuDef*%
G36*
G01*
X164525000Y-99525000D02*
X164525000Y-100475000D01*
G75*
G02*
X164275000Y-100725000I-250000J0D01*
G01*
X163600000Y-100725000D01*
G75*
G02*
X163350000Y-100475000I0J250000D01*
G01*
X163350000Y-99525000D01*
G75*
G02*
X163600000Y-99275000I250000J0D01*
G01*
X164275000Y-99275000D01*
G75*
G02*
X164525000Y-99525000I0J-250000D01*
G01*
G37*
%TD.AperFunction*%
%TD*%
D12*
%TO.P,BZ1,2*%
%TO.N,Net-(BZ1-Pad2)*%
X153300000Y-113900000D03*
D14*
%TO.P,BZ1,1*%
%TO.N,+3V3*%
X153300000Y-106300000D03*
%TD*%
D15*
%TO.P,U2,40*%
%TO.N,N/C*%
X135120000Y-151520000D03*
%TO.P,U2,39*%
X135120000Y-148980000D03*
%TO.P,U2,38*%
X135120000Y-146440000D03*
%TO.P,U2,37*%
X135120000Y-143900000D03*
%TO.P,U2,36*%
X135120000Y-141360000D03*
%TO.P,U2,35*%
X135120000Y-138820000D03*
%TO.P,U2,34*%
X135120000Y-136280000D03*
%TO.P,U2,33*%
%TO.N,TX*%
X135120000Y-133740000D03*
%TO.P,U2,32*%
%TO.N,RX*%
X135120000Y-131200000D03*
%TO.P,U2,31*%
%TO.N,SW2*%
X135120000Y-128660000D03*
%TO.P,U2,30*%
%TO.N,SW1*%
X135120000Y-126120000D03*
%TO.P,U2,29*%
%TO.N,BUZZ*%
X135120000Y-123580000D03*
%TO.P,U2,28*%
%TO.N,LED*%
X135120000Y-121040000D03*
%TO.P,U2,27*%
%TO.N,BUSY*%
X135120000Y-118500000D03*
%TO.P,U2,26*%
%TO.N,RST*%
X135120000Y-115960000D03*
%TO.P,U2,25*%
%TO.N,DC*%
X135120000Y-113420000D03*
%TO.P,U2,24*%
%TO.N,CS*%
X135120000Y-110880000D03*
%TO.P,U2,23*%
%TO.N,+3V3*%
X135120000Y-108340000D03*
%TO.P,U2,22*%
%TO.N,GND*%
X135120000Y-105800000D03*
%TO.P,U2,21*%
%TO.N,N/C*%
X135120000Y-103260000D03*
%TO.P,U2,20*%
%TO.N,+3V3*%
X119880000Y-151520000D03*
%TO.P,U2,19*%
%TO.N,GND*%
X119880000Y-148980000D03*
%TO.P,U2,18*%
%TO.N,N/C*%
X119880000Y-146440000D03*
%TO.P,U2,17*%
%TO.N,SDA*%
X119880000Y-143900000D03*
%TO.P,U2,16*%
%TO.N,SCL*%
X119880000Y-141360000D03*
%TO.P,U2,15*%
%TO.N,N/C*%
X119880000Y-138820000D03*
%TO.P,U2,14*%
X119880000Y-136280000D03*
%TO.P,U2,13*%
X119880000Y-133740000D03*
%TO.P,U2,12*%
%TO.N,SDA_RTC*%
X119880000Y-131200000D03*
%TO.P,U2,11*%
%TO.N,N/C*%
X119880000Y-128660000D03*
%TO.P,U2,10*%
X119880000Y-126120000D03*
%TO.P,U2,9*%
X119880000Y-123580000D03*
%TO.P,U2,8*%
X119880000Y-121040000D03*
%TO.P,U2,7*%
X119880000Y-118500000D03*
%TO.P,U2,6*%
X119880000Y-115960000D03*
%TO.P,U2,5*%
%TO.N,SCL_RTC*%
X119880000Y-113420000D03*
%TO.P,U2,4*%
%TO.N,MOSI*%
X119880000Y-110880000D03*
%TO.P,U2,3*%
%TO.N,N/C*%
X119880000Y-108340000D03*
%TO.P,U2,2*%
%TO.N,CLK*%
X119880000Y-105800000D03*
%TO.P,U2,1*%
%TO.N,N/C*%
X119880000Y-103260000D03*
%TD*%
%TO.P,U1,16*%
%TO.N,SCL_RTC*%
%TA.AperFunction,SMDPad,CuDef*%
G36*
G01*
X126275000Y-84905000D02*
X126275000Y-85205000D01*
G75*
G02*
X126125000Y-85355000I-150000J0D01*
G01*
X124375000Y-85355000D01*
G75*
G02*
X124225000Y-85205000I0J150000D01*
G01*
X124225000Y-84905000D01*
G75*
G02*
X124375000Y-84755000I150000J0D01*
G01*
X126125000Y-84755000D01*
G75*
G02*
X126275000Y-84905000I0J-150000D01*
G01*
G37*
%TD.AperFunction*%
%TO.P,U1,15*%
%TO.N,SDA_RTC*%
%TA.AperFunction,SMDPad,CuDef*%
G36*
G01*
X126275000Y-86175000D02*
X126275000Y-86475000D01*
G75*
G02*
X126125000Y-86625000I-150000J0D01*
G01*
X124375000Y-86625000D01*
G75*
G02*
X124225000Y-86475000I0J150000D01*
G01*
X124225000Y-86175000D01*
G75*
G02*
X124375000Y-86025000I150000J0D01*
G01*
X126125000Y-86025000D01*
G75*
G02*
X126275000Y-86175000I0J-150000D01*
G01*
G37*
%TD.AperFunction*%
%TO.P,U1,14*%
%TO.N,+BATT*%
%TA.AperFunction,SMDPad,CuDef*%
G36*
G01*
X126275000Y-87445000D02*
X126275000Y-87745000D01*
G75*
G02*
X126125000Y-87895000I-150000J0D01*
G01*
X124375000Y-87895000D01*
G75*
G02*
X124225000Y-87745000I0J150000D01*
G01*
X124225000Y-87445000D01*
G75*
G02*
X124375000Y-87295000I150000J0D01*
G01*
X126125000Y-87295000D01*
G75*
G02*
X126275000Y-87445000I0J-150000D01*
G01*
G37*
%TD.AperFunction*%
%TO.P,U1,13*%
%TO.N,GND*%
%TA.AperFunction,SMDPad,CuDef*%
G36*
G01*
X126275000Y-88715000D02*
X126275000Y-89015000D01*
G75*
G02*
X126125000Y-89165000I-150000J0D01*
G01*
X124375000Y-89165000D01*
G75*
G02*
X124225000Y-89015000I0J150000D01*
G01*
X124225000Y-88715000D01*
G75*
G02*
X124375000Y-88565000I150000J0D01*
G01*
X126125000Y-88565000D01*
G75*
G02*
X126275000Y-88715000I0J-150000D01*
G01*
G37*
%TD.AperFunction*%
%TO.P,U1,12*%
%TA.AperFunction,SMDPad,CuDef*%
G36*
G01*
X126275000Y-89985000D02*
X126275000Y-90285000D01*
G75*
G02*
X126125000Y-90435000I-150000J0D01*
G01*
X124375000Y-90435000D01*
G75*
G02*
X124225000Y-90285000I0J150000D01*
G01*
X124225000Y-89985000D01*
G75*
G02*
X124375000Y-89835000I150000J0D01*
G01*
X126125000Y-89835000D01*
G75*
G02*
X126275000Y-89985000I0J-150000D01*
G01*
G37*
%TD.AperFunction*%
%TO.P,U1,11*%
%TA.AperFunction,SMDPad,CuDef*%
G36*
G01*
X126275000Y-91255000D02*
X126275000Y-91555000D01*
G75*
G02*
X126125000Y-91705000I-150000J0D01*
G01*
X124375000Y-91705000D01*
G75*
G02*
X124225000Y-91555000I0J150000D01*
G01*
X124225000Y-91255000D01*
G75*
G02*
X124375000Y-91105000I150000J0D01*
G01*
X126125000Y-91105000D01*
G75*
G02*
X126275000Y-91255000I0J-150000D01*
G01*
G37*
%TD.AperFunction*%
%TO.P,U1,10*%
%TA.AperFunction,SMDPad,CuDef*%
G36*
G01*
X126275000Y-92525000D02*
X126275000Y-92825000D01*
G75*
G02*
X126125000Y-92975000I-150000J0D01*
G01*
X124375000Y-92975000D01*
G75*
G02*
X124225000Y-92825000I0J150000D01*
G01*
X124225000Y-92525000D01*
G75*
G02*
X124375000Y-92375000I150000J0D01*
G01*
X126125000Y-92375000D01*
G75*
G02*
X126275000Y-92525000I0J-150000D01*
G01*
G37*
%TD.AperFunction*%
%TO.P,U1,9*%
%TA.AperFunction,SMDPad,CuDef*%
G36*
G01*
X126275000Y-93795000D02*
X126275000Y-94095000D01*
G75*
G02*
X126125000Y-94245000I-150000J0D01*
G01*
X124375000Y-94245000D01*
G75*
G02*
X124225000Y-94095000I0J150000D01*
G01*
X124225000Y-93795000D01*
G75*
G02*
X124375000Y-93645000I150000J0D01*
G01*
X126125000Y-93645000D01*
G75*
G02*
X126275000Y-93795000I0J-150000D01*
G01*
G37*
%TD.AperFunction*%
%TO.P,U1,8*%
%TA.AperFunction,SMDPad,CuDef*%
G36*
G01*
X135575000Y-93795000D02*
X135575000Y-94095000D01*
G75*
G02*
X135425000Y-94245000I-150000J0D01*
G01*
X133675000Y-94245000D01*
G75*
G02*
X133525000Y-94095000I0J150000D01*
G01*
X133525000Y-93795000D01*
G75*
G02*
X133675000Y-93645000I150000J0D01*
G01*
X135425000Y-93645000D01*
G75*
G02*
X135575000Y-93795000I0J-150000D01*
G01*
G37*
%TD.AperFunction*%
%TO.P,U1,7*%
%TA.AperFunction,SMDPad,CuDef*%
G36*
G01*
X135575000Y-92525000D02*
X135575000Y-92825000D01*
G75*
G02*
X135425000Y-92975000I-150000J0D01*
G01*
X133675000Y-92975000D01*
G75*
G02*
X133525000Y-92825000I0J150000D01*
G01*
X133525000Y-92525000D01*
G75*
G02*
X133675000Y-92375000I150000J0D01*
G01*
X135425000Y-92375000D01*
G75*
G02*
X135575000Y-92525000I0J-150000D01*
G01*
G37*
%TD.AperFunction*%
%TO.P,U1,6*%
%TA.AperFunction,SMDPad,CuDef*%
G36*
G01*
X135575000Y-91255000D02*
X135575000Y-91555000D01*
G75*
G02*
X135425000Y-91705000I-150000J0D01*
G01*
X133675000Y-91705000D01*
G75*
G02*
X133525000Y-91555000I0J150000D01*
G01*
X133525000Y-91255000D01*
G75*
G02*
X133675000Y-91105000I150000J0D01*
G01*
X135425000Y-91105000D01*
G75*
G02*
X135575000Y-91255000I0J-150000D01*
G01*
G37*
%TD.AperFunction*%
%TO.P,U1,5*%
%TA.AperFunction,SMDPad,CuDef*%
G36*
G01*
X135575000Y-89985000D02*
X135575000Y-90285000D01*
G75*
G02*
X135425000Y-90435000I-150000J0D01*
G01*
X133675000Y-90435000D01*
G75*
G02*
X133525000Y-90285000I0J150000D01*
G01*
X133525000Y-89985000D01*
G75*
G02*
X133675000Y-89835000I150000J0D01*
G01*
X135425000Y-89835000D01*
G75*
G02*
X135575000Y-89985000I0J-150000D01*
G01*
G37*
%TD.AperFunction*%
%TO.P,U1,4*%
%TO.N,Net-(R3-Pad2)*%
%TA.AperFunction,SMDPad,CuDef*%
G36*
G01*
X135575000Y-88715000D02*
X135575000Y-89015000D01*
G75*
G02*
X135425000Y-89165000I-150000J0D01*
G01*
X133675000Y-89165000D01*
G75*
G02*
X133525000Y-89015000I0J150000D01*
G01*
X133525000Y-88715000D01*
G75*
G02*
X133675000Y-88565000I150000J0D01*
G01*
X135425000Y-88565000D01*
G75*
G02*
X135575000Y-88715000I0J-150000D01*
G01*
G37*
%TD.AperFunction*%
%TO.P,U1,3*%
%TO.N,Net-(R5-Pad2)*%
%TA.AperFunction,SMDPad,CuDef*%
G36*
G01*
X135575000Y-87445000D02*
X135575000Y-87745000D01*
G75*
G02*
X135425000Y-87895000I-150000J0D01*
G01*
X133675000Y-87895000D01*
G75*
G02*
X133525000Y-87745000I0J150000D01*
G01*
X133525000Y-87445000D01*
G75*
G02*
X133675000Y-87295000I150000J0D01*
G01*
X135425000Y-87295000D01*
G75*
G02*
X135575000Y-87445000I0J-150000D01*
G01*
G37*
%TD.AperFunction*%
%TO.P,U1,2*%
%TO.N,+3V3*%
%TA.AperFunction,SMDPad,CuDef*%
G36*
G01*
X135575000Y-86175000D02*
X135575000Y-86475000D01*
G75*
G02*
X135425000Y-86625000I-150000J0D01*
G01*
X133675000Y-86625000D01*
G75*
G02*
X133525000Y-86475000I0J150000D01*
G01*
X133525000Y-86175000D01*
G75*
G02*
X133675000Y-86025000I150000J0D01*
G01*
X135425000Y-86025000D01*
G75*
G02*
X135575000Y-86175000I0J-150000D01*
G01*
G37*
%TD.AperFunction*%
%TO.P,U1,1*%
%TO.N,Net-(R4-Pad2)*%
%TA.AperFunction,SMDPad,CuDef*%
G36*
G01*
X135575000Y-84905000D02*
X135575000Y-85205000D01*
G75*
G02*
X135425000Y-85355000I-150000J0D01*
G01*
X133675000Y-85355000D01*
G75*
G02*
X133525000Y-85205000I0J150000D01*
G01*
X133525000Y-84905000D01*
G75*
G02*
X133675000Y-84755000I150000J0D01*
G01*
X135425000Y-84755000D01*
G75*
G02*
X135575000Y-84905000I0J-150000D01*
G01*
G37*
%TD.AperFunction*%
%TD*%
%TO.P,R7,1*%
%TO.N,LED*%
%TA.AperFunction,SMDPad,CuDef*%
G36*
G01*
X168700000Y-111650001D02*
X168700000Y-110749999D01*
G75*
G02*
X168949999Y-110500000I249999J0D01*
G01*
X169650001Y-110500000D01*
G75*
G02*
X169900000Y-110749999I0J-249999D01*
G01*
X169900000Y-111650001D01*
G75*
G02*
X169650001Y-111900000I-249999J0D01*
G01*
X168949999Y-111900000D01*
G75*
G02*
X168700000Y-111650001I0J249999D01*
G01*
G37*
%TD.AperFunction*%
%TO.P,R7,2*%
%TO.N,Net-(D2-Pad2)*%
%TA.AperFunction,SMDPad,CuDef*%
G36*
G01*
X170700000Y-111650001D02*
X170700000Y-110749999D01*
G75*
G02*
X170949999Y-110500000I249999J0D01*
G01*
X171650001Y-110500000D01*
G75*
G02*
X171900000Y-110749999I0J-249999D01*
G01*
X171900000Y-111650001D01*
G75*
G02*
X171650001Y-111900000I-249999J0D01*
G01*
X170949999Y-111900000D01*
G75*
G02*
X170700000Y-111650001I0J249999D01*
G01*
G37*
%TD.AperFunction*%
%TD*%
%TO.P,R6,1*%
%TO.N,+3V3*%
%TA.AperFunction,SMDPad,CuDef*%
G36*
G01*
X168600000Y-106950001D02*
X168600000Y-106049999D01*
G75*
G02*
X168849999Y-105800000I249999J0D01*
G01*
X169550001Y-105800000D01*
G75*
G02*
X169800000Y-106049999I0J-249999D01*
G01*
X169800000Y-106950001D01*
G75*
G02*
X169550001Y-107200000I-249999J0D01*
G01*
X168849999Y-107200000D01*
G75*
G02*
X168600000Y-106950001I0J249999D01*
G01*
G37*
%TD.AperFunction*%
%TO.P,R6,2*%
%TO.N,Net-(D1-Pad2)*%
%TA.AperFunction,SMDPad,CuDef*%
G36*
G01*
X170600000Y-106950001D02*
X170600000Y-106049999D01*
G75*
G02*
X170849999Y-105800000I249999J0D01*
G01*
X171550001Y-105800000D01*
G75*
G02*
X171800000Y-106049999I0J-249999D01*
G01*
X171800000Y-106950001D01*
G75*
G02*
X171550001Y-107200000I-249999J0D01*
G01*
X170849999Y-107200000D01*
G75*
G02*
X170600000Y-106950001I0J249999D01*
G01*
G37*
%TD.AperFunction*%
%TD*%
%TO.P,R5,2*%
%TO.N,Net-(R5-Pad2)*%
%TA.AperFunction,SMDPad,CuDef*%
G36*
G01*
X137249999Y-87700000D02*
X138150001Y-87700000D01*
G75*
G02*
X138400000Y-87949999I0J-249999D01*
G01*
X138400000Y-88650001D01*
G75*
G02*
X138150001Y-88900000I-249999J0D01*
G01*
X137249999Y-88900000D01*
G75*
G02*
X137000000Y-88650001I0J249999D01*
G01*
X137000000Y-87949999D01*
G75*
G02*
X137249999Y-87700000I249999J0D01*
G01*
G37*
%TD.AperFunction*%
%TO.P,R5,1*%
%TO.N,+3V3*%
%TA.AperFunction,SMDPad,CuDef*%
G36*
G01*
X137249999Y-85700000D02*
X138150001Y-85700000D01*
G75*
G02*
X138400000Y-85949999I0J-249999D01*
G01*
X138400000Y-86650001D01*
G75*
G02*
X138150001Y-86900000I-249999J0D01*
G01*
X137249999Y-86900000D01*
G75*
G02*
X137000000Y-86650001I0J249999D01*
G01*
X137000000Y-85949999D01*
G75*
G02*
X137249999Y-85700000I249999J0D01*
G01*
G37*
%TD.AperFunction*%
%TD*%
%TO.P,R4,2*%
%TO.N,Net-(R4-Pad2)*%
%TA.AperFunction,SMDPad,CuDef*%
G36*
G01*
X140950001Y-84800000D02*
X140049999Y-84800000D01*
G75*
G02*
X139800000Y-84550001I0J249999D01*
G01*
X139800000Y-83849999D01*
G75*
G02*
X140049999Y-83600000I249999J0D01*
G01*
X140950001Y-83600000D01*
G75*
G02*
X141200000Y-83849999I0J-249999D01*
G01*
X141200000Y-84550001D01*
G75*
G02*
X140950001Y-84800000I-249999J0D01*
G01*
G37*
%TD.AperFunction*%
%TO.P,R4,1*%
%TO.N,+3V3*%
%TA.AperFunction,SMDPad,CuDef*%
G36*
G01*
X140950001Y-86800000D02*
X140049999Y-86800000D01*
G75*
G02*
X139800000Y-86550001I0J249999D01*
G01*
X139800000Y-85849999D01*
G75*
G02*
X140049999Y-85600000I249999J0D01*
G01*
X140950001Y-85600000D01*
G75*
G02*
X141200000Y-85849999I0J-249999D01*
G01*
X141200000Y-86550001D01*
G75*
G02*
X140950001Y-86800000I-249999J0D01*
G01*
G37*
%TD.AperFunction*%
%TD*%
%TO.P,R3,2*%
%TO.N,Net-(R3-Pad2)*%
%TA.AperFunction,SMDPad,CuDef*%
G36*
G01*
X140049999Y-89700000D02*
X140950001Y-89700000D01*
G75*
G02*
X141200000Y-89949999I0J-249999D01*
G01*
X141200000Y-90650001D01*
G75*
G02*
X140950001Y-90900000I-249999J0D01*
G01*
X140049999Y-90900000D01*
G75*
G02*
X139800000Y-90650001I0J249999D01*
G01*
X139800000Y-89949999D01*
G75*
G02*
X140049999Y-89700000I249999J0D01*
G01*
G37*
%TD.AperFunction*%
%TO.P,R3,1*%
%TO.N,+3V3*%
%TA.AperFunction,SMDPad,CuDef*%
G36*
G01*
X140049999Y-87700000D02*
X140950001Y-87700000D01*
G75*
G02*
X141200000Y-87949999I0J-249999D01*
G01*
X141200000Y-88650001D01*
G75*
G02*
X140950001Y-88900000I-249999J0D01*
G01*
X140049999Y-88900000D01*
G75*
G02*
X139800000Y-88650001I0J249999D01*
G01*
X139800000Y-87949999D01*
G75*
G02*
X140049999Y-87700000I249999J0D01*
G01*
G37*
%TD.AperFunction*%
%TD*%
%TO.P,R2,2*%
%TO.N,SDA_RTC*%
%TA.AperFunction,SMDPad,CuDef*%
G36*
G01*
X114950001Y-132100000D02*
X114049999Y-132100000D01*
G75*
G02*
X113800000Y-131850001I0J249999D01*
G01*
X113800000Y-131149999D01*
G75*
G02*
X114049999Y-130900000I249999J0D01*
G01*
X114950001Y-130900000D01*
G75*
G02*
X115200000Y-131149999I0J-249999D01*
G01*
X115200000Y-131850001D01*
G75*
G02*
X114950001Y-132100000I-249999J0D01*
G01*
G37*
%TD.AperFunction*%
%TO.P,R2,1*%
%TO.N,+3V3*%
%TA.AperFunction,SMDPad,CuDef*%
G36*
G01*
X114950001Y-134100000D02*
X114049999Y-134100000D01*
G75*
G02*
X113800000Y-133850001I0J249999D01*
G01*
X113800000Y-133149999D01*
G75*
G02*
X114049999Y-132900000I249999J0D01*
G01*
X114950001Y-132900000D01*
G75*
G02*
X115200000Y-133149999I0J-249999D01*
G01*
X115200000Y-133850001D01*
G75*
G02*
X114950001Y-134100000I-249999J0D01*
G01*
G37*
%TD.AperFunction*%
%TD*%
%TO.P,R1,2*%
%TO.N,SCL_RTC*%
%TA.AperFunction,SMDPad,CuDef*%
G36*
G01*
X115850001Y-117500000D02*
X114949999Y-117500000D01*
G75*
G02*
X114700000Y-117250001I0J249999D01*
G01*
X114700000Y-116549999D01*
G75*
G02*
X114949999Y-116300000I249999J0D01*
G01*
X115850001Y-116300000D01*
G75*
G02*
X116100000Y-116549999I0J-249999D01*
G01*
X116100000Y-117250001D01*
G75*
G02*
X115850001Y-117500000I-249999J0D01*
G01*
G37*
%TD.AperFunction*%
%TO.P,R1,1*%
%TO.N,+3V3*%
%TA.AperFunction,SMDPad,CuDef*%
G36*
G01*
X115850001Y-119500000D02*
X114949999Y-119500000D01*
G75*
G02*
X114700000Y-119250001I0J249999D01*
G01*
X114700000Y-118549999D01*
G75*
G02*
X114949999Y-118300000I249999J0D01*
G01*
X115850001Y-118300000D01*
G75*
G02*
X116100000Y-118549999I0J-249999D01*
G01*
X116100000Y-119250001D01*
G75*
G02*
X115850001Y-119500000I-249999J0D01*
G01*
G37*
%TD.AperFunction*%
%TD*%
D16*
%TO.P,J2,4*%
%TO.N,+3V3*%
X109900000Y-136580000D03*
%TO.P,J2,3*%
%TO.N,GND*%
X109900000Y-139120000D03*
%TO.P,J2,2*%
%TO.N,SCL*%
X109900000Y-141660000D03*
D17*
%TO.P,J2,1*%
%TO.N,SDA*%
X109900000Y-144200000D03*
%TD*%
%TO.P,D2,2*%
%TO.N,Net-(D2-Pad2)*%
%TA.AperFunction,SMDPad,CuDef*%
G36*
G01*
X174750000Y-110749999D02*
X174750000Y-111650001D01*
G75*
G02*
X174500001Y-111900000I-249999J0D01*
G01*
X173849999Y-111900000D01*
G75*
G02*
X173600000Y-111650001I0J249999D01*
G01*
X173600000Y-110749999D01*
G75*
G02*
X173849999Y-110500000I249999J0D01*
G01*
X174500001Y-110500000D01*
G75*
G02*
X174750000Y-110749999I0J-249999D01*
G01*
G37*
%TD.AperFunction*%
%TO.P,D2,1*%
%TO.N,GND*%
%TA.AperFunction,SMDPad,CuDef*%
G36*
G01*
X176800000Y-110749999D02*
X176800000Y-111650001D01*
G75*
G02*
X176550001Y-111900000I-249999J0D01*
G01*
X175899999Y-111900000D01*
G75*
G02*
X175650000Y-111650001I0J249999D01*
G01*
X175650000Y-110749999D01*
G75*
G02*
X175899999Y-110500000I249999J0D01*
G01*
X176550001Y-110500000D01*
G75*
G02*
X176800000Y-110749999I0J-249999D01*
G01*
G37*
%TD.AperFunction*%
%TD*%
%TO.P,D1,1*%
%TO.N,GND*%
%TA.AperFunction,SMDPad,CuDef*%
G36*
G01*
X176800000Y-106049999D02*
X176800000Y-106950001D01*
G75*
G02*
X176550001Y-107200000I-249999J0D01*
G01*
X175899999Y-107200000D01*
G75*
G02*
X175650000Y-106950001I0J249999D01*
G01*
X175650000Y-106049999D01*
G75*
G02*
X175899999Y-105800000I249999J0D01*
G01*
X176550001Y-105800000D01*
G75*
G02*
X176800000Y-106049999I0J-249999D01*
G01*
G37*
%TD.AperFunction*%
%TO.P,D1,2*%
%TO.N,Net-(D1-Pad2)*%
%TA.AperFunction,SMDPad,CuDef*%
G36*
G01*
X174750000Y-106049999D02*
X174750000Y-106950001D01*
G75*
G02*
X174500001Y-107200000I-249999J0D01*
G01*
X173849999Y-107200000D01*
G75*
G02*
X173600000Y-106950001I0J249999D01*
G01*
X173600000Y-106049999D01*
G75*
G02*
X173849999Y-105800000I249999J0D01*
G01*
X174500001Y-105800000D01*
G75*
G02*
X174750000Y-106049999I0J-249999D01*
G01*
G37*
%TD.AperFunction*%
%TD*%
%TO.P,C3,2*%
%TO.N,GND*%
%TA.AperFunction,SMDPad,CuDef*%
G36*
G01*
X140775000Y-106850000D02*
X139825000Y-106850000D01*
G75*
G02*
X139575000Y-106600000I0J250000D01*
G01*
X139575000Y-105925000D01*
G75*
G02*
X139825000Y-105675000I250000J0D01*
G01*
X140775000Y-105675000D01*
G75*
G02*
X141025000Y-105925000I0J-250000D01*
G01*
X141025000Y-106600000D01*
G75*
G02*
X140775000Y-106850000I-250000J0D01*
G01*
G37*
%TD.AperFunction*%
%TO.P,C3,1*%
%TO.N,+3V3*%
%TA.AperFunction,SMDPad,CuDef*%
G36*
G01*
X140775000Y-108925000D02*
X139825000Y-108925000D01*
G75*
G02*
X139575000Y-108675000I0J250000D01*
G01*
X139575000Y-108000000D01*
G75*
G02*
X139825000Y-107750000I250000J0D01*
G01*
X140775000Y-107750000D01*
G75*
G02*
X141025000Y-108000000I0J-250000D01*
G01*
X141025000Y-108675000D01*
G75*
G02*
X140775000Y-108925000I-250000J0D01*
G01*
G37*
%TD.AperFunction*%
%TD*%
%TO.P,C2,2*%
%TO.N,GND*%
%TA.AperFunction,SMDPad,CuDef*%
G36*
G01*
X143975000Y-106887500D02*
X143025000Y-106887500D01*
G75*
G02*
X142775000Y-106637500I0J250000D01*
G01*
X142775000Y-105962500D01*
G75*
G02*
X143025000Y-105712500I250000J0D01*
G01*
X143975000Y-105712500D01*
G75*
G02*
X144225000Y-105962500I0J-250000D01*
G01*
X144225000Y-106637500D01*
G75*
G02*
X143975000Y-106887500I-250000J0D01*
G01*
G37*
%TD.AperFunction*%
%TO.P,C2,1*%
%TO.N,+3V3*%
%TA.AperFunction,SMDPad,CuDef*%
G36*
G01*
X143975000Y-108962500D02*
X143025000Y-108962500D01*
G75*
G02*
X142775000Y-108712500I0J250000D01*
G01*
X142775000Y-108037500D01*
G75*
G02*
X143025000Y-107787500I250000J0D01*
G01*
X143975000Y-107787500D01*
G75*
G02*
X144225000Y-108037500I0J-250000D01*
G01*
X144225000Y-108712500D01*
G75*
G02*
X143975000Y-108962500I-250000J0D01*
G01*
G37*
%TD.AperFunction*%
%TD*%
%TO.P,C1,2*%
%TO.N,GND*%
%TA.AperFunction,SMDPad,CuDef*%
G36*
G01*
X136925000Y-93350000D02*
X137875000Y-93350000D01*
G75*
G02*
X138125000Y-93600000I0J-250000D01*
G01*
X138125000Y-94275000D01*
G75*
G02*
X137875000Y-94525000I-250000J0D01*
G01*
X136925000Y-94525000D01*
G75*
G02*
X136675000Y-94275000I0J250000D01*
G01*
X136675000Y-93600000D01*
G75*
G02*
X136925000Y-93350000I250000J0D01*
G01*
G37*
%TD.AperFunction*%
%TO.P,C1,1*%
%TO.N,+3V3*%
%TA.AperFunction,SMDPad,CuDef*%
G36*
G01*
X136925000Y-91275000D02*
X137875000Y-91275000D01*
G75*
G02*
X138125000Y-91525000I0J-250000D01*
G01*
X138125000Y-92200000D01*
G75*
G02*
X137875000Y-92450000I-250000J0D01*
G01*
X136925000Y-92450000D01*
G75*
G02*
X136675000Y-92200000I0J250000D01*
G01*
X136675000Y-91525000D01*
G75*
G02*
X136925000Y-91275000I250000J0D01*
G01*
G37*
%TD.AperFunction*%
%TD*%
D18*
%TO.P,BT1,1*%
%TO.N,+BATT*%
X114750000Y-93300000D03*
%TO.P,BT1,2*%
%TO.N,GND*%
X85450000Y-93300000D03*
%TD*%
D16*
%TO.P,J1,8*%
%TO.N,BUSY*%
X79000000Y-124080000D03*
%TO.P,J1,7*%
%TO.N,RST*%
X79000000Y-121540000D03*
%TO.P,J1,6*%
%TO.N,DC*%
X79000000Y-119000000D03*
%TO.P,J1,5*%
%TO.N,CS*%
X79000000Y-116460000D03*
%TO.P,J1,4*%
%TO.N,CLK*%
X79000000Y-113920000D03*
%TO.P,J1,3*%
%TO.N,MOSI*%
X79000000Y-111380000D03*
%TO.P,J1,2*%
%TO.N,GND*%
X79000000Y-108840000D03*
D17*
%TO.P,J1,1*%
%TO.N,+3V3*%
X79000000Y-106300000D03*
%TD*%
D19*
%TO.N,GND*%
X176200010Y-109025000D03*
X140300000Y-103700000D03*
%TO.N,+3V3*%
X152300000Y-141800000D03*
X169700000Y-153400000D03*
%TO.N,CLK*%
X116000000Y-106100000D03*
X99400000Y-114000000D03*
%TO.N,MOSI*%
X116020000Y-111180000D03*
X88300000Y-111400000D03*
%TO.N,SCL_RTC*%
X115400000Y-114900000D03*
X118600000Y-85100000D03*
%TO.N,SDA_RTC*%
X118800000Y-87100000D03*
X114500000Y-129000000D03*
%TO.N,SW2*%
X166200000Y-101700000D03*
X140100000Y-128700000D03*
%TO.N,SW1*%
X166300000Y-93500000D03*
X140000000Y-126200000D03*
%TD*%
D20*
%TO.N,+BATT*%
X120455000Y-87595000D02*
X125250000Y-87595000D01*
X114750000Y-93300000D02*
X120455000Y-87595000D01*
%TO.N,GND*%
X143462500Y-106262500D02*
X143500000Y-106300000D01*
X112289998Y-149280000D02*
X119880000Y-149280000D01*
X108499999Y-145490001D02*
X112289998Y-149280000D01*
X108499999Y-140987999D02*
X108499999Y-145490001D01*
X109900000Y-139587998D02*
X108499999Y-140987999D01*
X109900000Y-139120000D02*
X109900000Y-139587998D01*
X143300000Y-106100000D02*
X143500000Y-106300000D01*
X135120000Y-106100000D02*
X143300000Y-106100000D01*
X85450000Y-102390000D02*
X85450000Y-93300000D01*
X79000000Y-108840000D02*
X85450000Y-102390000D01*
X134557500Y-93937500D02*
X134550000Y-93945000D01*
X137400000Y-93937500D02*
X134557500Y-93937500D01*
X134550000Y-93945000D02*
X134550000Y-90135000D01*
X125250000Y-88865000D02*
X125250000Y-93945000D01*
X176225000Y-106500000D02*
X176225000Y-111200000D01*
X136432001Y-95827001D02*
X134550000Y-93945000D01*
X136432001Y-104787999D02*
X136432001Y-95827001D01*
X135120000Y-106100000D02*
X136432001Y-104787999D01*
X123544999Y-95650001D02*
X125250000Y-93945000D01*
X87800001Y-95650001D02*
X123544999Y-95650001D01*
X85450000Y-93300000D02*
X87800001Y-95650001D01*
X176225000Y-109000010D02*
X176200010Y-109025000D01*
X176225000Y-106500000D02*
X176225000Y-109000010D01*
X140300000Y-103700000D02*
X140300000Y-106262500D01*
X158540000Y-134100000D02*
X161700000Y-134100000D01*
X166467999Y-152832001D02*
X176225000Y-143075000D01*
X176225000Y-112656762D02*
X176225000Y-111200000D01*
X123732001Y-152832001D02*
X166467999Y-152832001D01*
X119880000Y-148980000D02*
X123732001Y-152832001D01*
X144550000Y-123600000D02*
X144600000Y-123650000D01*
X142100000Y-123600000D02*
X144550000Y-123600000D01*
X168825374Y-112656762D02*
X176225000Y-112656762D01*
X168468602Y-112299990D02*
X168825374Y-112656762D01*
X152606008Y-112299990D02*
X168468602Y-112299990D01*
X144600000Y-120305998D02*
X152606008Y-112299990D01*
X144600000Y-123650000D02*
X144600000Y-120305998D01*
X161900000Y-99962500D02*
X161862500Y-100000000D01*
X161900000Y-87100000D02*
X161900000Y-99962500D01*
X129835000Y-87755034D02*
X129835000Y-90135000D01*
X157849990Y-83049990D02*
X134540044Y-83049990D01*
X134540044Y-83049990D02*
X129835000Y-87755034D01*
X161900000Y-87100000D02*
X157849990Y-83049990D01*
X129835000Y-90135000D02*
X125250000Y-90135000D01*
X134550000Y-90135000D02*
X129835000Y-90135000D01*
X176100000Y-134100000D02*
X176225000Y-134225000D01*
X161700000Y-134100000D02*
X176100000Y-134100000D01*
X176225000Y-134225000D02*
X176225000Y-112656762D01*
X176225000Y-143075000D02*
X176225000Y-134225000D01*
%TO.N,+3V3*%
X143462500Y-108337500D02*
X143500000Y-108375000D01*
X109900000Y-136580000D02*
X106720000Y-136580000D01*
X77599999Y-107700001D02*
X79000000Y-106300000D01*
X77599999Y-124752001D02*
X77599999Y-107700001D01*
X89427998Y-136580000D02*
X77599999Y-124752001D01*
X106720000Y-136580000D02*
X89427998Y-136580000D01*
X111420000Y-136580000D02*
X114500000Y-133500000D01*
X109900000Y-136580000D02*
X111420000Y-136580000D01*
X143235000Y-108640000D02*
X143500000Y-108375000D01*
X135120000Y-108640000D02*
X143235000Y-108640000D01*
X111420000Y-122880000D02*
X111420000Y-136580000D01*
X115400000Y-118900000D02*
X111420000Y-122880000D01*
X140375000Y-86325000D02*
X140500000Y-86200000D01*
X134550000Y-86325000D02*
X140375000Y-86325000D01*
X140500000Y-86200000D02*
X140500000Y-88300000D01*
X141750010Y-89550010D02*
X140500000Y-88300000D01*
X141750010Y-90981378D02*
X141750010Y-89550010D01*
X140868888Y-91862500D02*
X141750010Y-90981378D01*
X137400000Y-91862500D02*
X140868888Y-91862500D01*
X144775010Y-107099990D02*
X143500000Y-108375000D01*
X144775010Y-92575010D02*
X144775010Y-107099990D01*
X141750010Y-89550010D02*
X144775010Y-92575010D01*
X144437490Y-107437510D02*
X143500000Y-108375000D01*
X169200000Y-106500000D02*
X168262490Y-107437510D01*
X154120000Y-141720000D02*
X152500000Y-140100000D01*
X156000000Y-141720000D02*
X154120000Y-141720000D01*
X177350010Y-105718622D02*
X176881378Y-105249990D01*
X170450010Y-105249990D02*
X169200000Y-106500000D01*
X167067989Y-153732011D02*
X177350010Y-143449990D01*
X176881378Y-105249990D02*
X170450010Y-105249990D01*
X121792011Y-153732011D02*
X167067989Y-153732011D01*
X106620000Y-151820000D02*
X119880000Y-151820000D01*
X119880000Y-151820000D02*
X121792011Y-153732011D01*
X105100000Y-150300000D02*
X106620000Y-151820000D01*
X177350010Y-143449990D02*
X177350010Y-105718622D01*
X105100000Y-138200000D02*
X105100000Y-150300000D01*
X106720000Y-136580000D02*
X105100000Y-138200000D01*
X153300000Y-107375020D02*
X153362490Y-107437510D01*
X153300000Y-105600000D02*
X153300000Y-107375020D01*
X153362490Y-107437510D02*
X144437490Y-107437510D01*
X168262490Y-107437510D02*
X153362490Y-107437510D01*
X177550001Y-97050001D02*
X176000000Y-95500000D01*
X177550001Y-105518631D02*
X177550001Y-97050001D01*
X177350010Y-105718622D02*
X177550001Y-105518631D01*
X177550001Y-88950001D02*
X176000000Y-87400000D01*
X177550001Y-97050001D02*
X177550001Y-88950001D01*
X176000000Y-95500000D02*
X169500000Y-95500000D01*
X176000000Y-87400000D02*
X169500000Y-87400000D01*
X152500000Y-141600000D02*
X152300000Y-141800000D01*
X152500000Y-140100000D02*
X152500000Y-141600000D01*
X167400000Y-153400000D02*
X167067989Y-153732011D01*
X169700000Y-153400000D02*
X167400000Y-153400000D01*
%TO.N,Net-(D1-Pad2)*%
X171200000Y-106500000D02*
X174175000Y-106500000D01*
%TO.N,Net-(D2-Pad2)*%
X174175000Y-111200000D02*
X171300000Y-111200000D01*
%TO.N,BUSY*%
X135120000Y-118800000D02*
X127300000Y-110980000D01*
X120509761Y-102247999D02*
X117652001Y-102247999D01*
X127300000Y-109038238D02*
X120509761Y-102247999D01*
X127300000Y-110980000D02*
X127300000Y-109038238D01*
X95820000Y-124080000D02*
X79000000Y-124080000D01*
X117652001Y-102247999D02*
X95820000Y-124080000D01*
%TO.N,RST*%
X120882557Y-101347989D02*
X117252011Y-101347989D01*
X135120000Y-115585432D02*
X120882557Y-101347989D01*
X135120000Y-116260000D02*
X135120000Y-115585432D01*
X97060000Y-121540000D02*
X79000000Y-121540000D01*
X117252011Y-101347989D02*
X97060000Y-121540000D01*
%TO.N,DC*%
X121847979Y-100447979D02*
X116879214Y-100447980D01*
X135120000Y-113720000D02*
X121847979Y-100447979D01*
X98327194Y-119000000D02*
X79000000Y-119000000D01*
X116879214Y-100447980D02*
X98327194Y-119000000D01*
%TO.N,CS*%
X123487971Y-99547971D02*
X116352029Y-99547971D01*
X135120000Y-111180000D02*
X123487971Y-99547971D01*
X99440000Y-116460000D02*
X79000000Y-116460000D01*
X116352029Y-99547971D02*
X99440000Y-116460000D01*
%TO.N,CLK*%
X119880000Y-106100000D02*
X116000000Y-106100000D01*
X79080000Y-114000000D02*
X79000000Y-113920000D01*
X99400000Y-114000000D02*
X79080000Y-114000000D01*
%TO.N,MOSI*%
X119880000Y-111180000D02*
X116020000Y-111180000D01*
X79020000Y-111400000D02*
X79000000Y-111380000D01*
X88300000Y-111400000D02*
X79020000Y-111400000D01*
%TO.N,SCL*%
X109900000Y-141660000D02*
X119880000Y-141660000D01*
%TO.N,SDA*%
X109900000Y-144200000D02*
X119880000Y-144200000D01*
%TO.N,SCL_RTC*%
X116700000Y-116900000D02*
X119880000Y-113720000D01*
X115400000Y-116900000D02*
X116700000Y-116900000D01*
X115400000Y-116900000D02*
X115400000Y-114900000D01*
X125205000Y-85100000D02*
X125250000Y-85055000D01*
X118600000Y-85100000D02*
X125205000Y-85100000D01*
%TO.N,SDA_RTC*%
X114500000Y-131500000D02*
X119880000Y-131500000D01*
X119575000Y-86325000D02*
X118800000Y-87100000D01*
X125250000Y-86325000D02*
X119575000Y-86325000D01*
X114500000Y-129000000D02*
X114500000Y-131500000D01*
%TO.N,Net-(R3-Pad2)*%
X135294966Y-88865000D02*
X134550000Y-88865000D01*
X136729966Y-90300000D02*
X135294966Y-88865000D01*
X140500000Y-90300000D02*
X136729966Y-90300000D01*
%TO.N,Net-(R4-Pad2)*%
X139645000Y-85055000D02*
X140500000Y-84200000D01*
X134550000Y-85055000D02*
X139645000Y-85055000D01*
%TO.N,Net-(R5-Pad2)*%
X136995000Y-87595000D02*
X134550000Y-87595000D01*
X137700000Y-88300000D02*
X136995000Y-87595000D01*
%TO.N,LED*%
X145260000Y-111200000D02*
X135120000Y-121340000D01*
X169300000Y-111200000D02*
X145260000Y-111200000D01*
%TO.N,Net-(BZ1-Pad2)*%
X146600000Y-124600000D02*
X151500000Y-124600000D01*
X153300000Y-122800000D02*
X153300000Y-113200000D01*
X151500000Y-124600000D02*
X153300000Y-122800000D01*
%TO.N,SW2*%
X176000000Y-100000000D02*
X169500000Y-100000000D01*
X163937500Y-95537500D02*
X163900000Y-95500000D01*
X163937500Y-100000000D02*
X163937500Y-95537500D01*
X163937500Y-100000000D02*
X166200000Y-100000000D01*
X169500000Y-100000000D02*
X166200000Y-100000000D01*
X166200000Y-100000000D02*
X166200000Y-101700000D01*
X135160000Y-128700000D02*
X135120000Y-128660000D01*
X140100000Y-128700000D02*
X135160000Y-128700000D01*
%TO.N,SW1*%
X176000000Y-91900000D02*
X169500000Y-91900000D01*
X163937500Y-87137500D02*
X163900000Y-87100000D01*
X163937500Y-91900000D02*
X163937500Y-87137500D01*
X166300000Y-91900000D02*
X166300000Y-93500000D01*
X169500000Y-91900000D02*
X166300000Y-91900000D01*
X166300000Y-91900000D02*
X163937500Y-91900000D01*
X135200000Y-126200000D02*
X135120000Y-126120000D01*
X140000000Y-126200000D02*
X135200000Y-126200000D01*
%TO.N,BUZZ*%
X135140000Y-123600000D02*
X135120000Y-123580000D01*
X140100000Y-123600000D02*
X135140000Y-123600000D01*
X142050000Y-125550000D02*
X140100000Y-123600000D01*
X144600000Y-125550000D02*
X142050000Y-125550000D01*
%TO.N,Net-(R8-Pad2)*%
X154540000Y-138100000D02*
X156000000Y-136640000D01*
X152500000Y-138100000D02*
X154540000Y-138100000D01*
D21*
%TO.N,Net-(R9-Pad1)*%
X157351399Y-137828601D02*
X156000000Y-139180000D01*
X159971399Y-137828601D02*
X157351399Y-137828601D01*
X161700000Y-136100000D02*
X159971399Y-137828601D01*
D20*
%TO.N,TX*%
X144513601Y-143133601D02*
X135120000Y-133740000D01*
X157126399Y-143133601D02*
X144513601Y-143133601D01*
X158540000Y-141720000D02*
X157126399Y-143133601D01*
%TO.N,RX*%
X138020000Y-134100000D02*
X135120000Y-131200000D01*
X156000000Y-134100000D02*
X138020000Y-134100000D01*
%TD*%
D22*
%TO.N,GND*%
X126315001Y-109446239D02*
X126315000Y-110931620D01*
X126310235Y-110980000D01*
X126315000Y-111028379D01*
X126329253Y-111173093D01*
X126385576Y-111358766D01*
X126477040Y-111529884D01*
X126600130Y-111679870D01*
X126637716Y-111710716D01*
X133762333Y-118835333D01*
X133776686Y-118907490D01*
X133881995Y-119161727D01*
X134034880Y-119390535D01*
X134229465Y-119585120D01*
X134458273Y-119738005D01*
X134535515Y-119770000D01*
X134458273Y-119801995D01*
X134229465Y-119954880D01*
X134034880Y-120149465D01*
X133881995Y-120378273D01*
X133776686Y-120632510D01*
X133723000Y-120902408D01*
X133723000Y-121177592D01*
X133776686Y-121447490D01*
X133881995Y-121701727D01*
X134034880Y-121930535D01*
X134229465Y-122125120D01*
X134458273Y-122278005D01*
X134535515Y-122310000D01*
X134458273Y-122341995D01*
X134229465Y-122494880D01*
X134034880Y-122689465D01*
X133881995Y-122918273D01*
X133776686Y-123172510D01*
X133723000Y-123442408D01*
X133723000Y-123717592D01*
X133776686Y-123987490D01*
X133881995Y-124241727D01*
X134034880Y-124470535D01*
X134229465Y-124665120D01*
X134458273Y-124818005D01*
X134535515Y-124850000D01*
X134458273Y-124881995D01*
X134229465Y-125034880D01*
X134034880Y-125229465D01*
X133881995Y-125458273D01*
X133776686Y-125712510D01*
X133723000Y-125982408D01*
X133723000Y-126257592D01*
X133776686Y-126527490D01*
X133881995Y-126781727D01*
X134034880Y-127010535D01*
X134229465Y-127205120D01*
X134458273Y-127358005D01*
X134535515Y-127390000D01*
X134458273Y-127421995D01*
X134229465Y-127574880D01*
X134034880Y-127769465D01*
X133881995Y-127998273D01*
X133776686Y-128252510D01*
X133723000Y-128522408D01*
X133723000Y-128797592D01*
X133776686Y-129067490D01*
X133881995Y-129321727D01*
X134034880Y-129550535D01*
X134229465Y-129745120D01*
X134458273Y-129898005D01*
X134535515Y-129930000D01*
X134458273Y-129961995D01*
X134229465Y-130114880D01*
X134034880Y-130309465D01*
X133881995Y-130538273D01*
X133776686Y-130792510D01*
X133723000Y-131062408D01*
X133723000Y-131337592D01*
X133776686Y-131607490D01*
X133881995Y-131861727D01*
X134034880Y-132090535D01*
X134229465Y-132285120D01*
X134458273Y-132438005D01*
X134535515Y-132470000D01*
X134458273Y-132501995D01*
X134229465Y-132654880D01*
X134034880Y-132849465D01*
X133881995Y-133078273D01*
X133776686Y-133332510D01*
X133723000Y-133602408D01*
X133723000Y-133877592D01*
X133776686Y-134147490D01*
X133881995Y-134401727D01*
X134034880Y-134630535D01*
X134229465Y-134825120D01*
X134458273Y-134978005D01*
X134535515Y-135010000D01*
X134458273Y-135041995D01*
X134229465Y-135194880D01*
X134034880Y-135389465D01*
X133881995Y-135618273D01*
X133776686Y-135872510D01*
X133723000Y-136142408D01*
X133723000Y-136417592D01*
X133776686Y-136687490D01*
X133881995Y-136941727D01*
X134034880Y-137170535D01*
X134229465Y-137365120D01*
X134458273Y-137518005D01*
X134535515Y-137550000D01*
X134458273Y-137581995D01*
X134229465Y-137734880D01*
X134034880Y-137929465D01*
X133881995Y-138158273D01*
X133776686Y-138412510D01*
X133723000Y-138682408D01*
X133723000Y-138957592D01*
X133776686Y-139227490D01*
X133881995Y-139481727D01*
X134034880Y-139710535D01*
X134229465Y-139905120D01*
X134458273Y-140058005D01*
X134535515Y-140090000D01*
X134458273Y-140121995D01*
X134229465Y-140274880D01*
X134034880Y-140469465D01*
X133881995Y-140698273D01*
X133776686Y-140952510D01*
X133723000Y-141222408D01*
X133723000Y-141497592D01*
X133776686Y-141767490D01*
X133881995Y-142021727D01*
X134034880Y-142250535D01*
X134229465Y-142445120D01*
X134458273Y-142598005D01*
X134535515Y-142630000D01*
X134458273Y-142661995D01*
X134229465Y-142814880D01*
X134034880Y-143009465D01*
X133881995Y-143238273D01*
X133776686Y-143492510D01*
X133723000Y-143762408D01*
X133723000Y-144037592D01*
X133776686Y-144307490D01*
X133881995Y-144561727D01*
X134034880Y-144790535D01*
X134229465Y-144985120D01*
X134458273Y-145138005D01*
X134535515Y-145170000D01*
X134458273Y-145201995D01*
X134229465Y-145354880D01*
X134034880Y-145549465D01*
X133881995Y-145778273D01*
X133776686Y-146032510D01*
X133723000Y-146302408D01*
X133723000Y-146577592D01*
X133776686Y-146847490D01*
X133881995Y-147101727D01*
X134034880Y-147330535D01*
X134229465Y-147525120D01*
X134458273Y-147678005D01*
X134535515Y-147710000D01*
X134458273Y-147741995D01*
X134229465Y-147894880D01*
X134034880Y-148089465D01*
X133881995Y-148318273D01*
X133776686Y-148572510D01*
X133723000Y-148842408D01*
X133723000Y-149117592D01*
X133776686Y-149387490D01*
X133881995Y-149641727D01*
X134034880Y-149870535D01*
X134229465Y-150065120D01*
X134458273Y-150218005D01*
X134535515Y-150250000D01*
X134458273Y-150281995D01*
X134229465Y-150434880D01*
X134034880Y-150629465D01*
X133881995Y-150858273D01*
X133776686Y-151112510D01*
X133723000Y-151382408D01*
X133723000Y-151657592D01*
X133776686Y-151927490D01*
X133881995Y-152181727D01*
X134034880Y-152410535D01*
X134229465Y-152605120D01*
X134441819Y-152747011D01*
X122200012Y-152747011D01*
X121249391Y-151796391D01*
X121277000Y-151657592D01*
X121277000Y-151382408D01*
X121223314Y-151112510D01*
X121118005Y-150858273D01*
X120965120Y-150629465D01*
X120770535Y-150434880D01*
X120541727Y-150281995D01*
X120470057Y-150252308D01*
X120483023Y-150247636D01*
X120598980Y-150185656D01*
X120665960Y-149945565D01*
X119880000Y-149159605D01*
X119094040Y-149945565D01*
X119161020Y-150185656D01*
X119296760Y-150249485D01*
X119218273Y-150281995D01*
X118989465Y-150434880D01*
X118794880Y-150629465D01*
X118657546Y-150835000D01*
X107028001Y-150835000D01*
X106085000Y-149892000D01*
X106085000Y-149052017D01*
X118478090Y-149052017D01*
X118519078Y-149324133D01*
X118612364Y-149583023D01*
X118674344Y-149698980D01*
X118914435Y-149765960D01*
X119700395Y-148980000D01*
X120059605Y-148980000D01*
X120845565Y-149765960D01*
X121085656Y-149698980D01*
X121202756Y-149449952D01*
X121269023Y-149182865D01*
X121281910Y-148907983D01*
X121240922Y-148635867D01*
X121147636Y-148376977D01*
X121085656Y-148261020D01*
X120845565Y-148194040D01*
X120059605Y-148980000D01*
X119700395Y-148980000D01*
X118914435Y-148194040D01*
X118674344Y-148261020D01*
X118557244Y-148510048D01*
X118490977Y-148777135D01*
X118478090Y-149052017D01*
X106085000Y-149052017D01*
X106085000Y-138608000D01*
X107128001Y-137565000D01*
X108784893Y-137565000D01*
X108953368Y-137733475D01*
X109135534Y-137855195D01*
X109018645Y-137924822D01*
X108802412Y-138119731D01*
X108628359Y-138353080D01*
X108503175Y-138615901D01*
X108458524Y-138763110D01*
X108579845Y-138993000D01*
X109773000Y-138993000D01*
X109773000Y-138973000D01*
X110027000Y-138973000D01*
X110027000Y-138993000D01*
X111220155Y-138993000D01*
X111341476Y-138763110D01*
X111296825Y-138615901D01*
X111171641Y-138353080D01*
X110997588Y-138119731D01*
X110781355Y-137924822D01*
X110664466Y-137855195D01*
X110846632Y-137733475D01*
X111015107Y-137565000D01*
X111371620Y-137565000D01*
X111420000Y-137569765D01*
X111468380Y-137565000D01*
X111613094Y-137550747D01*
X111798767Y-137494424D01*
X111969884Y-137402960D01*
X112119870Y-137279870D01*
X112150716Y-137242284D01*
X114654929Y-134738072D01*
X114950001Y-134738072D01*
X115123255Y-134721008D01*
X115289851Y-134670472D01*
X115443387Y-134588405D01*
X115577962Y-134477962D01*
X115688405Y-134343387D01*
X115770472Y-134189851D01*
X115821008Y-134023255D01*
X115838072Y-133850001D01*
X115838072Y-133149999D01*
X115821008Y-132976745D01*
X115770472Y-132810149D01*
X115688405Y-132656613D01*
X115577962Y-132522038D01*
X115551109Y-132500000D01*
X115569386Y-132485000D01*
X119259302Y-132485000D01*
X119218273Y-132501995D01*
X118989465Y-132654880D01*
X118794880Y-132849465D01*
X118641995Y-133078273D01*
X118536686Y-133332510D01*
X118483000Y-133602408D01*
X118483000Y-133877592D01*
X118536686Y-134147490D01*
X118641995Y-134401727D01*
X118794880Y-134630535D01*
X118989465Y-134825120D01*
X119218273Y-134978005D01*
X119295515Y-135010000D01*
X119218273Y-135041995D01*
X118989465Y-135194880D01*
X118794880Y-135389465D01*
X118641995Y-135618273D01*
X118536686Y-135872510D01*
X118483000Y-136142408D01*
X118483000Y-136417592D01*
X118536686Y-136687490D01*
X118641995Y-136941727D01*
X118794880Y-137170535D01*
X118989465Y-137365120D01*
X119218273Y-137518005D01*
X119295515Y-137550000D01*
X119218273Y-137581995D01*
X118989465Y-137734880D01*
X118794880Y-137929465D01*
X118641995Y-138158273D01*
X118536686Y-138412510D01*
X118483000Y-138682408D01*
X118483000Y-138957592D01*
X118536686Y-139227490D01*
X118641995Y-139481727D01*
X118794880Y-139710535D01*
X118989465Y-139905120D01*
X119218273Y-140058005D01*
X119295515Y-140090000D01*
X119218273Y-140121995D01*
X118989465Y-140274880D01*
X118794880Y-140469465D01*
X118657546Y-140675000D01*
X111015107Y-140675000D01*
X110846632Y-140506525D01*
X110664466Y-140384805D01*
X110781355Y-140315178D01*
X110997588Y-140120269D01*
X111171641Y-139886920D01*
X111296825Y-139624099D01*
X111341476Y-139476890D01*
X111220155Y-139247000D01*
X110027000Y-139247000D01*
X110027000Y-139267000D01*
X109773000Y-139267000D01*
X109773000Y-139247000D01*
X108579845Y-139247000D01*
X108458524Y-139476890D01*
X108503175Y-139624099D01*
X108628359Y-139886920D01*
X108802412Y-140120269D01*
X109018645Y-140315178D01*
X109135534Y-140384805D01*
X108953368Y-140506525D01*
X108746525Y-140713368D01*
X108584010Y-140956589D01*
X108472068Y-141226842D01*
X108415000Y-141513740D01*
X108415000Y-141806260D01*
X108472068Y-142093158D01*
X108584010Y-142363411D01*
X108746525Y-142606632D01*
X108878380Y-142738487D01*
X108805820Y-142760498D01*
X108695506Y-142819463D01*
X108598815Y-142898815D01*
X108519463Y-142995506D01*
X108460498Y-143105820D01*
X108424188Y-143225518D01*
X108411928Y-143350000D01*
X108411928Y-145050000D01*
X108424188Y-145174482D01*
X108460498Y-145294180D01*
X108519463Y-145404494D01*
X108598815Y-145501185D01*
X108695506Y-145580537D01*
X108805820Y-145639502D01*
X108925518Y-145675812D01*
X109050000Y-145688072D01*
X110750000Y-145688072D01*
X110874482Y-145675812D01*
X110994180Y-145639502D01*
X111104494Y-145580537D01*
X111201185Y-145501185D01*
X111280537Y-145404494D01*
X111339502Y-145294180D01*
X111372621Y-145185000D01*
X119259302Y-145185000D01*
X119218273Y-145201995D01*
X118989465Y-145354880D01*
X118794880Y-145549465D01*
X118641995Y-145778273D01*
X118536686Y-146032510D01*
X118483000Y-146302408D01*
X118483000Y-146577592D01*
X118536686Y-146847490D01*
X118641995Y-147101727D01*
X118794880Y-147330535D01*
X118989465Y-147525120D01*
X119218273Y-147678005D01*
X119289943Y-147707692D01*
X119276977Y-147712364D01*
X119161020Y-147774344D01*
X119094040Y-148014435D01*
X119880000Y-148800395D01*
X120665960Y-148014435D01*
X120598980Y-147774344D01*
X120463240Y-147710515D01*
X120541727Y-147678005D01*
X120770535Y-147525120D01*
X120965120Y-147330535D01*
X121118005Y-147101727D01*
X121223314Y-146847490D01*
X121277000Y-146577592D01*
X121277000Y-146302408D01*
X121223314Y-146032510D01*
X121118005Y-145778273D01*
X120965120Y-145549465D01*
X120770535Y-145354880D01*
X120541727Y-145201995D01*
X120464485Y-145170000D01*
X120541727Y-145138005D01*
X120770535Y-144985120D01*
X120965120Y-144790535D01*
X121118005Y-144561727D01*
X121223314Y-144307490D01*
X121277000Y-144037592D01*
X121277000Y-143762408D01*
X121223314Y-143492510D01*
X121118005Y-143238273D01*
X120965120Y-143009465D01*
X120770535Y-142814880D01*
X120541727Y-142661995D01*
X120464485Y-142630000D01*
X120541727Y-142598005D01*
X120770535Y-142445120D01*
X120965120Y-142250535D01*
X121118005Y-142021727D01*
X121223314Y-141767490D01*
X121277000Y-141497592D01*
X121277000Y-141222408D01*
X121223314Y-140952510D01*
X121118005Y-140698273D01*
X120965120Y-140469465D01*
X120770535Y-140274880D01*
X120541727Y-140121995D01*
X120464485Y-140090000D01*
X120541727Y-140058005D01*
X120770535Y-139905120D01*
X120965120Y-139710535D01*
X121118005Y-139481727D01*
X121223314Y-139227490D01*
X121277000Y-138957592D01*
X121277000Y-138682408D01*
X121223314Y-138412510D01*
X121118005Y-138158273D01*
X120965120Y-137929465D01*
X120770535Y-137734880D01*
X120541727Y-137581995D01*
X120464485Y-137550000D01*
X120541727Y-137518005D01*
X120770535Y-137365120D01*
X120965120Y-137170535D01*
X121118005Y-136941727D01*
X121223314Y-136687490D01*
X121277000Y-136417592D01*
X121277000Y-136142408D01*
X121223314Y-135872510D01*
X121118005Y-135618273D01*
X120965120Y-135389465D01*
X120770535Y-135194880D01*
X120541727Y-135041995D01*
X120464485Y-135010000D01*
X120541727Y-134978005D01*
X120770535Y-134825120D01*
X120965120Y-134630535D01*
X121118005Y-134401727D01*
X121223314Y-134147490D01*
X121277000Y-133877592D01*
X121277000Y-133602408D01*
X121223314Y-133332510D01*
X121118005Y-133078273D01*
X120965120Y-132849465D01*
X120770535Y-132654880D01*
X120541727Y-132501995D01*
X120464485Y-132470000D01*
X120541727Y-132438005D01*
X120770535Y-132285120D01*
X120965120Y-132090535D01*
X121118005Y-131861727D01*
X121223314Y-131607490D01*
X121277000Y-131337592D01*
X121277000Y-131062408D01*
X121223314Y-130792510D01*
X121118005Y-130538273D01*
X120965120Y-130309465D01*
X120770535Y-130114880D01*
X120541727Y-129961995D01*
X120464485Y-129930000D01*
X120541727Y-129898005D01*
X120770535Y-129745120D01*
X120965120Y-129550535D01*
X121118005Y-129321727D01*
X121223314Y-129067490D01*
X121277000Y-128797592D01*
X121277000Y-128522408D01*
X121223314Y-128252510D01*
X121118005Y-127998273D01*
X120965120Y-127769465D01*
X120770535Y-127574880D01*
X120541727Y-127421995D01*
X120464485Y-127390000D01*
X120541727Y-127358005D01*
X120770535Y-127205120D01*
X120965120Y-127010535D01*
X121118005Y-126781727D01*
X121223314Y-126527490D01*
X121277000Y-126257592D01*
X121277000Y-125982408D01*
X121223314Y-125712510D01*
X121118005Y-125458273D01*
X120965120Y-125229465D01*
X120770535Y-125034880D01*
X120541727Y-124881995D01*
X120464485Y-124850000D01*
X120541727Y-124818005D01*
X120770535Y-124665120D01*
X120965120Y-124470535D01*
X121118005Y-124241727D01*
X121223314Y-123987490D01*
X121277000Y-123717592D01*
X121277000Y-123442408D01*
X121223314Y-123172510D01*
X121118005Y-122918273D01*
X120965120Y-122689465D01*
X120770535Y-122494880D01*
X120541727Y-122341995D01*
X120464485Y-122310000D01*
X120541727Y-122278005D01*
X120770535Y-122125120D01*
X120965120Y-121930535D01*
X121118005Y-121701727D01*
X121223314Y-121447490D01*
X121277000Y-121177592D01*
X121277000Y-120902408D01*
X121223314Y-120632510D01*
X121118005Y-120378273D01*
X120965120Y-120149465D01*
X120770535Y-119954880D01*
X120541727Y-119801995D01*
X120464485Y-119770000D01*
X120541727Y-119738005D01*
X120770535Y-119585120D01*
X120965120Y-119390535D01*
X121118005Y-119161727D01*
X121223314Y-118907490D01*
X121277000Y-118637592D01*
X121277000Y-118362408D01*
X121223314Y-118092510D01*
X121118005Y-117838273D01*
X120965120Y-117609465D01*
X120770535Y-117414880D01*
X120541727Y-117261995D01*
X120464485Y-117230000D01*
X120541727Y-117198005D01*
X120770535Y-117045120D01*
X120965120Y-116850535D01*
X121118005Y-116621727D01*
X121223314Y-116367490D01*
X121277000Y-116097592D01*
X121277000Y-115822408D01*
X121223314Y-115552510D01*
X121118005Y-115298273D01*
X120965120Y-115069465D01*
X120770535Y-114874880D01*
X120541727Y-114721995D01*
X120464485Y-114690000D01*
X120541727Y-114658005D01*
X120770535Y-114505120D01*
X120965120Y-114310535D01*
X121118005Y-114081727D01*
X121223314Y-113827490D01*
X121277000Y-113557592D01*
X121277000Y-113282408D01*
X121223314Y-113012510D01*
X121118005Y-112758273D01*
X120965120Y-112529465D01*
X120770535Y-112334880D01*
X120541727Y-112181995D01*
X120464485Y-112150000D01*
X120541727Y-112118005D01*
X120770535Y-111965120D01*
X120965120Y-111770535D01*
X121118005Y-111541727D01*
X121223314Y-111287490D01*
X121277000Y-111017592D01*
X121277000Y-110742408D01*
X121223314Y-110472510D01*
X121118005Y-110218273D01*
X120965120Y-109989465D01*
X120770535Y-109794880D01*
X120541727Y-109641995D01*
X120464485Y-109610000D01*
X120541727Y-109578005D01*
X120770535Y-109425120D01*
X120965120Y-109230535D01*
X121118005Y-109001727D01*
X121223314Y-108747490D01*
X121277000Y-108477592D01*
X121277000Y-108202408D01*
X121223314Y-107932510D01*
X121118005Y-107678273D01*
X120965120Y-107449465D01*
X120770535Y-107254880D01*
X120541727Y-107101995D01*
X120464485Y-107070000D01*
X120541727Y-107038005D01*
X120770535Y-106885120D01*
X120965120Y-106690535D01*
X121118005Y-106461727D01*
X121223314Y-106207490D01*
X121277000Y-105937592D01*
X121277000Y-105662408D01*
X121223314Y-105392510D01*
X121118005Y-105138273D01*
X120965120Y-104909465D01*
X120770535Y-104714880D01*
X120541727Y-104561995D01*
X120464485Y-104530000D01*
X120541727Y-104498005D01*
X120770535Y-104345120D01*
X120965120Y-104150535D01*
X120986820Y-104118058D01*
X126315001Y-109446239D01*
%TA.AperFunction,Conductor*%
D23*
G36*
X126315001Y-109446239D02*
G01*
X126315000Y-110931620D01*
X126310235Y-110980000D01*
X126315000Y-111028379D01*
X126329253Y-111173093D01*
X126385576Y-111358766D01*
X126477040Y-111529884D01*
X126600130Y-111679870D01*
X126637716Y-111710716D01*
X133762333Y-118835333D01*
X133776686Y-118907490D01*
X133881995Y-119161727D01*
X134034880Y-119390535D01*
X134229465Y-119585120D01*
X134458273Y-119738005D01*
X134535515Y-119770000D01*
X134458273Y-119801995D01*
X134229465Y-119954880D01*
X134034880Y-120149465D01*
X133881995Y-120378273D01*
X133776686Y-120632510D01*
X133723000Y-120902408D01*
X133723000Y-121177592D01*
X133776686Y-121447490D01*
X133881995Y-121701727D01*
X134034880Y-121930535D01*
X134229465Y-122125120D01*
X134458273Y-122278005D01*
X134535515Y-122310000D01*
X134458273Y-122341995D01*
X134229465Y-122494880D01*
X134034880Y-122689465D01*
X133881995Y-122918273D01*
X133776686Y-123172510D01*
X133723000Y-123442408D01*
X133723000Y-123717592D01*
X133776686Y-123987490D01*
X133881995Y-124241727D01*
X134034880Y-124470535D01*
X134229465Y-124665120D01*
X134458273Y-124818005D01*
X134535515Y-124850000D01*
X134458273Y-124881995D01*
X134229465Y-125034880D01*
X134034880Y-125229465D01*
X133881995Y-125458273D01*
X133776686Y-125712510D01*
X133723000Y-125982408D01*
X133723000Y-126257592D01*
X133776686Y-126527490D01*
X133881995Y-126781727D01*
X134034880Y-127010535D01*
X134229465Y-127205120D01*
X134458273Y-127358005D01*
X134535515Y-127390000D01*
X134458273Y-127421995D01*
X134229465Y-127574880D01*
X134034880Y-127769465D01*
X133881995Y-127998273D01*
X133776686Y-128252510D01*
X133723000Y-128522408D01*
X133723000Y-128797592D01*
X133776686Y-129067490D01*
X133881995Y-129321727D01*
X134034880Y-129550535D01*
X134229465Y-129745120D01*
X134458273Y-129898005D01*
X134535515Y-129930000D01*
X134458273Y-129961995D01*
X134229465Y-130114880D01*
X134034880Y-130309465D01*
X133881995Y-130538273D01*
X133776686Y-130792510D01*
X133723000Y-131062408D01*
X133723000Y-131337592D01*
X133776686Y-131607490D01*
X133881995Y-131861727D01*
X134034880Y-132090535D01*
X134229465Y-132285120D01*
X134458273Y-132438005D01*
X134535515Y-132470000D01*
X134458273Y-132501995D01*
X134229465Y-132654880D01*
X134034880Y-132849465D01*
X133881995Y-133078273D01*
X133776686Y-133332510D01*
X133723000Y-133602408D01*
X133723000Y-133877592D01*
X133776686Y-134147490D01*
X133881995Y-134401727D01*
X134034880Y-134630535D01*
X134229465Y-134825120D01*
X134458273Y-134978005D01*
X134535515Y-135010000D01*
X134458273Y-135041995D01*
X134229465Y-135194880D01*
X134034880Y-135389465D01*
X133881995Y-135618273D01*
X133776686Y-135872510D01*
X133723000Y-136142408D01*
X133723000Y-136417592D01*
X133776686Y-136687490D01*
X133881995Y-136941727D01*
X134034880Y-137170535D01*
X134229465Y-137365120D01*
X134458273Y-137518005D01*
X134535515Y-137550000D01*
X134458273Y-137581995D01*
X134229465Y-137734880D01*
X134034880Y-137929465D01*
X133881995Y-138158273D01*
X133776686Y-138412510D01*
X133723000Y-138682408D01*
X133723000Y-138957592D01*
X133776686Y-139227490D01*
X133881995Y-139481727D01*
X134034880Y-139710535D01*
X134229465Y-139905120D01*
X134458273Y-140058005D01*
X134535515Y-140090000D01*
X134458273Y-140121995D01*
X134229465Y-140274880D01*
X134034880Y-140469465D01*
X133881995Y-140698273D01*
X133776686Y-140952510D01*
X133723000Y-141222408D01*
X133723000Y-141497592D01*
X133776686Y-141767490D01*
X133881995Y-142021727D01*
X134034880Y-142250535D01*
X134229465Y-142445120D01*
X134458273Y-142598005D01*
X134535515Y-142630000D01*
X134458273Y-142661995D01*
X134229465Y-142814880D01*
X134034880Y-143009465D01*
X133881995Y-143238273D01*
X133776686Y-143492510D01*
X133723000Y-143762408D01*
X133723000Y-144037592D01*
X133776686Y-144307490D01*
X133881995Y-144561727D01*
X134034880Y-144790535D01*
X134229465Y-144985120D01*
X134458273Y-145138005D01*
X134535515Y-145170000D01*
X134458273Y-145201995D01*
X134229465Y-145354880D01*
X134034880Y-145549465D01*
X133881995Y-145778273D01*
X133776686Y-146032510D01*
X133723000Y-146302408D01*
X133723000Y-146577592D01*
X133776686Y-146847490D01*
X133881995Y-147101727D01*
X134034880Y-147330535D01*
X134229465Y-147525120D01*
X134458273Y-147678005D01*
X134535515Y-147710000D01*
X134458273Y-147741995D01*
X134229465Y-147894880D01*
X134034880Y-148089465D01*
X133881995Y-148318273D01*
X133776686Y-148572510D01*
X133723000Y-148842408D01*
X133723000Y-149117592D01*
X133776686Y-149387490D01*
X133881995Y-149641727D01*
X134034880Y-149870535D01*
X134229465Y-150065120D01*
X134458273Y-150218005D01*
X134535515Y-150250000D01*
X134458273Y-150281995D01*
X134229465Y-150434880D01*
X134034880Y-150629465D01*
X133881995Y-150858273D01*
X133776686Y-151112510D01*
X133723000Y-151382408D01*
X133723000Y-151657592D01*
X133776686Y-151927490D01*
X133881995Y-152181727D01*
X134034880Y-152410535D01*
X134229465Y-152605120D01*
X134441819Y-152747011D01*
X122200012Y-152747011D01*
X121249391Y-151796391D01*
X121277000Y-151657592D01*
X121277000Y-151382408D01*
X121223314Y-151112510D01*
X121118005Y-150858273D01*
X120965120Y-150629465D01*
X120770535Y-150434880D01*
X120541727Y-150281995D01*
X120470057Y-150252308D01*
X120483023Y-150247636D01*
X120598980Y-150185656D01*
X120665960Y-149945565D01*
X119880000Y-149159605D01*
X119094040Y-149945565D01*
X119161020Y-150185656D01*
X119296760Y-150249485D01*
X119218273Y-150281995D01*
X118989465Y-150434880D01*
X118794880Y-150629465D01*
X118657546Y-150835000D01*
X107028001Y-150835000D01*
X106085000Y-149892000D01*
X106085000Y-149052017D01*
X118478090Y-149052017D01*
X118519078Y-149324133D01*
X118612364Y-149583023D01*
X118674344Y-149698980D01*
X118914435Y-149765960D01*
X119700395Y-148980000D01*
X120059605Y-148980000D01*
X120845565Y-149765960D01*
X121085656Y-149698980D01*
X121202756Y-149449952D01*
X121269023Y-149182865D01*
X121281910Y-148907983D01*
X121240922Y-148635867D01*
X121147636Y-148376977D01*
X121085656Y-148261020D01*
X120845565Y-148194040D01*
X120059605Y-148980000D01*
X119700395Y-148980000D01*
X118914435Y-148194040D01*
X118674344Y-148261020D01*
X118557244Y-148510048D01*
X118490977Y-148777135D01*
X118478090Y-149052017D01*
X106085000Y-149052017D01*
X106085000Y-138608000D01*
X107128001Y-137565000D01*
X108784893Y-137565000D01*
X108953368Y-137733475D01*
X109135534Y-137855195D01*
X109018645Y-137924822D01*
X108802412Y-138119731D01*
X108628359Y-138353080D01*
X108503175Y-138615901D01*
X108458524Y-138763110D01*
X108579845Y-138993000D01*
X109773000Y-138993000D01*
X109773000Y-138973000D01*
X110027000Y-138973000D01*
X110027000Y-138993000D01*
X111220155Y-138993000D01*
X111341476Y-138763110D01*
X111296825Y-138615901D01*
X111171641Y-138353080D01*
X110997588Y-138119731D01*
X110781355Y-137924822D01*
X110664466Y-137855195D01*
X110846632Y-137733475D01*
X111015107Y-137565000D01*
X111371620Y-137565000D01*
X111420000Y-137569765D01*
X111468380Y-137565000D01*
X111613094Y-137550747D01*
X111798767Y-137494424D01*
X111969884Y-137402960D01*
X112119870Y-137279870D01*
X112150716Y-137242284D01*
X114654929Y-134738072D01*
X114950001Y-134738072D01*
X115123255Y-134721008D01*
X115289851Y-134670472D01*
X115443387Y-134588405D01*
X115577962Y-134477962D01*
X115688405Y-134343387D01*
X115770472Y-134189851D01*
X115821008Y-134023255D01*
X115838072Y-133850001D01*
X115838072Y-133149999D01*
X115821008Y-132976745D01*
X115770472Y-132810149D01*
X115688405Y-132656613D01*
X115577962Y-132522038D01*
X115551109Y-132500000D01*
X115569386Y-132485000D01*
X119259302Y-132485000D01*
X119218273Y-132501995D01*
X118989465Y-132654880D01*
X118794880Y-132849465D01*
X118641995Y-133078273D01*
X118536686Y-133332510D01*
X118483000Y-133602408D01*
X118483000Y-133877592D01*
X118536686Y-134147490D01*
X118641995Y-134401727D01*
X118794880Y-134630535D01*
X118989465Y-134825120D01*
X119218273Y-134978005D01*
X119295515Y-135010000D01*
X119218273Y-135041995D01*
X118989465Y-135194880D01*
X118794880Y-135389465D01*
X118641995Y-135618273D01*
X118536686Y-135872510D01*
X118483000Y-136142408D01*
X118483000Y-136417592D01*
X118536686Y-136687490D01*
X118641995Y-136941727D01*
X118794880Y-137170535D01*
X118989465Y-137365120D01*
X119218273Y-137518005D01*
X119295515Y-137550000D01*
X119218273Y-137581995D01*
X118989465Y-137734880D01*
X118794880Y-137929465D01*
X118641995Y-138158273D01*
X118536686Y-138412510D01*
X118483000Y-138682408D01*
X118483000Y-138957592D01*
X118536686Y-139227490D01*
X118641995Y-139481727D01*
X118794880Y-139710535D01*
X118989465Y-139905120D01*
X119218273Y-140058005D01*
X119295515Y-140090000D01*
X119218273Y-140121995D01*
X118989465Y-140274880D01*
X118794880Y-140469465D01*
X118657546Y-140675000D01*
X111015107Y-140675000D01*
X110846632Y-140506525D01*
X110664466Y-140384805D01*
X110781355Y-140315178D01*
X110997588Y-140120269D01*
X111171641Y-139886920D01*
X111296825Y-139624099D01*
X111341476Y-139476890D01*
X111220155Y-139247000D01*
X110027000Y-139247000D01*
X110027000Y-139267000D01*
X109773000Y-139267000D01*
X109773000Y-139247000D01*
X108579845Y-139247000D01*
X108458524Y-139476890D01*
X108503175Y-139624099D01*
X108628359Y-139886920D01*
X108802412Y-140120269D01*
X109018645Y-140315178D01*
X109135534Y-140384805D01*
X108953368Y-140506525D01*
X108746525Y-140713368D01*
X108584010Y-140956589D01*
X108472068Y-141226842D01*
X108415000Y-141513740D01*
X108415000Y-141806260D01*
X108472068Y-142093158D01*
X108584010Y-142363411D01*
X108746525Y-142606632D01*
X108878380Y-142738487D01*
X108805820Y-142760498D01*
X108695506Y-142819463D01*
X108598815Y-142898815D01*
X108519463Y-142995506D01*
X108460498Y-143105820D01*
X108424188Y-143225518D01*
X108411928Y-143350000D01*
X108411928Y-145050000D01*
X108424188Y-145174482D01*
X108460498Y-145294180D01*
X108519463Y-145404494D01*
X108598815Y-145501185D01*
X108695506Y-145580537D01*
X108805820Y-145639502D01*
X108925518Y-145675812D01*
X109050000Y-145688072D01*
X110750000Y-145688072D01*
X110874482Y-145675812D01*
X110994180Y-145639502D01*
X111104494Y-145580537D01*
X111201185Y-145501185D01*
X111280537Y-145404494D01*
X111339502Y-145294180D01*
X111372621Y-145185000D01*
X119259302Y-145185000D01*
X119218273Y-145201995D01*
X118989465Y-145354880D01*
X118794880Y-145549465D01*
X118641995Y-145778273D01*
X118536686Y-146032510D01*
X118483000Y-146302408D01*
X118483000Y-146577592D01*
X118536686Y-146847490D01*
X118641995Y-147101727D01*
X118794880Y-147330535D01*
X118989465Y-147525120D01*
X119218273Y-147678005D01*
X119289943Y-147707692D01*
X119276977Y-147712364D01*
X119161020Y-147774344D01*
X119094040Y-148014435D01*
X119880000Y-148800395D01*
X120665960Y-148014435D01*
X120598980Y-147774344D01*
X120463240Y-147710515D01*
X120541727Y-147678005D01*
X120770535Y-147525120D01*
X120965120Y-147330535D01*
X121118005Y-147101727D01*
X121223314Y-146847490D01*
X121277000Y-146577592D01*
X121277000Y-146302408D01*
X121223314Y-146032510D01*
X121118005Y-145778273D01*
X120965120Y-145549465D01*
X120770535Y-145354880D01*
X120541727Y-145201995D01*
X120464485Y-145170000D01*
X120541727Y-145138005D01*
X120770535Y-144985120D01*
X120965120Y-144790535D01*
X121118005Y-144561727D01*
X121223314Y-144307490D01*
X121277000Y-144037592D01*
X121277000Y-143762408D01*
X121223314Y-143492510D01*
X121118005Y-143238273D01*
X120965120Y-143009465D01*
X120770535Y-142814880D01*
X120541727Y-142661995D01*
X120464485Y-142630000D01*
X120541727Y-142598005D01*
X120770535Y-142445120D01*
X120965120Y-142250535D01*
X121118005Y-142021727D01*
X121223314Y-141767490D01*
X121277000Y-141497592D01*
X121277000Y-141222408D01*
X121223314Y-140952510D01*
X121118005Y-140698273D01*
X120965120Y-140469465D01*
X120770535Y-140274880D01*
X120541727Y-140121995D01*
X120464485Y-140090000D01*
X120541727Y-140058005D01*
X120770535Y-139905120D01*
X120965120Y-139710535D01*
X121118005Y-139481727D01*
X121223314Y-139227490D01*
X121277000Y-138957592D01*
X121277000Y-138682408D01*
X121223314Y-138412510D01*
X121118005Y-138158273D01*
X120965120Y-137929465D01*
X120770535Y-137734880D01*
X120541727Y-137581995D01*
X120464485Y-137550000D01*
X120541727Y-137518005D01*
X120770535Y-137365120D01*
X120965120Y-137170535D01*
X121118005Y-136941727D01*
X121223314Y-136687490D01*
X121277000Y-136417592D01*
X121277000Y-136142408D01*
X121223314Y-135872510D01*
X121118005Y-135618273D01*
X120965120Y-135389465D01*
X120770535Y-135194880D01*
X120541727Y-135041995D01*
X120464485Y-135010000D01*
X120541727Y-134978005D01*
X120770535Y-134825120D01*
X120965120Y-134630535D01*
X121118005Y-134401727D01*
X121223314Y-134147490D01*
X121277000Y-133877592D01*
X121277000Y-133602408D01*
X121223314Y-133332510D01*
X121118005Y-133078273D01*
X120965120Y-132849465D01*
X120770535Y-132654880D01*
X120541727Y-132501995D01*
X120464485Y-132470000D01*
X120541727Y-132438005D01*
X120770535Y-132285120D01*
X120965120Y-132090535D01*
X121118005Y-131861727D01*
X121223314Y-131607490D01*
X121277000Y-131337592D01*
X121277000Y-131062408D01*
X121223314Y-130792510D01*
X121118005Y-130538273D01*
X120965120Y-130309465D01*
X120770535Y-130114880D01*
X120541727Y-129961995D01*
X120464485Y-129930000D01*
X120541727Y-129898005D01*
X120770535Y-129745120D01*
X120965120Y-129550535D01*
X121118005Y-129321727D01*
X121223314Y-129067490D01*
X121277000Y-128797592D01*
X121277000Y-128522408D01*
X121223314Y-128252510D01*
X121118005Y-127998273D01*
X120965120Y-127769465D01*
X120770535Y-127574880D01*
X120541727Y-127421995D01*
X120464485Y-127390000D01*
X120541727Y-127358005D01*
X120770535Y-127205120D01*
X120965120Y-127010535D01*
X121118005Y-126781727D01*
X121223314Y-126527490D01*
X121277000Y-126257592D01*
X121277000Y-125982408D01*
X121223314Y-125712510D01*
X121118005Y-125458273D01*
X120965120Y-125229465D01*
X120770535Y-125034880D01*
X120541727Y-124881995D01*
X120464485Y-124850000D01*
X120541727Y-124818005D01*
X120770535Y-124665120D01*
X120965120Y-124470535D01*
X121118005Y-124241727D01*
X121223314Y-123987490D01*
X121277000Y-123717592D01*
X121277000Y-123442408D01*
X121223314Y-123172510D01*
X121118005Y-122918273D01*
X120965120Y-122689465D01*
X120770535Y-122494880D01*
X120541727Y-122341995D01*
X120464485Y-122310000D01*
X120541727Y-122278005D01*
X120770535Y-122125120D01*
X120965120Y-121930535D01*
X121118005Y-121701727D01*
X121223314Y-121447490D01*
X121277000Y-121177592D01*
X121277000Y-120902408D01*
X121223314Y-120632510D01*
X121118005Y-120378273D01*
X120965120Y-120149465D01*
X120770535Y-119954880D01*
X120541727Y-119801995D01*
X120464485Y-119770000D01*
X120541727Y-119738005D01*
X120770535Y-119585120D01*
X120965120Y-119390535D01*
X121118005Y-119161727D01*
X121223314Y-118907490D01*
X121277000Y-118637592D01*
X121277000Y-118362408D01*
X121223314Y-118092510D01*
X121118005Y-117838273D01*
X120965120Y-117609465D01*
X120770535Y-117414880D01*
X120541727Y-117261995D01*
X120464485Y-117230000D01*
X120541727Y-117198005D01*
X120770535Y-117045120D01*
X120965120Y-116850535D01*
X121118005Y-116621727D01*
X121223314Y-116367490D01*
X121277000Y-116097592D01*
X121277000Y-115822408D01*
X121223314Y-115552510D01*
X121118005Y-115298273D01*
X120965120Y-115069465D01*
X120770535Y-114874880D01*
X120541727Y-114721995D01*
X120464485Y-114690000D01*
X120541727Y-114658005D01*
X120770535Y-114505120D01*
X120965120Y-114310535D01*
X121118005Y-114081727D01*
X121223314Y-113827490D01*
X121277000Y-113557592D01*
X121277000Y-113282408D01*
X121223314Y-113012510D01*
X121118005Y-112758273D01*
X120965120Y-112529465D01*
X120770535Y-112334880D01*
X120541727Y-112181995D01*
X120464485Y-112150000D01*
X120541727Y-112118005D01*
X120770535Y-111965120D01*
X120965120Y-111770535D01*
X121118005Y-111541727D01*
X121223314Y-111287490D01*
X121277000Y-111017592D01*
X121277000Y-110742408D01*
X121223314Y-110472510D01*
X121118005Y-110218273D01*
X120965120Y-109989465D01*
X120770535Y-109794880D01*
X120541727Y-109641995D01*
X120464485Y-109610000D01*
X120541727Y-109578005D01*
X120770535Y-109425120D01*
X120965120Y-109230535D01*
X121118005Y-109001727D01*
X121223314Y-108747490D01*
X121277000Y-108477592D01*
X121277000Y-108202408D01*
X121223314Y-107932510D01*
X121118005Y-107678273D01*
X120965120Y-107449465D01*
X120770535Y-107254880D01*
X120541727Y-107101995D01*
X120464485Y-107070000D01*
X120541727Y-107038005D01*
X120770535Y-106885120D01*
X120965120Y-106690535D01*
X121118005Y-106461727D01*
X121223314Y-106207490D01*
X121277000Y-105937592D01*
X121277000Y-105662408D01*
X121223314Y-105392510D01*
X121118005Y-105138273D01*
X120965120Y-104909465D01*
X120770535Y-104714880D01*
X120541727Y-104561995D01*
X120464485Y-104530000D01*
X120541727Y-104498005D01*
X120770535Y-104345120D01*
X120965120Y-104150535D01*
X120986820Y-104118058D01*
X126315001Y-109446239D01*
G37*
%TD.AperFunction*%
D22*
X176352000Y-106373000D02*
X176365011Y-106373000D01*
X176365011Y-106627000D01*
X176352000Y-106627000D01*
X176352000Y-107676250D01*
X176365011Y-107689261D01*
X176365011Y-110010739D01*
X176352000Y-110023750D01*
X176352000Y-111073000D01*
X176365011Y-111073000D01*
X176365011Y-111327000D01*
X176352000Y-111327000D01*
X176352000Y-112376250D01*
X176365011Y-112389261D01*
X176365010Y-143041989D01*
X166737716Y-152669284D01*
X166700130Y-152700130D01*
X166669284Y-152737716D01*
X166659989Y-152747011D01*
X135798181Y-152747011D01*
X136010535Y-152605120D01*
X136205120Y-152410535D01*
X136358005Y-152181727D01*
X136463314Y-151927490D01*
X136517000Y-151657592D01*
X136517000Y-151382408D01*
X136463314Y-151112510D01*
X136358005Y-150858273D01*
X136205120Y-150629465D01*
X136010535Y-150434880D01*
X135781727Y-150281995D01*
X135704485Y-150250000D01*
X135781727Y-150218005D01*
X136010535Y-150065120D01*
X136205120Y-149870535D01*
X136358005Y-149641727D01*
X136463314Y-149387490D01*
X136517000Y-149117592D01*
X136517000Y-148842408D01*
X136463314Y-148572510D01*
X136358005Y-148318273D01*
X136205120Y-148089465D01*
X136010535Y-147894880D01*
X135781727Y-147741995D01*
X135704485Y-147710000D01*
X135781727Y-147678005D01*
X136010535Y-147525120D01*
X136205120Y-147330535D01*
X136358005Y-147101727D01*
X136463314Y-146847490D01*
X136517000Y-146577592D01*
X136517000Y-146302408D01*
X136463314Y-146032510D01*
X136358005Y-145778273D01*
X136205120Y-145549465D01*
X136010535Y-145354880D01*
X135781727Y-145201995D01*
X135704485Y-145170000D01*
X135781727Y-145138005D01*
X136010535Y-144985120D01*
X136205120Y-144790535D01*
X136358005Y-144561727D01*
X136463314Y-144307490D01*
X136517000Y-144037592D01*
X136517000Y-143762408D01*
X136463314Y-143492510D01*
X136358005Y-143238273D01*
X136205120Y-143009465D01*
X136010535Y-142814880D01*
X135781727Y-142661995D01*
X135704485Y-142630000D01*
X135781727Y-142598005D01*
X136010535Y-142445120D01*
X136205120Y-142250535D01*
X136358005Y-142021727D01*
X136463314Y-141767490D01*
X136517000Y-141497592D01*
X136517000Y-141222408D01*
X136463314Y-140952510D01*
X136358005Y-140698273D01*
X136205120Y-140469465D01*
X136010535Y-140274880D01*
X135781727Y-140121995D01*
X135704485Y-140090000D01*
X135781727Y-140058005D01*
X136010535Y-139905120D01*
X136205120Y-139710535D01*
X136358005Y-139481727D01*
X136463314Y-139227490D01*
X136517000Y-138957592D01*
X136517000Y-138682408D01*
X136463314Y-138412510D01*
X136358005Y-138158273D01*
X136205120Y-137929465D01*
X136010535Y-137734880D01*
X135781727Y-137581995D01*
X135704485Y-137550000D01*
X135781727Y-137518005D01*
X136010535Y-137365120D01*
X136205120Y-137170535D01*
X136358005Y-136941727D01*
X136463314Y-136687490D01*
X136498350Y-136511351D01*
X143782890Y-143795891D01*
X143813731Y-143833471D01*
X143963717Y-143956561D01*
X144115315Y-144037592D01*
X144134834Y-144048025D01*
X144320507Y-144104348D01*
X144513601Y-144123366D01*
X144561981Y-144118601D01*
X157078019Y-144118601D01*
X157126399Y-144123366D01*
X157174779Y-144118601D01*
X157319493Y-144104348D01*
X157505166Y-144048025D01*
X157676283Y-143956561D01*
X157826269Y-143833471D01*
X157857115Y-143795886D01*
X158434400Y-143218600D01*
X158687599Y-143218600D01*
X158977125Y-143161010D01*
X159249853Y-143048042D01*
X159495302Y-142884039D01*
X159704039Y-142675302D01*
X159868042Y-142429853D01*
X159981010Y-142157125D01*
X160038600Y-141867599D01*
X160038600Y-141572401D01*
X159981010Y-141282875D01*
X159868042Y-141010147D01*
X159704039Y-140764698D01*
X159495302Y-140555961D01*
X159336719Y-140450000D01*
X159495302Y-140344039D01*
X159704039Y-140135302D01*
X159868042Y-139889853D01*
X159981010Y-139617125D01*
X160038600Y-139327599D01*
X160038600Y-139032401D01*
X159981010Y-138742875D01*
X159917107Y-138588601D01*
X159934077Y-138588601D01*
X159971399Y-138592277D01*
X160008721Y-138588601D01*
X160008732Y-138588601D01*
X160120385Y-138577604D01*
X160263646Y-138534147D01*
X160395675Y-138463575D01*
X160511400Y-138368602D01*
X160535203Y-138339598D01*
X161536730Y-137338072D01*
X162150001Y-137338072D01*
X162323255Y-137321008D01*
X162489851Y-137270472D01*
X162643387Y-137188405D01*
X162777962Y-137077962D01*
X162888405Y-136943387D01*
X162970472Y-136789851D01*
X163021008Y-136623255D01*
X163038072Y-136450001D01*
X163038072Y-135749999D01*
X163021008Y-135576745D01*
X162970472Y-135410149D01*
X162888405Y-135256613D01*
X162821724Y-135175363D01*
X162851185Y-135151185D01*
X162930537Y-135054494D01*
X162989502Y-134944180D01*
X163025812Y-134824482D01*
X163038072Y-134700000D01*
X163035000Y-134385750D01*
X162876250Y-134227000D01*
X161827000Y-134227000D01*
X161827000Y-134247000D01*
X161573000Y-134247000D01*
X161573000Y-134227000D01*
X160523750Y-134227000D01*
X160365000Y-134385750D01*
X160361928Y-134700000D01*
X160374188Y-134824482D01*
X160410498Y-134944180D01*
X160469463Y-135054494D01*
X160548815Y-135151185D01*
X160578276Y-135175363D01*
X160511595Y-135256613D01*
X160429528Y-135410149D01*
X160378992Y-135576745D01*
X160361928Y-135749999D01*
X160361928Y-136363270D01*
X160038600Y-136686599D01*
X160038600Y-136492401D01*
X159981010Y-136202875D01*
X159868042Y-135930147D01*
X159704039Y-135684698D01*
X159495302Y-135475961D01*
X159329897Y-135365441D01*
X159428488Y-135306817D01*
X159646854Y-135110293D01*
X159822684Y-134874944D01*
X159949222Y-134609814D01*
X159994958Y-134459026D01*
X159873817Y-134227000D01*
X158667000Y-134227000D01*
X158667000Y-134247000D01*
X158413000Y-134247000D01*
X158413000Y-134227000D01*
X158393000Y-134227000D01*
X158393000Y-133973000D01*
X158413000Y-133973000D01*
X158413000Y-132765536D01*
X158667000Y-132765536D01*
X158667000Y-133973000D01*
X159873817Y-133973000D01*
X159994958Y-133740974D01*
X159949222Y-133590186D01*
X159906180Y-133500000D01*
X160361928Y-133500000D01*
X160365000Y-133814250D01*
X160523750Y-133973000D01*
X161573000Y-133973000D01*
X161573000Y-133023750D01*
X161827000Y-133023750D01*
X161827000Y-133973000D01*
X162876250Y-133973000D01*
X163035000Y-133814250D01*
X163038072Y-133500000D01*
X163025812Y-133375518D01*
X162989502Y-133255820D01*
X162930537Y-133145506D01*
X162851185Y-133048815D01*
X162754494Y-132969463D01*
X162644180Y-132910498D01*
X162524482Y-132874188D01*
X162400000Y-132861928D01*
X161985750Y-132865000D01*
X161827000Y-133023750D01*
X161573000Y-133023750D01*
X161414250Y-132865000D01*
X161000000Y-132861928D01*
X160875518Y-132874188D01*
X160755820Y-132910498D01*
X160645506Y-132969463D01*
X160548815Y-133048815D01*
X160469463Y-133145506D01*
X160410498Y-133255820D01*
X160374188Y-133375518D01*
X160361928Y-133500000D01*
X159906180Y-133500000D01*
X159822684Y-133325056D01*
X159646854Y-133089707D01*
X159428488Y-132893183D01*
X159175978Y-132743036D01*
X158899027Y-132645037D01*
X158667000Y-132765536D01*
X158413000Y-132765536D01*
X158180973Y-132645037D01*
X157904022Y-132743036D01*
X157651512Y-132893183D01*
X157472053Y-133054692D01*
X157453102Y-132992220D01*
X157394137Y-132881906D01*
X157314785Y-132785215D01*
X157218094Y-132705863D01*
X157107780Y-132646898D01*
X156988082Y-132610588D01*
X156863600Y-132598328D01*
X155136400Y-132598328D01*
X155011918Y-132610588D01*
X154892220Y-132646898D01*
X154781906Y-132705863D01*
X154685215Y-132785215D01*
X154605863Y-132881906D01*
X154546898Y-132992220D01*
X154510588Y-133111918D01*
X154510284Y-133115000D01*
X138428000Y-133115000D01*
X136517000Y-131204000D01*
X136517000Y-131062408D01*
X136463314Y-130792510D01*
X136358005Y-130538273D01*
X136205120Y-130309465D01*
X136010535Y-130114880D01*
X135781727Y-129961995D01*
X135704485Y-129930000D01*
X135781727Y-129898005D01*
X136010535Y-129745120D01*
X136070655Y-129685000D01*
X139351215Y-129685000D01*
X139515008Y-129794443D01*
X139739764Y-129887540D01*
X139978363Y-129935000D01*
X140221637Y-129935000D01*
X140460236Y-129887540D01*
X140684992Y-129794443D01*
X140887267Y-129659287D01*
X141059287Y-129487267D01*
X141194443Y-129284992D01*
X141287540Y-129060236D01*
X141335000Y-128821637D01*
X141335000Y-128578363D01*
X141287540Y-128339764D01*
X141194443Y-128115008D01*
X141059287Y-127912733D01*
X140887267Y-127740713D01*
X140684992Y-127605557D01*
X140460236Y-127512460D01*
X140221637Y-127465000D01*
X139978363Y-127465000D01*
X139739764Y-127512460D01*
X139515008Y-127605557D01*
X139351215Y-127715000D01*
X136150655Y-127715000D01*
X136010535Y-127574880D01*
X135781727Y-127421995D01*
X135704485Y-127390000D01*
X135781727Y-127358005D01*
X136010535Y-127205120D01*
X136030655Y-127185000D01*
X139251215Y-127185000D01*
X139415008Y-127294443D01*
X139639764Y-127387540D01*
X139878363Y-127435000D01*
X140121637Y-127435000D01*
X140360236Y-127387540D01*
X140584992Y-127294443D01*
X140787267Y-127159287D01*
X140959287Y-126987267D01*
X141094443Y-126784992D01*
X141187540Y-126560236D01*
X141235000Y-126321637D01*
X141235000Y-126128000D01*
X141319284Y-126212284D01*
X141350130Y-126249870D01*
X141500116Y-126372960D01*
X141671233Y-126464424D01*
X141856906Y-126520747D01*
X142001620Y-126535000D01*
X142001621Y-126535000D01*
X142049999Y-126539765D01*
X142098377Y-126535000D01*
X143897397Y-126535000D01*
X143905820Y-126539502D01*
X144025518Y-126575812D01*
X144150000Y-126588072D01*
X145050000Y-126588072D01*
X145174482Y-126575812D01*
X145294180Y-126539502D01*
X145404494Y-126480537D01*
X145501185Y-126401185D01*
X145580537Y-126304494D01*
X145639502Y-126194180D01*
X145675812Y-126074482D01*
X145688072Y-125950000D01*
X145688072Y-125438095D01*
X145698815Y-125451185D01*
X145795506Y-125530537D01*
X145905820Y-125589502D01*
X146025518Y-125625812D01*
X146150000Y-125638072D01*
X147050000Y-125638072D01*
X147174482Y-125625812D01*
X147294180Y-125589502D01*
X147302603Y-125585000D01*
X151451620Y-125585000D01*
X151500000Y-125589765D01*
X151548380Y-125585000D01*
X151693094Y-125570747D01*
X151878767Y-125514424D01*
X152049884Y-125422960D01*
X152199870Y-125299870D01*
X152230716Y-125262284D01*
X153962284Y-123530716D01*
X153999870Y-123499870D01*
X154122960Y-123349884D01*
X154214424Y-123178767D01*
X154259516Y-123030117D01*
X154270747Y-122993095D01*
X154289765Y-122800001D01*
X154285000Y-122751621D01*
X154285000Y-115208242D01*
X154342252Y-115169987D01*
X154569987Y-114942252D01*
X154748918Y-114674463D01*
X154872168Y-114376912D01*
X154935000Y-114061033D01*
X154935000Y-113738967D01*
X154872168Y-113423088D01*
X154748918Y-113125537D01*
X154569987Y-112857748D01*
X154342252Y-112630013D01*
X154074463Y-112451082D01*
X153776912Y-112327832D01*
X153746508Y-112321784D01*
X153678767Y-112285576D01*
X153493094Y-112229253D01*
X153300000Y-112210235D01*
X153106907Y-112229253D01*
X152921234Y-112285576D01*
X152853494Y-112321784D01*
X152823088Y-112327832D01*
X152525537Y-112451082D01*
X152257748Y-112630013D01*
X152030013Y-112857748D01*
X151851082Y-113125537D01*
X151727832Y-113423088D01*
X151665000Y-113738967D01*
X151665000Y-114061033D01*
X151727832Y-114376912D01*
X151851082Y-114674463D01*
X152030013Y-114942252D01*
X152257748Y-115169987D01*
X152315001Y-115208242D01*
X152315000Y-122392000D01*
X151092000Y-123615000D01*
X147302603Y-123615000D01*
X147294180Y-123610498D01*
X147174482Y-123574188D01*
X147050000Y-123561928D01*
X146150000Y-123561928D01*
X146025518Y-123574188D01*
X145905820Y-123610498D01*
X145795506Y-123669463D01*
X145698815Y-123748815D01*
X145619463Y-123845506D01*
X145610857Y-123861607D01*
X145526250Y-123777000D01*
X144727000Y-123777000D01*
X144727000Y-123797000D01*
X144473000Y-123797000D01*
X144473000Y-123777000D01*
X143673750Y-123777000D01*
X143515000Y-123935750D01*
X143511928Y-124050000D01*
X143524188Y-124174482D01*
X143560498Y-124294180D01*
X143619463Y-124404494D01*
X143698815Y-124501185D01*
X143776574Y-124565000D01*
X143278373Y-124565000D01*
X143289502Y-124544180D01*
X143325812Y-124424482D01*
X143338072Y-124300000D01*
X143335000Y-123885750D01*
X143176250Y-123727000D01*
X142227000Y-123727000D01*
X142227000Y-123747000D01*
X141973000Y-123747000D01*
X141973000Y-123727000D01*
X141953000Y-123727000D01*
X141953000Y-123473000D01*
X141973000Y-123473000D01*
X141973000Y-122423750D01*
X142227000Y-122423750D01*
X142227000Y-123473000D01*
X143176250Y-123473000D01*
X143335000Y-123314250D01*
X143335476Y-123250000D01*
X143511928Y-123250000D01*
X143515000Y-123364250D01*
X143673750Y-123523000D01*
X144473000Y-123523000D01*
X144473000Y-122773750D01*
X144727000Y-122773750D01*
X144727000Y-123523000D01*
X145526250Y-123523000D01*
X145685000Y-123364250D01*
X145688072Y-123250000D01*
X145675812Y-123125518D01*
X145639502Y-123005820D01*
X145580537Y-122895506D01*
X145501185Y-122798815D01*
X145404494Y-122719463D01*
X145294180Y-122660498D01*
X145174482Y-122624188D01*
X145050000Y-122611928D01*
X144885750Y-122615000D01*
X144727000Y-122773750D01*
X144473000Y-122773750D01*
X144314250Y-122615000D01*
X144150000Y-122611928D01*
X144025518Y-122624188D01*
X143905820Y-122660498D01*
X143795506Y-122719463D01*
X143698815Y-122798815D01*
X143619463Y-122895506D01*
X143560498Y-123005820D01*
X143524188Y-123125518D01*
X143511928Y-123250000D01*
X143335476Y-123250000D01*
X143338072Y-122900000D01*
X143325812Y-122775518D01*
X143289502Y-122655820D01*
X143230537Y-122545506D01*
X143151185Y-122448815D01*
X143054494Y-122369463D01*
X142944180Y-122310498D01*
X142824482Y-122274188D01*
X142700000Y-122261928D01*
X142385750Y-122265000D01*
X142227000Y-122423750D01*
X141973000Y-122423750D01*
X141814250Y-122265000D01*
X141500000Y-122261928D01*
X141375518Y-122274188D01*
X141255820Y-122310498D01*
X141145506Y-122369463D01*
X141048815Y-122448815D01*
X141024637Y-122478276D01*
X140943387Y-122411595D01*
X140789851Y-122329528D01*
X140623255Y-122278992D01*
X140450001Y-122261928D01*
X139749999Y-122261928D01*
X139576745Y-122278992D01*
X139410149Y-122329528D01*
X139256613Y-122411595D01*
X139122038Y-122522038D01*
X139045746Y-122615000D01*
X136130655Y-122615000D01*
X136010535Y-122494880D01*
X135781727Y-122341995D01*
X135704485Y-122310000D01*
X135781727Y-122278005D01*
X136010535Y-122125120D01*
X136205120Y-121930535D01*
X136358005Y-121701727D01*
X136463314Y-121447490D01*
X136477667Y-121375333D01*
X145668001Y-112185000D01*
X168245746Y-112185000D01*
X168322038Y-112277962D01*
X168456613Y-112388405D01*
X168610149Y-112470472D01*
X168776745Y-112521008D01*
X168949999Y-112538072D01*
X169650001Y-112538072D01*
X169823255Y-112521008D01*
X169989851Y-112470472D01*
X170143387Y-112388405D01*
X170277962Y-112277962D01*
X170300000Y-112251109D01*
X170322038Y-112277962D01*
X170456613Y-112388405D01*
X170610149Y-112470472D01*
X170776745Y-112521008D01*
X170949999Y-112538072D01*
X171650001Y-112538072D01*
X171823255Y-112521008D01*
X171989851Y-112470472D01*
X172143387Y-112388405D01*
X172277962Y-112277962D01*
X172354254Y-112185000D01*
X173145746Y-112185000D01*
X173222038Y-112277962D01*
X173356613Y-112388405D01*
X173510149Y-112470472D01*
X173676745Y-112521008D01*
X173849999Y-112538072D01*
X174500001Y-112538072D01*
X174673255Y-112521008D01*
X174839851Y-112470472D01*
X174993387Y-112388405D01*
X175127962Y-112277962D01*
X175133342Y-112271406D01*
X175198815Y-112351185D01*
X175295506Y-112430537D01*
X175405820Y-112489502D01*
X175525518Y-112525812D01*
X175650000Y-112538072D01*
X175939250Y-112535000D01*
X176098000Y-112376250D01*
X176098000Y-111327000D01*
X176078000Y-111327000D01*
X176078000Y-111073000D01*
X176098000Y-111073000D01*
X176098000Y-110023750D01*
X175939250Y-109865000D01*
X175650000Y-109861928D01*
X175525518Y-109874188D01*
X175405820Y-109910498D01*
X175295506Y-109969463D01*
X175198815Y-110048815D01*
X175133342Y-110128594D01*
X175127962Y-110122038D01*
X174993387Y-110011595D01*
X174839851Y-109929528D01*
X174673255Y-109878992D01*
X174500001Y-109861928D01*
X173849999Y-109861928D01*
X173676745Y-109878992D01*
X173510149Y-109929528D01*
X173356613Y-110011595D01*
X173222038Y-110122038D01*
X173145746Y-110215000D01*
X172354254Y-110215000D01*
X172277962Y-110122038D01*
X172143387Y-110011595D01*
X171989851Y-109929528D01*
X171823255Y-109878992D01*
X171650001Y-109861928D01*
X170949999Y-109861928D01*
X170776745Y-109878992D01*
X170610149Y-109929528D01*
X170456613Y-110011595D01*
X170322038Y-110122038D01*
X170300000Y-110148891D01*
X170277962Y-110122038D01*
X170143387Y-110011595D01*
X169989851Y-109929528D01*
X169823255Y-109878992D01*
X169650001Y-109861928D01*
X168949999Y-109861928D01*
X168776745Y-109878992D01*
X168610149Y-109929528D01*
X168456613Y-110011595D01*
X168322038Y-110122038D01*
X168245746Y-110215000D01*
X145308380Y-110215000D01*
X145260000Y-110210235D01*
X145211620Y-110215000D01*
X145066906Y-110229253D01*
X144881233Y-110285576D01*
X144710116Y-110377040D01*
X144560130Y-110500130D01*
X144529289Y-110537710D01*
X136517000Y-118550000D01*
X136517000Y-118362408D01*
X136463314Y-118092510D01*
X136358005Y-117838273D01*
X136205120Y-117609465D01*
X136010535Y-117414880D01*
X135781727Y-117261995D01*
X135704485Y-117230000D01*
X135781727Y-117198005D01*
X136010535Y-117045120D01*
X136205120Y-116850535D01*
X136358005Y-116621727D01*
X136463314Y-116367490D01*
X136517000Y-116097592D01*
X136517000Y-115822408D01*
X136463314Y-115552510D01*
X136358005Y-115298273D01*
X136205120Y-115069465D01*
X136010535Y-114874880D01*
X135781727Y-114721995D01*
X135704485Y-114690000D01*
X135781727Y-114658005D01*
X136010535Y-114505120D01*
X136205120Y-114310535D01*
X136358005Y-114081727D01*
X136463314Y-113827490D01*
X136517000Y-113557592D01*
X136517000Y-113282408D01*
X136463314Y-113012510D01*
X136358005Y-112758273D01*
X136205120Y-112529465D01*
X136010535Y-112334880D01*
X135781727Y-112181995D01*
X135704485Y-112150000D01*
X135781727Y-112118005D01*
X136010535Y-111965120D01*
X136205120Y-111770535D01*
X136358005Y-111541727D01*
X136463314Y-111287490D01*
X136517000Y-111017592D01*
X136517000Y-110742408D01*
X136463314Y-110472510D01*
X136358005Y-110218273D01*
X136205120Y-109989465D01*
X136010535Y-109794880D01*
X135781727Y-109641995D01*
X135740698Y-109625000D01*
X143186620Y-109625000D01*
X143235000Y-109629765D01*
X143283380Y-109625000D01*
X143428094Y-109610747D01*
X143461637Y-109600572D01*
X143975000Y-109600572D01*
X144148254Y-109583508D01*
X144314850Y-109532972D01*
X144468386Y-109450905D01*
X144602962Y-109340462D01*
X144713405Y-109205886D01*
X144795472Y-109052350D01*
X144846008Y-108885754D01*
X144863072Y-108712500D01*
X144863072Y-108422510D01*
X153314109Y-108422510D01*
X153362489Y-108427275D01*
X153410869Y-108422510D01*
X168214110Y-108422510D01*
X168262490Y-108427275D01*
X168310870Y-108422510D01*
X168455584Y-108408257D01*
X168641257Y-108351934D01*
X168812374Y-108260470D01*
X168962360Y-108137380D01*
X168993206Y-108099794D01*
X169254928Y-107838072D01*
X169550001Y-107838072D01*
X169723255Y-107821008D01*
X169889851Y-107770472D01*
X170043387Y-107688405D01*
X170177962Y-107577962D01*
X170200000Y-107551109D01*
X170222038Y-107577962D01*
X170356613Y-107688405D01*
X170510149Y-107770472D01*
X170676745Y-107821008D01*
X170849999Y-107838072D01*
X171550001Y-107838072D01*
X171723255Y-107821008D01*
X171889851Y-107770472D01*
X172043387Y-107688405D01*
X172177962Y-107577962D01*
X172254254Y-107485000D01*
X173145746Y-107485000D01*
X173222038Y-107577962D01*
X173356613Y-107688405D01*
X173510149Y-107770472D01*
X173676745Y-107821008D01*
X173849999Y-107838072D01*
X174500001Y-107838072D01*
X174673255Y-107821008D01*
X174839851Y-107770472D01*
X174993387Y-107688405D01*
X175127962Y-107577962D01*
X175133342Y-107571406D01*
X175198815Y-107651185D01*
X175295506Y-107730537D01*
X175405820Y-107789502D01*
X175525518Y-107825812D01*
X175650000Y-107838072D01*
X175939250Y-107835000D01*
X176098000Y-107676250D01*
X176098000Y-106627000D01*
X176078000Y-106627000D01*
X176078000Y-106373000D01*
X176098000Y-106373000D01*
X176098000Y-106353000D01*
X176352000Y-106353000D01*
X176352000Y-106373000D01*
%TA.AperFunction,Conductor*%
D23*
G36*
X176352000Y-106373000D02*
G01*
X176365011Y-106373000D01*
X176365011Y-106627000D01*
X176352000Y-106627000D01*
X176352000Y-107676250D01*
X176365011Y-107689261D01*
X176365011Y-110010739D01*
X176352000Y-110023750D01*
X176352000Y-111073000D01*
X176365011Y-111073000D01*
X176365011Y-111327000D01*
X176352000Y-111327000D01*
X176352000Y-112376250D01*
X176365011Y-112389261D01*
X176365010Y-143041989D01*
X166737716Y-152669284D01*
X166700130Y-152700130D01*
X166669284Y-152737716D01*
X166659989Y-152747011D01*
X135798181Y-152747011D01*
X136010535Y-152605120D01*
X136205120Y-152410535D01*
X136358005Y-152181727D01*
X136463314Y-151927490D01*
X136517000Y-151657592D01*
X136517000Y-151382408D01*
X136463314Y-151112510D01*
X136358005Y-150858273D01*
X136205120Y-150629465D01*
X136010535Y-150434880D01*
X135781727Y-150281995D01*
X135704485Y-150250000D01*
X135781727Y-150218005D01*
X136010535Y-150065120D01*
X136205120Y-149870535D01*
X136358005Y-149641727D01*
X136463314Y-149387490D01*
X136517000Y-149117592D01*
X136517000Y-148842408D01*
X136463314Y-148572510D01*
X136358005Y-148318273D01*
X136205120Y-148089465D01*
X136010535Y-147894880D01*
X135781727Y-147741995D01*
X135704485Y-147710000D01*
X135781727Y-147678005D01*
X136010535Y-147525120D01*
X136205120Y-147330535D01*
X136358005Y-147101727D01*
X136463314Y-146847490D01*
X136517000Y-146577592D01*
X136517000Y-146302408D01*
X136463314Y-146032510D01*
X136358005Y-145778273D01*
X136205120Y-145549465D01*
X136010535Y-145354880D01*
X135781727Y-145201995D01*
X135704485Y-145170000D01*
X135781727Y-145138005D01*
X136010535Y-144985120D01*
X136205120Y-144790535D01*
X136358005Y-144561727D01*
X136463314Y-144307490D01*
X136517000Y-144037592D01*
X136517000Y-143762408D01*
X136463314Y-143492510D01*
X136358005Y-143238273D01*
X136205120Y-143009465D01*
X136010535Y-142814880D01*
X135781727Y-142661995D01*
X135704485Y-142630000D01*
X135781727Y-142598005D01*
X136010535Y-142445120D01*
X136205120Y-142250535D01*
X136358005Y-142021727D01*
X136463314Y-141767490D01*
X136517000Y-141497592D01*
X136517000Y-141222408D01*
X136463314Y-140952510D01*
X136358005Y-140698273D01*
X136205120Y-140469465D01*
X136010535Y-140274880D01*
X135781727Y-140121995D01*
X135704485Y-140090000D01*
X135781727Y-140058005D01*
X136010535Y-139905120D01*
X136205120Y-139710535D01*
X136358005Y-139481727D01*
X136463314Y-139227490D01*
X136517000Y-138957592D01*
X136517000Y-138682408D01*
X136463314Y-138412510D01*
X136358005Y-138158273D01*
X136205120Y-137929465D01*
X136010535Y-137734880D01*
X135781727Y-137581995D01*
X135704485Y-137550000D01*
X135781727Y-137518005D01*
X136010535Y-137365120D01*
X136205120Y-137170535D01*
X136358005Y-136941727D01*
X136463314Y-136687490D01*
X136498350Y-136511351D01*
X143782890Y-143795891D01*
X143813731Y-143833471D01*
X143963717Y-143956561D01*
X144115315Y-144037592D01*
X144134834Y-144048025D01*
X144320507Y-144104348D01*
X144513601Y-144123366D01*
X144561981Y-144118601D01*
X157078019Y-144118601D01*
X157126399Y-144123366D01*
X157174779Y-144118601D01*
X157319493Y-144104348D01*
X157505166Y-144048025D01*
X157676283Y-143956561D01*
X157826269Y-143833471D01*
X157857115Y-143795886D01*
X158434400Y-143218600D01*
X158687599Y-143218600D01*
X158977125Y-143161010D01*
X159249853Y-143048042D01*
X159495302Y-142884039D01*
X159704039Y-142675302D01*
X159868042Y-142429853D01*
X159981010Y-142157125D01*
X160038600Y-141867599D01*
X160038600Y-141572401D01*
X159981010Y-141282875D01*
X159868042Y-141010147D01*
X159704039Y-140764698D01*
X159495302Y-140555961D01*
X159336719Y-140450000D01*
X159495302Y-140344039D01*
X159704039Y-140135302D01*
X159868042Y-139889853D01*
X159981010Y-139617125D01*
X160038600Y-139327599D01*
X160038600Y-139032401D01*
X159981010Y-138742875D01*
X159917107Y-138588601D01*
X159934077Y-138588601D01*
X159971399Y-138592277D01*
X160008721Y-138588601D01*
X160008732Y-138588601D01*
X160120385Y-138577604D01*
X160263646Y-138534147D01*
X160395675Y-138463575D01*
X160511400Y-138368602D01*
X160535203Y-138339598D01*
X161536730Y-137338072D01*
X162150001Y-137338072D01*
X162323255Y-137321008D01*
X162489851Y-137270472D01*
X162643387Y-137188405D01*
X162777962Y-137077962D01*
X162888405Y-136943387D01*
X162970472Y-136789851D01*
X163021008Y-136623255D01*
X163038072Y-136450001D01*
X163038072Y-135749999D01*
X163021008Y-135576745D01*
X162970472Y-135410149D01*
X162888405Y-135256613D01*
X162821724Y-135175363D01*
X162851185Y-135151185D01*
X162930537Y-135054494D01*
X162989502Y-134944180D01*
X163025812Y-134824482D01*
X163038072Y-134700000D01*
X163035000Y-134385750D01*
X162876250Y-134227000D01*
X161827000Y-134227000D01*
X161827000Y-134247000D01*
X161573000Y-134247000D01*
X161573000Y-134227000D01*
X160523750Y-134227000D01*
X160365000Y-134385750D01*
X160361928Y-134700000D01*
X160374188Y-134824482D01*
X160410498Y-134944180D01*
X160469463Y-135054494D01*
X160548815Y-135151185D01*
X160578276Y-135175363D01*
X160511595Y-135256613D01*
X160429528Y-135410149D01*
X160378992Y-135576745D01*
X160361928Y-135749999D01*
X160361928Y-136363270D01*
X160038600Y-136686599D01*
X160038600Y-136492401D01*
X159981010Y-136202875D01*
X159868042Y-135930147D01*
X159704039Y-135684698D01*
X159495302Y-135475961D01*
X159329897Y-135365441D01*
X159428488Y-135306817D01*
X159646854Y-135110293D01*
X159822684Y-134874944D01*
X159949222Y-134609814D01*
X159994958Y-134459026D01*
X159873817Y-134227000D01*
X158667000Y-134227000D01*
X158667000Y-134247000D01*
X158413000Y-134247000D01*
X158413000Y-134227000D01*
X158393000Y-134227000D01*
X158393000Y-133973000D01*
X158413000Y-133973000D01*
X158413000Y-132765536D01*
X158667000Y-132765536D01*
X158667000Y-133973000D01*
X159873817Y-133973000D01*
X159994958Y-133740974D01*
X159949222Y-133590186D01*
X159906180Y-133500000D01*
X160361928Y-133500000D01*
X160365000Y-133814250D01*
X160523750Y-133973000D01*
X161573000Y-133973000D01*
X161573000Y-133023750D01*
X161827000Y-133023750D01*
X161827000Y-133973000D01*
X162876250Y-133973000D01*
X163035000Y-133814250D01*
X163038072Y-133500000D01*
X163025812Y-133375518D01*
X162989502Y-133255820D01*
X162930537Y-133145506D01*
X162851185Y-133048815D01*
X162754494Y-132969463D01*
X162644180Y-132910498D01*
X162524482Y-132874188D01*
X162400000Y-132861928D01*
X161985750Y-132865000D01*
X161827000Y-133023750D01*
X161573000Y-133023750D01*
X161414250Y-132865000D01*
X161000000Y-132861928D01*
X160875518Y-132874188D01*
X160755820Y-132910498D01*
X160645506Y-132969463D01*
X160548815Y-133048815D01*
X160469463Y-133145506D01*
X160410498Y-133255820D01*
X160374188Y-133375518D01*
X160361928Y-133500000D01*
X159906180Y-133500000D01*
X159822684Y-133325056D01*
X159646854Y-133089707D01*
X159428488Y-132893183D01*
X159175978Y-132743036D01*
X158899027Y-132645037D01*
X158667000Y-132765536D01*
X158413000Y-132765536D01*
X158180973Y-132645037D01*
X157904022Y-132743036D01*
X157651512Y-132893183D01*
X157472053Y-133054692D01*
X157453102Y-132992220D01*
X157394137Y-132881906D01*
X157314785Y-132785215D01*
X157218094Y-132705863D01*
X157107780Y-132646898D01*
X156988082Y-132610588D01*
X156863600Y-132598328D01*
X155136400Y-132598328D01*
X155011918Y-132610588D01*
X154892220Y-132646898D01*
X154781906Y-132705863D01*
X154685215Y-132785215D01*
X154605863Y-132881906D01*
X154546898Y-132992220D01*
X154510588Y-133111918D01*
X154510284Y-133115000D01*
X138428000Y-133115000D01*
X136517000Y-131204000D01*
X136517000Y-131062408D01*
X136463314Y-130792510D01*
X136358005Y-130538273D01*
X136205120Y-130309465D01*
X136010535Y-130114880D01*
X135781727Y-129961995D01*
X135704485Y-129930000D01*
X135781727Y-129898005D01*
X136010535Y-129745120D01*
X136070655Y-129685000D01*
X139351215Y-129685000D01*
X139515008Y-129794443D01*
X139739764Y-129887540D01*
X139978363Y-129935000D01*
X140221637Y-129935000D01*
X140460236Y-129887540D01*
X140684992Y-129794443D01*
X140887267Y-129659287D01*
X141059287Y-129487267D01*
X141194443Y-129284992D01*
X141287540Y-129060236D01*
X141335000Y-128821637D01*
X141335000Y-128578363D01*
X141287540Y-128339764D01*
X141194443Y-128115008D01*
X141059287Y-127912733D01*
X140887267Y-127740713D01*
X140684992Y-127605557D01*
X140460236Y-127512460D01*
X140221637Y-127465000D01*
X139978363Y-127465000D01*
X139739764Y-127512460D01*
X139515008Y-127605557D01*
X139351215Y-127715000D01*
X136150655Y-127715000D01*
X136010535Y-127574880D01*
X135781727Y-127421995D01*
X135704485Y-127390000D01*
X135781727Y-127358005D01*
X136010535Y-127205120D01*
X136030655Y-127185000D01*
X139251215Y-127185000D01*
X139415008Y-127294443D01*
X139639764Y-127387540D01*
X139878363Y-127435000D01*
X140121637Y-127435000D01*
X140360236Y-127387540D01*
X140584992Y-127294443D01*
X140787267Y-127159287D01*
X140959287Y-126987267D01*
X141094443Y-126784992D01*
X141187540Y-126560236D01*
X141235000Y-126321637D01*
X141235000Y-126128000D01*
X141319284Y-126212284D01*
X141350130Y-126249870D01*
X141500116Y-126372960D01*
X141671233Y-126464424D01*
X141856906Y-126520747D01*
X142001620Y-126535000D01*
X142001621Y-126535000D01*
X142049999Y-126539765D01*
X142098377Y-126535000D01*
X143897397Y-126535000D01*
X143905820Y-126539502D01*
X144025518Y-126575812D01*
X144150000Y-126588072D01*
X145050000Y-126588072D01*
X145174482Y-126575812D01*
X145294180Y-126539502D01*
X145404494Y-126480537D01*
X145501185Y-126401185D01*
X145580537Y-126304494D01*
X145639502Y-126194180D01*
X145675812Y-126074482D01*
X145688072Y-125950000D01*
X145688072Y-125438095D01*
X145698815Y-125451185D01*
X145795506Y-125530537D01*
X145905820Y-125589502D01*
X146025518Y-125625812D01*
X146150000Y-125638072D01*
X147050000Y-125638072D01*
X147174482Y-125625812D01*
X147294180Y-125589502D01*
X147302603Y-125585000D01*
X151451620Y-125585000D01*
X151500000Y-125589765D01*
X151548380Y-125585000D01*
X151693094Y-125570747D01*
X151878767Y-125514424D01*
X152049884Y-125422960D01*
X152199870Y-125299870D01*
X152230716Y-125262284D01*
X153962284Y-123530716D01*
X153999870Y-123499870D01*
X154122960Y-123349884D01*
X154214424Y-123178767D01*
X154259516Y-123030117D01*
X154270747Y-122993095D01*
X154289765Y-122800001D01*
X154285000Y-122751621D01*
X154285000Y-115208242D01*
X154342252Y-115169987D01*
X154569987Y-114942252D01*
X154748918Y-114674463D01*
X154872168Y-114376912D01*
X154935000Y-114061033D01*
X154935000Y-113738967D01*
X154872168Y-113423088D01*
X154748918Y-113125537D01*
X154569987Y-112857748D01*
X154342252Y-112630013D01*
X154074463Y-112451082D01*
X153776912Y-112327832D01*
X153746508Y-112321784D01*
X153678767Y-112285576D01*
X153493094Y-112229253D01*
X153300000Y-112210235D01*
X153106907Y-112229253D01*
X152921234Y-112285576D01*
X152853494Y-112321784D01*
X152823088Y-112327832D01*
X152525537Y-112451082D01*
X152257748Y-112630013D01*
X152030013Y-112857748D01*
X151851082Y-113125537D01*
X151727832Y-113423088D01*
X151665000Y-113738967D01*
X151665000Y-114061033D01*
X151727832Y-114376912D01*
X151851082Y-114674463D01*
X152030013Y-114942252D01*
X152257748Y-115169987D01*
X152315001Y-115208242D01*
X152315000Y-122392000D01*
X151092000Y-123615000D01*
X147302603Y-123615000D01*
X147294180Y-123610498D01*
X147174482Y-123574188D01*
X147050000Y-123561928D01*
X146150000Y-123561928D01*
X146025518Y-123574188D01*
X145905820Y-123610498D01*
X145795506Y-123669463D01*
X145698815Y-123748815D01*
X145619463Y-123845506D01*
X145610857Y-123861607D01*
X145526250Y-123777000D01*
X144727000Y-123777000D01*
X144727000Y-123797000D01*
X144473000Y-123797000D01*
X144473000Y-123777000D01*
X143673750Y-123777000D01*
X143515000Y-123935750D01*
X143511928Y-124050000D01*
X143524188Y-124174482D01*
X143560498Y-124294180D01*
X143619463Y-124404494D01*
X143698815Y-124501185D01*
X143776574Y-124565000D01*
X143278373Y-124565000D01*
X143289502Y-124544180D01*
X143325812Y-124424482D01*
X143338072Y-124300000D01*
X143335000Y-123885750D01*
X143176250Y-123727000D01*
X142227000Y-123727000D01*
X142227000Y-123747000D01*
X141973000Y-123747000D01*
X141973000Y-123727000D01*
X141953000Y-123727000D01*
X141953000Y-123473000D01*
X141973000Y-123473000D01*
X141973000Y-122423750D01*
X142227000Y-122423750D01*
X142227000Y-123473000D01*
X143176250Y-123473000D01*
X143335000Y-123314250D01*
X143335476Y-123250000D01*
X143511928Y-123250000D01*
X143515000Y-123364250D01*
X143673750Y-123523000D01*
X144473000Y-123523000D01*
X144473000Y-122773750D01*
X144727000Y-122773750D01*
X144727000Y-123523000D01*
X145526250Y-123523000D01*
X145685000Y-123364250D01*
X145688072Y-123250000D01*
X145675812Y-123125518D01*
X145639502Y-123005820D01*
X145580537Y-122895506D01*
X145501185Y-122798815D01*
X145404494Y-122719463D01*
X145294180Y-122660498D01*
X145174482Y-122624188D01*
X145050000Y-122611928D01*
X144885750Y-122615000D01*
X144727000Y-122773750D01*
X144473000Y-122773750D01*
X144314250Y-122615000D01*
X144150000Y-122611928D01*
X144025518Y-122624188D01*
X143905820Y-122660498D01*
X143795506Y-122719463D01*
X143698815Y-122798815D01*
X143619463Y-122895506D01*
X143560498Y-123005820D01*
X143524188Y-123125518D01*
X143511928Y-123250000D01*
X143335476Y-123250000D01*
X143338072Y-122900000D01*
X143325812Y-122775518D01*
X143289502Y-122655820D01*
X143230537Y-122545506D01*
X143151185Y-122448815D01*
X143054494Y-122369463D01*
X142944180Y-122310498D01*
X142824482Y-122274188D01*
X142700000Y-122261928D01*
X142385750Y-122265000D01*
X142227000Y-122423750D01*
X141973000Y-122423750D01*
X141814250Y-122265000D01*
X141500000Y-122261928D01*
X141375518Y-122274188D01*
X141255820Y-122310498D01*
X141145506Y-122369463D01*
X141048815Y-122448815D01*
X141024637Y-122478276D01*
X140943387Y-122411595D01*
X140789851Y-122329528D01*
X140623255Y-122278992D01*
X140450001Y-122261928D01*
X139749999Y-122261928D01*
X139576745Y-122278992D01*
X139410149Y-122329528D01*
X139256613Y-122411595D01*
X139122038Y-122522038D01*
X139045746Y-122615000D01*
X136130655Y-122615000D01*
X136010535Y-122494880D01*
X135781727Y-122341995D01*
X135704485Y-122310000D01*
X135781727Y-122278005D01*
X136010535Y-122125120D01*
X136205120Y-121930535D01*
X136358005Y-121701727D01*
X136463314Y-121447490D01*
X136477667Y-121375333D01*
X145668001Y-112185000D01*
X168245746Y-112185000D01*
X168322038Y-112277962D01*
X168456613Y-112388405D01*
X168610149Y-112470472D01*
X168776745Y-112521008D01*
X168949999Y-112538072D01*
X169650001Y-112538072D01*
X169823255Y-112521008D01*
X169989851Y-112470472D01*
X170143387Y-112388405D01*
X170277962Y-112277962D01*
X170300000Y-112251109D01*
X170322038Y-112277962D01*
X170456613Y-112388405D01*
X170610149Y-112470472D01*
X170776745Y-112521008D01*
X170949999Y-112538072D01*
X171650001Y-112538072D01*
X171823255Y-112521008D01*
X171989851Y-112470472D01*
X172143387Y-112388405D01*
X172277962Y-112277962D01*
X172354254Y-112185000D01*
X173145746Y-112185000D01*
X173222038Y-112277962D01*
X173356613Y-112388405D01*
X173510149Y-112470472D01*
X173676745Y-112521008D01*
X173849999Y-112538072D01*
X174500001Y-112538072D01*
X174673255Y-112521008D01*
X174839851Y-112470472D01*
X174993387Y-112388405D01*
X175127962Y-112277962D01*
X175133342Y-112271406D01*
X175198815Y-112351185D01*
X175295506Y-112430537D01*
X175405820Y-112489502D01*
X175525518Y-112525812D01*
X175650000Y-112538072D01*
X175939250Y-112535000D01*
X176098000Y-112376250D01*
X176098000Y-111327000D01*
X176078000Y-111327000D01*
X176078000Y-111073000D01*
X176098000Y-111073000D01*
X176098000Y-110023750D01*
X175939250Y-109865000D01*
X175650000Y-109861928D01*
X175525518Y-109874188D01*
X175405820Y-109910498D01*
X175295506Y-109969463D01*
X175198815Y-110048815D01*
X175133342Y-110128594D01*
X175127962Y-110122038D01*
X174993387Y-110011595D01*
X174839851Y-109929528D01*
X174673255Y-109878992D01*
X174500001Y-109861928D01*
X173849999Y-109861928D01*
X173676745Y-109878992D01*
X173510149Y-109929528D01*
X173356613Y-110011595D01*
X173222038Y-110122038D01*
X173145746Y-110215000D01*
X172354254Y-110215000D01*
X172277962Y-110122038D01*
X172143387Y-110011595D01*
X171989851Y-109929528D01*
X171823255Y-109878992D01*
X171650001Y-109861928D01*
X170949999Y-109861928D01*
X170776745Y-109878992D01*
X170610149Y-109929528D01*
X170456613Y-110011595D01*
X170322038Y-110122038D01*
X170300000Y-110148891D01*
X170277962Y-110122038D01*
X170143387Y-110011595D01*
X169989851Y-109929528D01*
X169823255Y-109878992D01*
X169650001Y-109861928D01*
X168949999Y-109861928D01*
X168776745Y-109878992D01*
X168610149Y-109929528D01*
X168456613Y-110011595D01*
X168322038Y-110122038D01*
X168245746Y-110215000D01*
X145308380Y-110215000D01*
X145260000Y-110210235D01*
X145211620Y-110215000D01*
X145066906Y-110229253D01*
X144881233Y-110285576D01*
X144710116Y-110377040D01*
X144560130Y-110500130D01*
X144529289Y-110537710D01*
X136517000Y-118550000D01*
X136517000Y-118362408D01*
X136463314Y-118092510D01*
X136358005Y-117838273D01*
X136205120Y-117609465D01*
X136010535Y-117414880D01*
X135781727Y-117261995D01*
X135704485Y-117230000D01*
X135781727Y-117198005D01*
X136010535Y-117045120D01*
X136205120Y-116850535D01*
X136358005Y-116621727D01*
X136463314Y-116367490D01*
X136517000Y-116097592D01*
X136517000Y-115822408D01*
X136463314Y-115552510D01*
X136358005Y-115298273D01*
X136205120Y-115069465D01*
X136010535Y-114874880D01*
X135781727Y-114721995D01*
X135704485Y-114690000D01*
X135781727Y-114658005D01*
X136010535Y-114505120D01*
X136205120Y-114310535D01*
X136358005Y-114081727D01*
X136463314Y-113827490D01*
X136517000Y-113557592D01*
X136517000Y-113282408D01*
X136463314Y-113012510D01*
X136358005Y-112758273D01*
X136205120Y-112529465D01*
X136010535Y-112334880D01*
X135781727Y-112181995D01*
X135704485Y-112150000D01*
X135781727Y-112118005D01*
X136010535Y-111965120D01*
X136205120Y-111770535D01*
X136358005Y-111541727D01*
X136463314Y-111287490D01*
X136517000Y-111017592D01*
X136517000Y-110742408D01*
X136463314Y-110472510D01*
X136358005Y-110218273D01*
X136205120Y-109989465D01*
X136010535Y-109794880D01*
X135781727Y-109641995D01*
X135740698Y-109625000D01*
X143186620Y-109625000D01*
X143235000Y-109629765D01*
X143283380Y-109625000D01*
X143428094Y-109610747D01*
X143461637Y-109600572D01*
X143975000Y-109600572D01*
X144148254Y-109583508D01*
X144314850Y-109532972D01*
X144468386Y-109450905D01*
X144602962Y-109340462D01*
X144713405Y-109205886D01*
X144795472Y-109052350D01*
X144846008Y-108885754D01*
X144863072Y-108712500D01*
X144863072Y-108422510D01*
X153314109Y-108422510D01*
X153362489Y-108427275D01*
X153410869Y-108422510D01*
X168214110Y-108422510D01*
X168262490Y-108427275D01*
X168310870Y-108422510D01*
X168455584Y-108408257D01*
X168641257Y-108351934D01*
X168812374Y-108260470D01*
X168962360Y-108137380D01*
X168993206Y-108099794D01*
X169254928Y-107838072D01*
X169550001Y-107838072D01*
X169723255Y-107821008D01*
X169889851Y-107770472D01*
X170043387Y-107688405D01*
X170177962Y-107577962D01*
X170200000Y-107551109D01*
X170222038Y-107577962D01*
X170356613Y-107688405D01*
X170510149Y-107770472D01*
X170676745Y-107821008D01*
X170849999Y-107838072D01*
X171550001Y-107838072D01*
X171723255Y-107821008D01*
X171889851Y-107770472D01*
X172043387Y-107688405D01*
X172177962Y-107577962D01*
X172254254Y-107485000D01*
X173145746Y-107485000D01*
X173222038Y-107577962D01*
X173356613Y-107688405D01*
X173510149Y-107770472D01*
X173676745Y-107821008D01*
X173849999Y-107838072D01*
X174500001Y-107838072D01*
X174673255Y-107821008D01*
X174839851Y-107770472D01*
X174993387Y-107688405D01*
X175127962Y-107577962D01*
X175133342Y-107571406D01*
X175198815Y-107651185D01*
X175295506Y-107730537D01*
X175405820Y-107789502D01*
X175525518Y-107825812D01*
X175650000Y-107838072D01*
X175939250Y-107835000D01*
X176098000Y-107676250D01*
X176098000Y-106627000D01*
X176078000Y-106627000D01*
X176078000Y-106373000D01*
X176098000Y-106373000D01*
X176098000Y-106353000D01*
X176352000Y-106353000D01*
X176352000Y-106373000D01*
G37*
%TD.AperFunction*%
D22*
X176453893Y-76707670D02*
X176890498Y-76839489D01*
X177293185Y-77053600D01*
X177646612Y-77341848D01*
X177937327Y-77693261D01*
X178154242Y-78094439D01*
X178289106Y-78530113D01*
X178340000Y-79014344D01*
X178340000Y-88359954D01*
X178249871Y-88250131D01*
X178212285Y-88219285D01*
X177621567Y-87628567D01*
X177635000Y-87561033D01*
X177635000Y-87238967D01*
X177572168Y-86923088D01*
X177448918Y-86625537D01*
X177269987Y-86357748D01*
X177042252Y-86130013D01*
X176774463Y-85951082D01*
X176476912Y-85827832D01*
X176161033Y-85765000D01*
X175838967Y-85765000D01*
X175523088Y-85827832D01*
X175225537Y-85951082D01*
X174957748Y-86130013D01*
X174730013Y-86357748D01*
X174691758Y-86415000D01*
X170808242Y-86415000D01*
X170769987Y-86357748D01*
X170542252Y-86130013D01*
X170274463Y-85951082D01*
X169976912Y-85827832D01*
X169661033Y-85765000D01*
X169338967Y-85765000D01*
X169023088Y-85827832D01*
X168725537Y-85951082D01*
X168457748Y-86130013D01*
X168230013Y-86357748D01*
X168051082Y-86625537D01*
X167927832Y-86923088D01*
X167865000Y-87238967D01*
X167865000Y-87561033D01*
X167927832Y-87876912D01*
X168051082Y-88174463D01*
X168230013Y-88442252D01*
X168457748Y-88669987D01*
X168725537Y-88848918D01*
X169023088Y-88972168D01*
X169338967Y-89035000D01*
X169661033Y-89035000D01*
X169976912Y-88972168D01*
X170274463Y-88848918D01*
X170542252Y-88669987D01*
X170769987Y-88442252D01*
X170808242Y-88385000D01*
X174691758Y-88385000D01*
X174730013Y-88442252D01*
X174957748Y-88669987D01*
X175225537Y-88848918D01*
X175523088Y-88972168D01*
X175838967Y-89035000D01*
X176161033Y-89035000D01*
X176228567Y-89021567D01*
X176565002Y-89358002D01*
X176565002Y-90364320D01*
X176476912Y-90327832D01*
X176161033Y-90265000D01*
X175838967Y-90265000D01*
X175523088Y-90327832D01*
X175225537Y-90451082D01*
X174957748Y-90630013D01*
X174730013Y-90857748D01*
X174691758Y-90915000D01*
X170808242Y-90915000D01*
X170769987Y-90857748D01*
X170542252Y-90630013D01*
X170274463Y-90451082D01*
X169976912Y-90327832D01*
X169661033Y-90265000D01*
X169338967Y-90265000D01*
X169023088Y-90327832D01*
X168725537Y-90451082D01*
X168457748Y-90630013D01*
X168230013Y-90857748D01*
X168191758Y-90915000D01*
X166348380Y-90915000D01*
X166300000Y-90910235D01*
X166251620Y-90915000D01*
X164999770Y-90915000D01*
X164922500Y-90820845D01*
X164922500Y-88123692D01*
X164988405Y-88043387D01*
X165070472Y-87889851D01*
X165121008Y-87723255D01*
X165138072Y-87550001D01*
X165138072Y-86649999D01*
X165121008Y-86476745D01*
X165070472Y-86310149D01*
X164988405Y-86156613D01*
X164877962Y-86022038D01*
X164743387Y-85911595D01*
X164589851Y-85829528D01*
X164423255Y-85778992D01*
X164250001Y-85761928D01*
X163549999Y-85761928D01*
X163376745Y-85778992D01*
X163210149Y-85829528D01*
X163056613Y-85911595D01*
X162975363Y-85978276D01*
X162951185Y-85948815D01*
X162854494Y-85869463D01*
X162744180Y-85810498D01*
X162624482Y-85774188D01*
X162500000Y-85761928D01*
X162185750Y-85765000D01*
X162027000Y-85923750D01*
X162027000Y-86973000D01*
X162047000Y-86973000D01*
X162047000Y-87227000D01*
X162027000Y-87227000D01*
X162027000Y-88276250D01*
X162185750Y-88435000D01*
X162500000Y-88438072D01*
X162624482Y-88425812D01*
X162744180Y-88389502D01*
X162854494Y-88330537D01*
X162951185Y-88251185D01*
X162952501Y-88249582D01*
X162952500Y-90786343D01*
X162901185Y-90723815D01*
X162804494Y-90644463D01*
X162694180Y-90585498D01*
X162574482Y-90549188D01*
X162450000Y-90536928D01*
X162148250Y-90540000D01*
X161989500Y-90698750D01*
X161989500Y-91773000D01*
X162009500Y-91773000D01*
X162009500Y-92027000D01*
X161989500Y-92027000D01*
X161989500Y-93101250D01*
X162148250Y-93260000D01*
X162450000Y-93263072D01*
X162574482Y-93250812D01*
X162694180Y-93214502D01*
X162804494Y-93155537D01*
X162901185Y-93076185D01*
X162966658Y-92996406D01*
X162972038Y-93002962D01*
X163106614Y-93113405D01*
X163260150Y-93195472D01*
X163426746Y-93246008D01*
X163600000Y-93263072D01*
X164275000Y-93263072D01*
X164448254Y-93246008D01*
X164614850Y-93195472D01*
X164768386Y-93113405D01*
X164902962Y-93002962D01*
X164999770Y-92885000D01*
X165225608Y-92885000D01*
X165205557Y-92915008D01*
X165112460Y-93139764D01*
X165065000Y-93378363D01*
X165065000Y-93621637D01*
X165112460Y-93860236D01*
X165205557Y-94084992D01*
X165340713Y-94287267D01*
X165512733Y-94459287D01*
X165715008Y-94594443D01*
X165939764Y-94687540D01*
X166178363Y-94735000D01*
X166421637Y-94735000D01*
X166660236Y-94687540D01*
X166884992Y-94594443D01*
X167087267Y-94459287D01*
X167259287Y-94287267D01*
X167394443Y-94084992D01*
X167487540Y-93860236D01*
X167535000Y-93621637D01*
X167535000Y-93378363D01*
X167487540Y-93139764D01*
X167394443Y-92915008D01*
X167374392Y-92885000D01*
X168191758Y-92885000D01*
X168230013Y-92942252D01*
X168457748Y-93169987D01*
X168725537Y-93348918D01*
X169023088Y-93472168D01*
X169338967Y-93535000D01*
X169661033Y-93535000D01*
X169976912Y-93472168D01*
X170274463Y-93348918D01*
X170542252Y-93169987D01*
X170769987Y-92942252D01*
X170808242Y-92885000D01*
X174691758Y-92885000D01*
X174730013Y-92942252D01*
X174957748Y-93169987D01*
X175225537Y-93348918D01*
X175523088Y-93472168D01*
X175838967Y-93535000D01*
X176161033Y-93535000D01*
X176476912Y-93472168D01*
X176565001Y-93435680D01*
X176565001Y-93964320D01*
X176476912Y-93927832D01*
X176161033Y-93865000D01*
X175838967Y-93865000D01*
X175523088Y-93927832D01*
X175225537Y-94051082D01*
X174957748Y-94230013D01*
X174730013Y-94457748D01*
X174691758Y-94515000D01*
X170808242Y-94515000D01*
X170769987Y-94457748D01*
X170542252Y-94230013D01*
X170274463Y-94051082D01*
X169976912Y-93927832D01*
X169661033Y-93865000D01*
X169338967Y-93865000D01*
X169023088Y-93927832D01*
X168725537Y-94051082D01*
X168457748Y-94230013D01*
X168230013Y-94457748D01*
X168051082Y-94725537D01*
X167927832Y-95023088D01*
X167865000Y-95338967D01*
X167865000Y-95661033D01*
X167927832Y-95976912D01*
X168051082Y-96274463D01*
X168230013Y-96542252D01*
X168457748Y-96769987D01*
X168725537Y-96948918D01*
X169023088Y-97072168D01*
X169338967Y-97135000D01*
X169661033Y-97135000D01*
X169976912Y-97072168D01*
X170274463Y-96948918D01*
X170542252Y-96769987D01*
X170769987Y-96542252D01*
X170808242Y-96485000D01*
X174691758Y-96485000D01*
X174730013Y-96542252D01*
X174957748Y-96769987D01*
X175225537Y-96948918D01*
X175523088Y-97072168D01*
X175838967Y-97135000D01*
X176161033Y-97135000D01*
X176228567Y-97121567D01*
X176565002Y-97458002D01*
X176565002Y-98464320D01*
X176476912Y-98427832D01*
X176161033Y-98365000D01*
X175838967Y-98365000D01*
X175523088Y-98427832D01*
X175225537Y-98551082D01*
X174957748Y-98730013D01*
X174730013Y-98957748D01*
X174691758Y-99015000D01*
X170808242Y-99015000D01*
X170769987Y-98957748D01*
X170542252Y-98730013D01*
X170274463Y-98551082D01*
X169976912Y-98427832D01*
X169661033Y-98365000D01*
X169338967Y-98365000D01*
X169023088Y-98427832D01*
X168725537Y-98551082D01*
X168457748Y-98730013D01*
X168230013Y-98957748D01*
X168191758Y-99015000D01*
X166248380Y-99015000D01*
X166200000Y-99010235D01*
X166151620Y-99015000D01*
X164999770Y-99015000D01*
X164922500Y-98920845D01*
X164922500Y-96523692D01*
X164988405Y-96443387D01*
X165070472Y-96289851D01*
X165121008Y-96123255D01*
X165138072Y-95950001D01*
X165138072Y-95049999D01*
X165121008Y-94876745D01*
X165070472Y-94710149D01*
X164988405Y-94556613D01*
X164877962Y-94422038D01*
X164743387Y-94311595D01*
X164589851Y-94229528D01*
X164423255Y-94178992D01*
X164250001Y-94161928D01*
X163549999Y-94161928D01*
X163376745Y-94178992D01*
X163210149Y-94229528D01*
X163056613Y-94311595D01*
X162975363Y-94378276D01*
X162951185Y-94348815D01*
X162854494Y-94269463D01*
X162744180Y-94210498D01*
X162624482Y-94174188D01*
X162500000Y-94161928D01*
X162185750Y-94165000D01*
X162027000Y-94323750D01*
X162027000Y-95373000D01*
X162047000Y-95373000D01*
X162047000Y-95627000D01*
X162027000Y-95627000D01*
X162027000Y-96676250D01*
X162185750Y-96835000D01*
X162500000Y-96838072D01*
X162624482Y-96825812D01*
X162744180Y-96789502D01*
X162854494Y-96730537D01*
X162951185Y-96651185D01*
X162952501Y-96649582D01*
X162952500Y-98886343D01*
X162901185Y-98823815D01*
X162804494Y-98744463D01*
X162694180Y-98685498D01*
X162574482Y-98649188D01*
X162450000Y-98636928D01*
X162148250Y-98640000D01*
X161989500Y-98798750D01*
X161989500Y-99873000D01*
X162009500Y-99873000D01*
X162009500Y-100127000D01*
X161989500Y-100127000D01*
X161989500Y-101201250D01*
X162148250Y-101360000D01*
X162450000Y-101363072D01*
X162574482Y-101350812D01*
X162694180Y-101314502D01*
X162804494Y-101255537D01*
X162901185Y-101176185D01*
X162966658Y-101096406D01*
X162972038Y-101102962D01*
X163106614Y-101213405D01*
X163260150Y-101295472D01*
X163426746Y-101346008D01*
X163600000Y-101363072D01*
X164275000Y-101363072D01*
X164448254Y-101346008D01*
X164614850Y-101295472D01*
X164768386Y-101213405D01*
X164902962Y-101102962D01*
X164999770Y-100985000D01*
X165192426Y-100985000D01*
X165105557Y-101115008D01*
X165012460Y-101339764D01*
X164965000Y-101578363D01*
X164965000Y-101821637D01*
X165012460Y-102060236D01*
X165105557Y-102284992D01*
X165240713Y-102487267D01*
X165412733Y-102659287D01*
X165615008Y-102794443D01*
X165839764Y-102887540D01*
X166078363Y-102935000D01*
X166321637Y-102935000D01*
X166560236Y-102887540D01*
X166784992Y-102794443D01*
X166987267Y-102659287D01*
X167159287Y-102487267D01*
X167294443Y-102284992D01*
X167387540Y-102060236D01*
X167435000Y-101821637D01*
X167435000Y-101578363D01*
X167387540Y-101339764D01*
X167294443Y-101115008D01*
X167207574Y-100985000D01*
X168191758Y-100985000D01*
X168230013Y-101042252D01*
X168457748Y-101269987D01*
X168725537Y-101448918D01*
X169023088Y-101572168D01*
X169338967Y-101635000D01*
X169661033Y-101635000D01*
X169976912Y-101572168D01*
X170274463Y-101448918D01*
X170542252Y-101269987D01*
X170769987Y-101042252D01*
X170808242Y-100985000D01*
X174691758Y-100985000D01*
X174730013Y-101042252D01*
X174957748Y-101269987D01*
X175225537Y-101448918D01*
X175523088Y-101572168D01*
X175838967Y-101635000D01*
X176161033Y-101635000D01*
X176476912Y-101572168D01*
X176565001Y-101535680D01*
X176565001Y-104264990D01*
X170498389Y-104264990D01*
X170450009Y-104260225D01*
X170256916Y-104279243D01*
X170071243Y-104335566D01*
X169900126Y-104427030D01*
X169750140Y-104550120D01*
X169719294Y-104587706D01*
X169145072Y-105161928D01*
X168849999Y-105161928D01*
X168676745Y-105178992D01*
X168510149Y-105229528D01*
X168356613Y-105311595D01*
X168222038Y-105422038D01*
X168111595Y-105556613D01*
X168029528Y-105710149D01*
X167978992Y-105876745D01*
X167961928Y-106049999D01*
X167961928Y-106345072D01*
X167854490Y-106452510D01*
X154938072Y-106452510D01*
X154938072Y-105300000D01*
X154925812Y-105175518D01*
X154889502Y-105055820D01*
X154830537Y-104945506D01*
X154751185Y-104848815D01*
X154654494Y-104769463D01*
X154544180Y-104710498D01*
X154424482Y-104674188D01*
X154300000Y-104661928D01*
X153600809Y-104661928D01*
X153493093Y-104629253D01*
X153300000Y-104610235D01*
X153106906Y-104629253D01*
X152999190Y-104661928D01*
X152300000Y-104661928D01*
X152175518Y-104674188D01*
X152055820Y-104710498D01*
X151945506Y-104769463D01*
X151848815Y-104848815D01*
X151769463Y-104945506D01*
X151710498Y-105055820D01*
X151674188Y-105175518D01*
X151661928Y-105300000D01*
X151661928Y-106452510D01*
X145760010Y-106452510D01*
X145760010Y-100725000D01*
X160636928Y-100725000D01*
X160649188Y-100849482D01*
X160685498Y-100969180D01*
X160744463Y-101079494D01*
X160823815Y-101176185D01*
X160920506Y-101255537D01*
X161030820Y-101314502D01*
X161150518Y-101350812D01*
X161275000Y-101363072D01*
X161576750Y-101360000D01*
X161735500Y-101201250D01*
X161735500Y-100127000D01*
X160798750Y-100127000D01*
X160640000Y-100285750D01*
X160636928Y-100725000D01*
X145760010Y-100725000D01*
X145760010Y-99275000D01*
X160636928Y-99275000D01*
X160640000Y-99714250D01*
X160798750Y-99873000D01*
X161735500Y-99873000D01*
X161735500Y-98798750D01*
X161576750Y-98640000D01*
X161275000Y-98636928D01*
X161150518Y-98649188D01*
X161030820Y-98685498D01*
X160920506Y-98744463D01*
X160823815Y-98823815D01*
X160744463Y-98920506D01*
X160685498Y-99030820D01*
X160649188Y-99150518D01*
X160636928Y-99275000D01*
X145760010Y-99275000D01*
X145760010Y-96200000D01*
X160661928Y-96200000D01*
X160674188Y-96324482D01*
X160710498Y-96444180D01*
X160769463Y-96554494D01*
X160848815Y-96651185D01*
X160945506Y-96730537D01*
X161055820Y-96789502D01*
X161175518Y-96825812D01*
X161300000Y-96838072D01*
X161614250Y-96835000D01*
X161773000Y-96676250D01*
X161773000Y-95627000D01*
X160823750Y-95627000D01*
X160665000Y-95785750D01*
X160661928Y-96200000D01*
X145760010Y-96200000D01*
X145760010Y-94800000D01*
X160661928Y-94800000D01*
X160665000Y-95214250D01*
X160823750Y-95373000D01*
X161773000Y-95373000D01*
X161773000Y-94323750D01*
X161614250Y-94165000D01*
X161300000Y-94161928D01*
X161175518Y-94174188D01*
X161055820Y-94210498D01*
X160945506Y-94269463D01*
X160848815Y-94348815D01*
X160769463Y-94445506D01*
X160710498Y-94555820D01*
X160674188Y-94675518D01*
X160661928Y-94800000D01*
X145760010Y-94800000D01*
X145760010Y-92625000D01*
X160636928Y-92625000D01*
X160649188Y-92749482D01*
X160685498Y-92869180D01*
X160744463Y-92979494D01*
X160823815Y-93076185D01*
X160920506Y-93155537D01*
X161030820Y-93214502D01*
X161150518Y-93250812D01*
X161275000Y-93263072D01*
X161576750Y-93260000D01*
X161735500Y-93101250D01*
X161735500Y-92027000D01*
X160798750Y-92027000D01*
X160640000Y-92185750D01*
X160636928Y-92625000D01*
X145760010Y-92625000D01*
X145760010Y-92623389D01*
X145764775Y-92575009D01*
X145745757Y-92381916D01*
X145689434Y-92196243D01*
X145681420Y-92181250D01*
X145597970Y-92025126D01*
X145474880Y-91875140D01*
X145437294Y-91844294D01*
X144768000Y-91175000D01*
X160636928Y-91175000D01*
X160640000Y-91614250D01*
X160798750Y-91773000D01*
X161735500Y-91773000D01*
X161735500Y-90698750D01*
X161576750Y-90540000D01*
X161275000Y-90536928D01*
X161150518Y-90549188D01*
X161030820Y-90585498D01*
X160920506Y-90644463D01*
X160823815Y-90723815D01*
X160744463Y-90820506D01*
X160685498Y-90930820D01*
X160649188Y-91050518D01*
X160636928Y-91175000D01*
X144768000Y-91175000D01*
X142480726Y-88887726D01*
X142449880Y-88850140D01*
X142412294Y-88819294D01*
X141838072Y-88245072D01*
X141838072Y-87949999D01*
X141823299Y-87800000D01*
X160661928Y-87800000D01*
X160674188Y-87924482D01*
X160710498Y-88044180D01*
X160769463Y-88154494D01*
X160848815Y-88251185D01*
X160945506Y-88330537D01*
X161055820Y-88389502D01*
X161175518Y-88425812D01*
X161300000Y-88438072D01*
X161614250Y-88435000D01*
X161773000Y-88276250D01*
X161773000Y-87227000D01*
X160823750Y-87227000D01*
X160665000Y-87385750D01*
X160661928Y-87800000D01*
X141823299Y-87800000D01*
X141821008Y-87776745D01*
X141770472Y-87610149D01*
X141688405Y-87456613D01*
X141577962Y-87322038D01*
X141490184Y-87250000D01*
X141577962Y-87177962D01*
X141688405Y-87043387D01*
X141770472Y-86889851D01*
X141821008Y-86723255D01*
X141838072Y-86550001D01*
X141838072Y-86400000D01*
X160661928Y-86400000D01*
X160665000Y-86814250D01*
X160823750Y-86973000D01*
X161773000Y-86973000D01*
X161773000Y-85923750D01*
X161614250Y-85765000D01*
X161300000Y-85761928D01*
X161175518Y-85774188D01*
X161055820Y-85810498D01*
X160945506Y-85869463D01*
X160848815Y-85948815D01*
X160769463Y-86045506D01*
X160710498Y-86155820D01*
X160674188Y-86275518D01*
X160661928Y-86400000D01*
X141838072Y-86400000D01*
X141838072Y-85849999D01*
X141821008Y-85676745D01*
X141770472Y-85510149D01*
X141688405Y-85356613D01*
X141577962Y-85222038D01*
X141551109Y-85200000D01*
X141577962Y-85177962D01*
X141688405Y-85043387D01*
X141770472Y-84889851D01*
X141821008Y-84723255D01*
X141838072Y-84550001D01*
X141838072Y-83849999D01*
X141821008Y-83676745D01*
X141770472Y-83510149D01*
X141688405Y-83356613D01*
X141577962Y-83222038D01*
X141443387Y-83111595D01*
X141289851Y-83029528D01*
X141123255Y-82978992D01*
X140950001Y-82961928D01*
X140049999Y-82961928D01*
X139876745Y-82978992D01*
X139710149Y-83029528D01*
X139556613Y-83111595D01*
X139422038Y-83222038D01*
X139311595Y-83356613D01*
X139229528Y-83510149D01*
X139178992Y-83676745D01*
X139161928Y-83849999D01*
X139161928Y-84070000D01*
X134501620Y-84070000D01*
X134356906Y-84084253D01*
X134249190Y-84116928D01*
X133675000Y-84116928D01*
X133521255Y-84132071D01*
X133373418Y-84176916D01*
X133237171Y-84249742D01*
X133117749Y-84347749D01*
X133019742Y-84467171D01*
X132946916Y-84603418D01*
X132902071Y-84751255D01*
X132886928Y-84905000D01*
X132886928Y-85205000D01*
X132902071Y-85358745D01*
X132946916Y-85506582D01*
X133019742Y-85642829D01*
X133058454Y-85690000D01*
X133019742Y-85737171D01*
X132946916Y-85873418D01*
X132902071Y-86021255D01*
X132886928Y-86175000D01*
X132886928Y-86475000D01*
X132902071Y-86628745D01*
X132946916Y-86776582D01*
X133019742Y-86912829D01*
X133058454Y-86960000D01*
X133019742Y-87007171D01*
X132946916Y-87143418D01*
X132902071Y-87291255D01*
X132886928Y-87445000D01*
X132886928Y-87745000D01*
X132902071Y-87898745D01*
X132946916Y-88046582D01*
X133019742Y-88182829D01*
X133058454Y-88230000D01*
X133019742Y-88277171D01*
X132946916Y-88413418D01*
X132902071Y-88561255D01*
X132886928Y-88715000D01*
X132886928Y-89015000D01*
X132902071Y-89168745D01*
X132946916Y-89316582D01*
X133018730Y-89450936D01*
X132994463Y-89480506D01*
X132935498Y-89590820D01*
X132899188Y-89710518D01*
X132886928Y-89835000D01*
X132890000Y-89849250D01*
X133048750Y-90008000D01*
X134423000Y-90008000D01*
X134423000Y-89988000D01*
X134677000Y-89988000D01*
X134677000Y-90008000D01*
X134697000Y-90008000D01*
X134697000Y-90262000D01*
X134677000Y-90262000D01*
X134677000Y-91278000D01*
X134697000Y-91278000D01*
X134697000Y-91532000D01*
X134677000Y-91532000D01*
X134677000Y-92548000D01*
X134697000Y-92548000D01*
X134697000Y-92802000D01*
X134677000Y-92802000D01*
X134677000Y-93818000D01*
X136051250Y-93818000D01*
X136128750Y-93740500D01*
X136198750Y-93810500D01*
X137273000Y-93810500D01*
X137273000Y-93790500D01*
X137527000Y-93790500D01*
X137527000Y-93810500D01*
X138601250Y-93810500D01*
X138760000Y-93651750D01*
X138763072Y-93350000D01*
X138750812Y-93225518D01*
X138714502Y-93105820D01*
X138655537Y-92995506D01*
X138576185Y-92898815D01*
X138513657Y-92847500D01*
X140820508Y-92847500D01*
X140868888Y-92852265D01*
X140917268Y-92847500D01*
X141061982Y-92833247D01*
X141247655Y-92776924D01*
X141418772Y-92685460D01*
X141568758Y-92562370D01*
X141599603Y-92524785D01*
X142412299Y-91712089D01*
X142449880Y-91681248D01*
X142467175Y-91660175D01*
X143790010Y-92983010D01*
X143790011Y-105077470D01*
X143785750Y-105077500D01*
X143627000Y-105236250D01*
X143627000Y-106173000D01*
X143647000Y-106173000D01*
X143647000Y-106427000D01*
X143627000Y-106427000D01*
X143627000Y-106447000D01*
X143373000Y-106447000D01*
X143373000Y-106427000D01*
X142298750Y-106427000D01*
X142140000Y-106585750D01*
X142136928Y-106887500D01*
X142149188Y-107011982D01*
X142185498Y-107131680D01*
X142244463Y-107241994D01*
X142323815Y-107338685D01*
X142403594Y-107404158D01*
X142397038Y-107409538D01*
X142286595Y-107544114D01*
X142227325Y-107655000D01*
X141592719Y-107655000D01*
X141513405Y-107506614D01*
X141402962Y-107372038D01*
X141396406Y-107366658D01*
X141476185Y-107301185D01*
X141555537Y-107204494D01*
X141614502Y-107094180D01*
X141650812Y-106974482D01*
X141663072Y-106850000D01*
X141660000Y-106548250D01*
X141501250Y-106389500D01*
X140427000Y-106389500D01*
X140427000Y-106409500D01*
X140173000Y-106409500D01*
X140173000Y-106389500D01*
X139098750Y-106389500D01*
X138940000Y-106548250D01*
X138936928Y-106850000D01*
X138949188Y-106974482D01*
X138985498Y-107094180D01*
X139044463Y-107204494D01*
X139123815Y-107301185D01*
X139203594Y-107366658D01*
X139197038Y-107372038D01*
X139086595Y-107506614D01*
X139007281Y-107655000D01*
X136342454Y-107655000D01*
X136205120Y-107449465D01*
X136010535Y-107254880D01*
X135781727Y-107101995D01*
X135710057Y-107072308D01*
X135723023Y-107067636D01*
X135838980Y-107005656D01*
X135905960Y-106765565D01*
X135120000Y-105979605D01*
X134334040Y-106765565D01*
X134401020Y-107005656D01*
X134536760Y-107069485D01*
X134458273Y-107101995D01*
X134229465Y-107254880D01*
X134034880Y-107449465D01*
X133881995Y-107678273D01*
X133776686Y-107932510D01*
X133723000Y-108202408D01*
X133723000Y-108390000D01*
X131205017Y-105872017D01*
X133718090Y-105872017D01*
X133759078Y-106144133D01*
X133852364Y-106403023D01*
X133914344Y-106518980D01*
X134154435Y-106585960D01*
X134940395Y-105800000D01*
X135299605Y-105800000D01*
X136085565Y-106585960D01*
X136325656Y-106518980D01*
X136442756Y-106269952D01*
X136509023Y-106002865D01*
X136521910Y-105727983D01*
X136513930Y-105675000D01*
X138936928Y-105675000D01*
X138940000Y-105976750D01*
X139098750Y-106135500D01*
X140173000Y-106135500D01*
X140173000Y-105198750D01*
X140427000Y-105198750D01*
X140427000Y-106135500D01*
X141501250Y-106135500D01*
X141660000Y-105976750D01*
X141662690Y-105712500D01*
X142136928Y-105712500D01*
X142140000Y-106014250D01*
X142298750Y-106173000D01*
X143373000Y-106173000D01*
X143373000Y-105236250D01*
X143214250Y-105077500D01*
X142775000Y-105074428D01*
X142650518Y-105086688D01*
X142530820Y-105122998D01*
X142420506Y-105181963D01*
X142323815Y-105261315D01*
X142244463Y-105358006D01*
X142185498Y-105468320D01*
X142149188Y-105588018D01*
X142136928Y-105712500D01*
X141662690Y-105712500D01*
X141663072Y-105675000D01*
X141650812Y-105550518D01*
X141614502Y-105430820D01*
X141555537Y-105320506D01*
X141476185Y-105223815D01*
X141379494Y-105144463D01*
X141269180Y-105085498D01*
X141149482Y-105049188D01*
X141025000Y-105036928D01*
X140585750Y-105040000D01*
X140427000Y-105198750D01*
X140173000Y-105198750D01*
X140014250Y-105040000D01*
X139575000Y-105036928D01*
X139450518Y-105049188D01*
X139330820Y-105085498D01*
X139220506Y-105144463D01*
X139123815Y-105223815D01*
X139044463Y-105320506D01*
X138985498Y-105430820D01*
X138949188Y-105550518D01*
X138936928Y-105675000D01*
X136513930Y-105675000D01*
X136480922Y-105455867D01*
X136387636Y-105196977D01*
X136325656Y-105081020D01*
X136085565Y-105014040D01*
X135299605Y-105800000D01*
X134940395Y-105800000D01*
X134154435Y-105014040D01*
X133914344Y-105081020D01*
X133797244Y-105330048D01*
X133730977Y-105597135D01*
X133718090Y-105872017D01*
X131205017Y-105872017D01*
X128455408Y-103122408D01*
X133723000Y-103122408D01*
X133723000Y-103397592D01*
X133776686Y-103667490D01*
X133881995Y-103921727D01*
X134034880Y-104150535D01*
X134229465Y-104345120D01*
X134458273Y-104498005D01*
X134529943Y-104527692D01*
X134516977Y-104532364D01*
X134401020Y-104594344D01*
X134334040Y-104834435D01*
X135120000Y-105620395D01*
X135905960Y-104834435D01*
X135838980Y-104594344D01*
X135703240Y-104530515D01*
X135781727Y-104498005D01*
X136010535Y-104345120D01*
X136205120Y-104150535D01*
X136358005Y-103921727D01*
X136463314Y-103667490D01*
X136517000Y-103397592D01*
X136517000Y-103122408D01*
X136463314Y-102852510D01*
X136358005Y-102598273D01*
X136205120Y-102369465D01*
X136010535Y-102174880D01*
X135781727Y-102021995D01*
X135527490Y-101916686D01*
X135257592Y-101863000D01*
X134982408Y-101863000D01*
X134712510Y-101916686D01*
X134458273Y-102021995D01*
X134229465Y-102174880D01*
X134034880Y-102369465D01*
X133881995Y-102598273D01*
X133776686Y-102852510D01*
X133723000Y-103122408D01*
X128455408Y-103122408D01*
X124218687Y-98885687D01*
X124187841Y-98848101D01*
X124037855Y-98725011D01*
X123866738Y-98633547D01*
X123681065Y-98577224D01*
X123536351Y-98562971D01*
X123487971Y-98558206D01*
X123439591Y-98562971D01*
X116400409Y-98562971D01*
X116352029Y-98558206D01*
X116303649Y-98562971D01*
X116158935Y-98577224D01*
X115973262Y-98633547D01*
X115802145Y-98725011D01*
X115652159Y-98848101D01*
X115621318Y-98885681D01*
X100633944Y-113873056D01*
X100587540Y-113639764D01*
X100494443Y-113415008D01*
X100359287Y-113212733D01*
X100187267Y-113040713D01*
X99984992Y-112905557D01*
X99760236Y-112812460D01*
X99521637Y-112765000D01*
X99278363Y-112765000D01*
X99039764Y-112812460D01*
X98815008Y-112905557D01*
X98651215Y-113015000D01*
X80181293Y-113015000D01*
X80153475Y-112973368D01*
X79946632Y-112766525D01*
X79772240Y-112650000D01*
X79946632Y-112533475D01*
X80095107Y-112385000D01*
X87551215Y-112385000D01*
X87715008Y-112494443D01*
X87939764Y-112587540D01*
X88178363Y-112635000D01*
X88421637Y-112635000D01*
X88660236Y-112587540D01*
X88884992Y-112494443D01*
X89087267Y-112359287D01*
X89259287Y-112187267D01*
X89394443Y-111984992D01*
X89487540Y-111760236D01*
X89535000Y-111521637D01*
X89535000Y-111278363D01*
X89487540Y-111039764D01*
X89394443Y-110815008D01*
X89259287Y-110612733D01*
X89087267Y-110440713D01*
X88884992Y-110305557D01*
X88660236Y-110212460D01*
X88421637Y-110165000D01*
X88178363Y-110165000D01*
X87939764Y-110212460D01*
X87715008Y-110305557D01*
X87551215Y-110415000D01*
X80135107Y-110415000D01*
X79946632Y-110226525D01*
X79764466Y-110104805D01*
X79881355Y-110035178D01*
X80097588Y-109840269D01*
X80271641Y-109606920D01*
X80396825Y-109344099D01*
X80441476Y-109196890D01*
X80320155Y-108967000D01*
X79127000Y-108967000D01*
X79127000Y-108987000D01*
X78873000Y-108987000D01*
X78873000Y-108967000D01*
X78853000Y-108967000D01*
X78853000Y-108713000D01*
X78873000Y-108713000D01*
X78873000Y-108693000D01*
X79127000Y-108693000D01*
X79127000Y-108713000D01*
X80320155Y-108713000D01*
X80441476Y-108483110D01*
X80396825Y-108335901D01*
X80271641Y-108073080D01*
X80097588Y-107839731D01*
X80013534Y-107763966D01*
X80094180Y-107739502D01*
X80204494Y-107680537D01*
X80301185Y-107601185D01*
X80380537Y-107504494D01*
X80439502Y-107394180D01*
X80475812Y-107274482D01*
X80488072Y-107150000D01*
X80488072Y-105450000D01*
X80475812Y-105325518D01*
X80439502Y-105205820D01*
X80380537Y-105095506D01*
X80301185Y-104998815D01*
X80204494Y-104919463D01*
X80094180Y-104860498D01*
X79974482Y-104824188D01*
X79850000Y-104811928D01*
X78150000Y-104811928D01*
X78025518Y-104824188D01*
X77905820Y-104860498D01*
X77795506Y-104919463D01*
X77698815Y-104998815D01*
X77619463Y-105095506D01*
X77560498Y-105205820D01*
X77524188Y-105325518D01*
X77511928Y-105450000D01*
X77511928Y-106395072D01*
X76937710Y-106969290D01*
X76900130Y-107000131D01*
X76777040Y-107150117D01*
X76750377Y-107200000D01*
X76685575Y-107321235D01*
X76660000Y-107405545D01*
X76660000Y-95100000D01*
X83511928Y-95100000D01*
X83524188Y-95224482D01*
X83560498Y-95344180D01*
X83619463Y-95454494D01*
X83698815Y-95551185D01*
X83795506Y-95630537D01*
X83905820Y-95689502D01*
X84025518Y-95725812D01*
X84150000Y-95738072D01*
X85164250Y-95735000D01*
X85323000Y-95576250D01*
X85323000Y-93427000D01*
X85577000Y-93427000D01*
X85577000Y-95576250D01*
X85735750Y-95735000D01*
X86750000Y-95738072D01*
X86874482Y-95725812D01*
X86994180Y-95689502D01*
X87104494Y-95630537D01*
X87201185Y-95551185D01*
X87280537Y-95454494D01*
X87339502Y-95344180D01*
X87375812Y-95224482D01*
X87388072Y-95100000D01*
X87385000Y-93585750D01*
X87226250Y-93427000D01*
X85577000Y-93427000D01*
X85323000Y-93427000D01*
X83673750Y-93427000D01*
X83515000Y-93585750D01*
X83511928Y-95100000D01*
X76660000Y-95100000D01*
X76660000Y-91500000D01*
X83511928Y-91500000D01*
X83515000Y-93014250D01*
X83673750Y-93173000D01*
X85323000Y-93173000D01*
X85323000Y-91023750D01*
X85577000Y-91023750D01*
X85577000Y-93173000D01*
X87226250Y-93173000D01*
X87385000Y-93014250D01*
X87388072Y-91500000D01*
X112811928Y-91500000D01*
X112811928Y-95100000D01*
X112824188Y-95224482D01*
X112860498Y-95344180D01*
X112919463Y-95454494D01*
X112998815Y-95551185D01*
X113095506Y-95630537D01*
X113205820Y-95689502D01*
X113325518Y-95725812D01*
X113450000Y-95738072D01*
X116050000Y-95738072D01*
X116174482Y-95725812D01*
X116294180Y-95689502D01*
X116404494Y-95630537D01*
X116501185Y-95551185D01*
X116580537Y-95454494D01*
X116639502Y-95344180D01*
X116675812Y-95224482D01*
X116688072Y-95100000D01*
X116688072Y-94245000D01*
X123586928Y-94245000D01*
X123599188Y-94369482D01*
X123635498Y-94489180D01*
X123694463Y-94599494D01*
X123773815Y-94696185D01*
X123870506Y-94775537D01*
X123980820Y-94834502D01*
X124100518Y-94870812D01*
X124225000Y-94883072D01*
X124964250Y-94880000D01*
X125123000Y-94721250D01*
X125123000Y-94072000D01*
X125377000Y-94072000D01*
X125377000Y-94721250D01*
X125535750Y-94880000D01*
X126275000Y-94883072D01*
X126399482Y-94870812D01*
X126519180Y-94834502D01*
X126629494Y-94775537D01*
X126726185Y-94696185D01*
X126805537Y-94599494D01*
X126864502Y-94489180D01*
X126900812Y-94369482D01*
X126913072Y-94245000D01*
X132886928Y-94245000D01*
X132899188Y-94369482D01*
X132935498Y-94489180D01*
X132994463Y-94599494D01*
X133073815Y-94696185D01*
X133170506Y-94775537D01*
X133280820Y-94834502D01*
X133400518Y-94870812D01*
X133525000Y-94883072D01*
X134264250Y-94880000D01*
X134423000Y-94721250D01*
X134423000Y-94072000D01*
X134677000Y-94072000D01*
X134677000Y-94721250D01*
X134835750Y-94880000D01*
X135575000Y-94883072D01*
X135699482Y-94870812D01*
X135819180Y-94834502D01*
X135929494Y-94775537D01*
X136026185Y-94696185D01*
X136053324Y-94663116D01*
X136085498Y-94769180D01*
X136144463Y-94879494D01*
X136223815Y-94976185D01*
X136320506Y-95055537D01*
X136430820Y-95114502D01*
X136550518Y-95150812D01*
X136675000Y-95163072D01*
X137114250Y-95160000D01*
X137273000Y-95001250D01*
X137273000Y-94064500D01*
X137527000Y-94064500D01*
X137527000Y-95001250D01*
X137685750Y-95160000D01*
X138125000Y-95163072D01*
X138249482Y-95150812D01*
X138369180Y-95114502D01*
X138479494Y-95055537D01*
X138576185Y-94976185D01*
X138655537Y-94879494D01*
X138714502Y-94769180D01*
X138750812Y-94649482D01*
X138763072Y-94525000D01*
X138760000Y-94223250D01*
X138601250Y-94064500D01*
X137527000Y-94064500D01*
X137273000Y-94064500D01*
X136198750Y-94064500D01*
X136121250Y-94142000D01*
X136051250Y-94072000D01*
X134677000Y-94072000D01*
X134423000Y-94072000D01*
X133048750Y-94072000D01*
X132890000Y-94230750D01*
X132886928Y-94245000D01*
X126913072Y-94245000D01*
X126910000Y-94230750D01*
X126751250Y-94072000D01*
X125377000Y-94072000D01*
X125123000Y-94072000D01*
X123748750Y-94072000D01*
X123590000Y-94230750D01*
X123586928Y-94245000D01*
X116688072Y-94245000D01*
X116688072Y-92975000D01*
X123586928Y-92975000D01*
X123599188Y-93099482D01*
X123635498Y-93219180D01*
X123684043Y-93310000D01*
X123635498Y-93400820D01*
X123599188Y-93520518D01*
X123586928Y-93645000D01*
X123590000Y-93659250D01*
X123748750Y-93818000D01*
X125123000Y-93818000D01*
X125123000Y-92802000D01*
X125377000Y-92802000D01*
X125377000Y-93818000D01*
X126751250Y-93818000D01*
X126910000Y-93659250D01*
X126913072Y-93645000D01*
X126900812Y-93520518D01*
X126864502Y-93400820D01*
X126815957Y-93310000D01*
X126864502Y-93219180D01*
X126900812Y-93099482D01*
X126913072Y-92975000D01*
X132886928Y-92975000D01*
X132899188Y-93099482D01*
X132935498Y-93219180D01*
X132984043Y-93310000D01*
X132935498Y-93400820D01*
X132899188Y-93520518D01*
X132886928Y-93645000D01*
X132890000Y-93659250D01*
X133048750Y-93818000D01*
X134423000Y-93818000D01*
X134423000Y-92802000D01*
X133048750Y-92802000D01*
X132890000Y-92960750D01*
X132886928Y-92975000D01*
X126913072Y-92975000D01*
X126910000Y-92960750D01*
X126751250Y-92802000D01*
X125377000Y-92802000D01*
X125123000Y-92802000D01*
X123748750Y-92802000D01*
X123590000Y-92960750D01*
X123586928Y-92975000D01*
X116688072Y-92975000D01*
X116688072Y-92754928D01*
X117738000Y-91705000D01*
X123586928Y-91705000D01*
X123599188Y-91829482D01*
X123635498Y-91949180D01*
X123684043Y-92040000D01*
X123635498Y-92130820D01*
X123599188Y-92250518D01*
X123586928Y-92375000D01*
X123590000Y-92389250D01*
X123748750Y-92548000D01*
X125123000Y-92548000D01*
X125123000Y-91532000D01*
X125377000Y-91532000D01*
X125377000Y-92548000D01*
X126751250Y-92548000D01*
X126910000Y-92389250D01*
X126913072Y-92375000D01*
X126900812Y-92250518D01*
X126864502Y-92130820D01*
X126815957Y-92040000D01*
X126864502Y-91949180D01*
X126900812Y-91829482D01*
X126913072Y-91705000D01*
X132886928Y-91705000D01*
X132899188Y-91829482D01*
X132935498Y-91949180D01*
X132984043Y-92040000D01*
X132935498Y-92130820D01*
X132899188Y-92250518D01*
X132886928Y-92375000D01*
X132890000Y-92389250D01*
X133048750Y-92548000D01*
X134423000Y-92548000D01*
X134423000Y-91532000D01*
X133048750Y-91532000D01*
X132890000Y-91690750D01*
X132886928Y-91705000D01*
X126913072Y-91705000D01*
X126910000Y-91690750D01*
X126751250Y-91532000D01*
X125377000Y-91532000D01*
X125123000Y-91532000D01*
X123748750Y-91532000D01*
X123590000Y-91690750D01*
X123586928Y-91705000D01*
X117738000Y-91705000D01*
X119008000Y-90435000D01*
X123586928Y-90435000D01*
X123599188Y-90559482D01*
X123635498Y-90679180D01*
X123684043Y-90770000D01*
X123635498Y-90860820D01*
X123599188Y-90980518D01*
X123586928Y-91105000D01*
X123590000Y-91119250D01*
X123748750Y-91278000D01*
X125123000Y-91278000D01*
X125123000Y-90262000D01*
X125377000Y-90262000D01*
X125377000Y-91278000D01*
X126751250Y-91278000D01*
X126910000Y-91119250D01*
X126913072Y-91105000D01*
X126900812Y-90980518D01*
X126864502Y-90860820D01*
X126815957Y-90770000D01*
X126864502Y-90679180D01*
X126900812Y-90559482D01*
X126913072Y-90435000D01*
X132886928Y-90435000D01*
X132899188Y-90559482D01*
X132935498Y-90679180D01*
X132984043Y-90770000D01*
X132935498Y-90860820D01*
X132899188Y-90980518D01*
X132886928Y-91105000D01*
X132890000Y-91119250D01*
X133048750Y-91278000D01*
X134423000Y-91278000D01*
X134423000Y-90262000D01*
X133048750Y-90262000D01*
X132890000Y-90420750D01*
X132886928Y-90435000D01*
X126913072Y-90435000D01*
X126910000Y-90420750D01*
X126751250Y-90262000D01*
X125377000Y-90262000D01*
X125123000Y-90262000D01*
X123748750Y-90262000D01*
X123590000Y-90420750D01*
X123586928Y-90435000D01*
X119008000Y-90435000D01*
X120278000Y-89165000D01*
X123586928Y-89165000D01*
X123599188Y-89289482D01*
X123635498Y-89409180D01*
X123684043Y-89500000D01*
X123635498Y-89590820D01*
X123599188Y-89710518D01*
X123586928Y-89835000D01*
X123590000Y-89849250D01*
X123748750Y-90008000D01*
X125123000Y-90008000D01*
X125123000Y-88992000D01*
X125377000Y-88992000D01*
X125377000Y-90008000D01*
X126751250Y-90008000D01*
X126910000Y-89849250D01*
X126913072Y-89835000D01*
X126900812Y-89710518D01*
X126864502Y-89590820D01*
X126815957Y-89500000D01*
X126864502Y-89409180D01*
X126900812Y-89289482D01*
X126913072Y-89165000D01*
X126910000Y-89150750D01*
X126751250Y-88992000D01*
X125377000Y-88992000D01*
X125123000Y-88992000D01*
X123748750Y-88992000D01*
X123590000Y-89150750D01*
X123586928Y-89165000D01*
X120278000Y-89165000D01*
X120863000Y-88580000D01*
X123590750Y-88580000D01*
X123748750Y-88738000D01*
X125123000Y-88738000D01*
X125123000Y-88718000D01*
X125377000Y-88718000D01*
X125377000Y-88738000D01*
X126751250Y-88738000D01*
X126910000Y-88579250D01*
X126913072Y-88565000D01*
X126900812Y-88440518D01*
X126864502Y-88320820D01*
X126805537Y-88210506D01*
X126781270Y-88180936D01*
X126853084Y-88046582D01*
X126897929Y-87898745D01*
X126913072Y-87745000D01*
X126913072Y-87445000D01*
X126897929Y-87291255D01*
X126853084Y-87143418D01*
X126780258Y-87007171D01*
X126741546Y-86960000D01*
X126780258Y-86912829D01*
X126853084Y-86776582D01*
X126897929Y-86628745D01*
X126913072Y-86475000D01*
X126913072Y-86175000D01*
X126897929Y-86021255D01*
X126853084Y-85873418D01*
X126780258Y-85737171D01*
X126741546Y-85690000D01*
X126780258Y-85642829D01*
X126853084Y-85506582D01*
X126897929Y-85358745D01*
X126913072Y-85205000D01*
X126913072Y-84905000D01*
X126897929Y-84751255D01*
X126853084Y-84603418D01*
X126780258Y-84467171D01*
X126682251Y-84347749D01*
X126562829Y-84249742D01*
X126426582Y-84176916D01*
X126278745Y-84132071D01*
X126125000Y-84116928D01*
X125550809Y-84116928D01*
X125443094Y-84084253D01*
X125250000Y-84065235D01*
X125056907Y-84084253D01*
X124955547Y-84115000D01*
X119348785Y-84115000D01*
X119184992Y-84005557D01*
X118960236Y-83912460D01*
X118721637Y-83865000D01*
X118478363Y-83865000D01*
X118239764Y-83912460D01*
X118015008Y-84005557D01*
X117812733Y-84140713D01*
X117640713Y-84312733D01*
X117505557Y-84515008D01*
X117412460Y-84739764D01*
X117365000Y-84978363D01*
X117365000Y-85221637D01*
X117412460Y-85460236D01*
X117505557Y-85684992D01*
X117640713Y-85887267D01*
X117812733Y-86059287D01*
X117981435Y-86172011D01*
X117840713Y-86312733D01*
X117705557Y-86515008D01*
X117612460Y-86739764D01*
X117565000Y-86978363D01*
X117565000Y-87221637D01*
X117612460Y-87460236D01*
X117705557Y-87684992D01*
X117840713Y-87887267D01*
X118012733Y-88059287D01*
X118215008Y-88194443D01*
X118390052Y-88266948D01*
X115795072Y-90861928D01*
X113450000Y-90861928D01*
X113325518Y-90874188D01*
X113205820Y-90910498D01*
X113095506Y-90969463D01*
X112998815Y-91048815D01*
X112919463Y-91145506D01*
X112860498Y-91255820D01*
X112824188Y-91375518D01*
X112811928Y-91500000D01*
X87388072Y-91500000D01*
X87375812Y-91375518D01*
X87339502Y-91255820D01*
X87280537Y-91145506D01*
X87201185Y-91048815D01*
X87104494Y-90969463D01*
X86994180Y-90910498D01*
X86874482Y-90874188D01*
X86750000Y-90861928D01*
X85735750Y-90865000D01*
X85577000Y-91023750D01*
X85323000Y-91023750D01*
X85164250Y-90865000D01*
X84150000Y-90861928D01*
X84025518Y-90874188D01*
X83905820Y-90910498D01*
X83795506Y-90969463D01*
X83698815Y-91048815D01*
X83619463Y-91145506D01*
X83560498Y-91255820D01*
X83524188Y-91375518D01*
X83511928Y-91500000D01*
X76660000Y-91500000D01*
X76660000Y-79032279D01*
X76682334Y-78804495D01*
X77015000Y-78804495D01*
X77015000Y-79195505D01*
X77091282Y-79579003D01*
X77240915Y-79940250D01*
X77458149Y-80265364D01*
X77734636Y-80541851D01*
X78059750Y-80759085D01*
X78420997Y-80908718D01*
X78804495Y-80985000D01*
X79195505Y-80985000D01*
X79579003Y-80908718D01*
X79940250Y-80759085D01*
X80265364Y-80541851D01*
X80541851Y-80265364D01*
X80759085Y-79940250D01*
X80908718Y-79579003D01*
X80985000Y-79195505D01*
X80985000Y-78804495D01*
X174015000Y-78804495D01*
X174015000Y-79195505D01*
X174091282Y-79579003D01*
X174240915Y-79940250D01*
X174458149Y-80265364D01*
X174734636Y-80541851D01*
X175059750Y-80759085D01*
X175420997Y-80908718D01*
X175804495Y-80985000D01*
X176195505Y-80985000D01*
X176579003Y-80908718D01*
X176940250Y-80759085D01*
X177265364Y-80541851D01*
X177541851Y-80265364D01*
X177759085Y-79940250D01*
X177908718Y-79579003D01*
X177985000Y-79195505D01*
X177985000Y-78804495D01*
X177908718Y-78420997D01*
X177759085Y-78059750D01*
X177541851Y-77734636D01*
X177265364Y-77458149D01*
X176940250Y-77240915D01*
X176579003Y-77091282D01*
X176195505Y-77015000D01*
X175804495Y-77015000D01*
X175420997Y-77091282D01*
X175059750Y-77240915D01*
X174734636Y-77458149D01*
X174458149Y-77734636D01*
X174240915Y-78059750D01*
X174091282Y-78420997D01*
X174015000Y-78804495D01*
X80985000Y-78804495D01*
X80908718Y-78420997D01*
X80759085Y-78059750D01*
X80541851Y-77734636D01*
X80265364Y-77458149D01*
X79940250Y-77240915D01*
X79579003Y-77091282D01*
X79195505Y-77015000D01*
X78804495Y-77015000D01*
X78420997Y-77091282D01*
X78059750Y-77240915D01*
X77734636Y-77458149D01*
X77458149Y-77734636D01*
X77240915Y-78059750D01*
X77091282Y-78420997D01*
X77015000Y-78804495D01*
X76682334Y-78804495D01*
X76707670Y-78546107D01*
X76839489Y-78109502D01*
X77053600Y-77706815D01*
X77341848Y-77353388D01*
X77693261Y-77062673D01*
X78094439Y-76845758D01*
X78530113Y-76710894D01*
X79014344Y-76660000D01*
X175967721Y-76660000D01*
X176453893Y-76707670D01*
%TA.AperFunction,Conductor*%
D23*
G36*
X176453893Y-76707670D02*
G01*
X176890498Y-76839489D01*
X177293185Y-77053600D01*
X177646612Y-77341848D01*
X177937327Y-77693261D01*
X178154242Y-78094439D01*
X178289106Y-78530113D01*
X178340000Y-79014344D01*
X178340000Y-88359954D01*
X178249871Y-88250131D01*
X178212285Y-88219285D01*
X177621567Y-87628567D01*
X177635000Y-87561033D01*
X177635000Y-87238967D01*
X177572168Y-86923088D01*
X177448918Y-86625537D01*
X177269987Y-86357748D01*
X177042252Y-86130013D01*
X176774463Y-85951082D01*
X176476912Y-85827832D01*
X176161033Y-85765000D01*
X175838967Y-85765000D01*
X175523088Y-85827832D01*
X175225537Y-85951082D01*
X174957748Y-86130013D01*
X174730013Y-86357748D01*
X174691758Y-86415000D01*
X170808242Y-86415000D01*
X170769987Y-86357748D01*
X170542252Y-86130013D01*
X170274463Y-85951082D01*
X169976912Y-85827832D01*
X169661033Y-85765000D01*
X169338967Y-85765000D01*
X169023088Y-85827832D01*
X168725537Y-85951082D01*
X168457748Y-86130013D01*
X168230013Y-86357748D01*
X168051082Y-86625537D01*
X167927832Y-86923088D01*
X167865000Y-87238967D01*
X167865000Y-87561033D01*
X167927832Y-87876912D01*
X168051082Y-88174463D01*
X168230013Y-88442252D01*
X168457748Y-88669987D01*
X168725537Y-88848918D01*
X169023088Y-88972168D01*
X169338967Y-89035000D01*
X169661033Y-89035000D01*
X169976912Y-88972168D01*
X170274463Y-88848918D01*
X170542252Y-88669987D01*
X170769987Y-88442252D01*
X170808242Y-88385000D01*
X174691758Y-88385000D01*
X174730013Y-88442252D01*
X174957748Y-88669987D01*
X175225537Y-88848918D01*
X175523088Y-88972168D01*
X175838967Y-89035000D01*
X176161033Y-89035000D01*
X176228567Y-89021567D01*
X176565002Y-89358002D01*
X176565002Y-90364320D01*
X176476912Y-90327832D01*
X176161033Y-90265000D01*
X175838967Y-90265000D01*
X175523088Y-90327832D01*
X175225537Y-90451082D01*
X174957748Y-90630013D01*
X174730013Y-90857748D01*
X174691758Y-90915000D01*
X170808242Y-90915000D01*
X170769987Y-90857748D01*
X170542252Y-90630013D01*
X170274463Y-90451082D01*
X169976912Y-90327832D01*
X169661033Y-90265000D01*
X169338967Y-90265000D01*
X169023088Y-90327832D01*
X168725537Y-90451082D01*
X168457748Y-90630013D01*
X168230013Y-90857748D01*
X168191758Y-90915000D01*
X166348380Y-90915000D01*
X166300000Y-90910235D01*
X166251620Y-90915000D01*
X164999770Y-90915000D01*
X164922500Y-90820845D01*
X164922500Y-88123692D01*
X164988405Y-88043387D01*
X165070472Y-87889851D01*
X165121008Y-87723255D01*
X165138072Y-87550001D01*
X165138072Y-86649999D01*
X165121008Y-86476745D01*
X165070472Y-86310149D01*
X164988405Y-86156613D01*
X164877962Y-86022038D01*
X164743387Y-85911595D01*
X164589851Y-85829528D01*
X164423255Y-85778992D01*
X164250001Y-85761928D01*
X163549999Y-85761928D01*
X163376745Y-85778992D01*
X163210149Y-85829528D01*
X163056613Y-85911595D01*
X162975363Y-85978276D01*
X162951185Y-85948815D01*
X162854494Y-85869463D01*
X162744180Y-85810498D01*
X162624482Y-85774188D01*
X162500000Y-85761928D01*
X162185750Y-85765000D01*
X162027000Y-85923750D01*
X162027000Y-86973000D01*
X162047000Y-86973000D01*
X162047000Y-87227000D01*
X162027000Y-87227000D01*
X162027000Y-88276250D01*
X162185750Y-88435000D01*
X162500000Y-88438072D01*
X162624482Y-88425812D01*
X162744180Y-88389502D01*
X162854494Y-88330537D01*
X162951185Y-88251185D01*
X162952501Y-88249582D01*
X162952500Y-90786343D01*
X162901185Y-90723815D01*
X162804494Y-90644463D01*
X162694180Y-90585498D01*
X162574482Y-90549188D01*
X162450000Y-90536928D01*
X162148250Y-90540000D01*
X161989500Y-90698750D01*
X161989500Y-91773000D01*
X162009500Y-91773000D01*
X162009500Y-92027000D01*
X161989500Y-92027000D01*
X161989500Y-93101250D01*
X162148250Y-93260000D01*
X162450000Y-93263072D01*
X162574482Y-93250812D01*
X162694180Y-93214502D01*
X162804494Y-93155537D01*
X162901185Y-93076185D01*
X162966658Y-92996406D01*
X162972038Y-93002962D01*
X163106614Y-93113405D01*
X163260150Y-93195472D01*
X163426746Y-93246008D01*
X163600000Y-93263072D01*
X164275000Y-93263072D01*
X164448254Y-93246008D01*
X164614850Y-93195472D01*
X164768386Y-93113405D01*
X164902962Y-93002962D01*
X164999770Y-92885000D01*
X165225608Y-92885000D01*
X165205557Y-92915008D01*
X165112460Y-93139764D01*
X165065000Y-93378363D01*
X165065000Y-93621637D01*
X165112460Y-93860236D01*
X165205557Y-94084992D01*
X165340713Y-94287267D01*
X165512733Y-94459287D01*
X165715008Y-94594443D01*
X165939764Y-94687540D01*
X166178363Y-94735000D01*
X166421637Y-94735000D01*
X166660236Y-94687540D01*
X166884992Y-94594443D01*
X167087267Y-94459287D01*
X167259287Y-94287267D01*
X167394443Y-94084992D01*
X167487540Y-93860236D01*
X167535000Y-93621637D01*
X167535000Y-93378363D01*
X167487540Y-93139764D01*
X167394443Y-92915008D01*
X167374392Y-92885000D01*
X168191758Y-92885000D01*
X168230013Y-92942252D01*
X168457748Y-93169987D01*
X168725537Y-93348918D01*
X169023088Y-93472168D01*
X169338967Y-93535000D01*
X169661033Y-93535000D01*
X169976912Y-93472168D01*
X170274463Y-93348918D01*
X170542252Y-93169987D01*
X170769987Y-92942252D01*
X170808242Y-92885000D01*
X174691758Y-92885000D01*
X174730013Y-92942252D01*
X174957748Y-93169987D01*
X175225537Y-93348918D01*
X175523088Y-93472168D01*
X175838967Y-93535000D01*
X176161033Y-93535000D01*
X176476912Y-93472168D01*
X176565001Y-93435680D01*
X176565001Y-93964320D01*
X176476912Y-93927832D01*
X176161033Y-93865000D01*
X175838967Y-93865000D01*
X175523088Y-93927832D01*
X175225537Y-94051082D01*
X174957748Y-94230013D01*
X174730013Y-94457748D01*
X174691758Y-94515000D01*
X170808242Y-94515000D01*
X170769987Y-94457748D01*
X170542252Y-94230013D01*
X170274463Y-94051082D01*
X169976912Y-93927832D01*
X169661033Y-93865000D01*
X169338967Y-93865000D01*
X169023088Y-93927832D01*
X168725537Y-94051082D01*
X168457748Y-94230013D01*
X168230013Y-94457748D01*
X168051082Y-94725537D01*
X167927832Y-95023088D01*
X167865000Y-95338967D01*
X167865000Y-95661033D01*
X167927832Y-95976912D01*
X168051082Y-96274463D01*
X168230013Y-96542252D01*
X168457748Y-96769987D01*
X168725537Y-96948918D01*
X169023088Y-97072168D01*
X169338967Y-97135000D01*
X169661033Y-97135000D01*
X169976912Y-97072168D01*
X170274463Y-96948918D01*
X170542252Y-96769987D01*
X170769987Y-96542252D01*
X170808242Y-96485000D01*
X174691758Y-96485000D01*
X174730013Y-96542252D01*
X174957748Y-96769987D01*
X175225537Y-96948918D01*
X175523088Y-97072168D01*
X175838967Y-97135000D01*
X176161033Y-97135000D01*
X176228567Y-97121567D01*
X176565002Y-97458002D01*
X176565002Y-98464320D01*
X176476912Y-98427832D01*
X176161033Y-98365000D01*
X175838967Y-98365000D01*
X175523088Y-98427832D01*
X175225537Y-98551082D01*
X174957748Y-98730013D01*
X174730013Y-98957748D01*
X174691758Y-99015000D01*
X170808242Y-99015000D01*
X170769987Y-98957748D01*
X170542252Y-98730013D01*
X170274463Y-98551082D01*
X169976912Y-98427832D01*
X169661033Y-98365000D01*
X169338967Y-98365000D01*
X169023088Y-98427832D01*
X168725537Y-98551082D01*
X168457748Y-98730013D01*
X168230013Y-98957748D01*
X168191758Y-99015000D01*
X166248380Y-99015000D01*
X166200000Y-99010235D01*
X166151620Y-99015000D01*
X164999770Y-99015000D01*
X164922500Y-98920845D01*
X164922500Y-96523692D01*
X164988405Y-96443387D01*
X165070472Y-96289851D01*
X165121008Y-96123255D01*
X165138072Y-95950001D01*
X165138072Y-95049999D01*
X165121008Y-94876745D01*
X165070472Y-94710149D01*
X164988405Y-94556613D01*
X164877962Y-94422038D01*
X164743387Y-94311595D01*
X164589851Y-94229528D01*
X164423255Y-94178992D01*
X164250001Y-94161928D01*
X163549999Y-94161928D01*
X163376745Y-94178992D01*
X163210149Y-94229528D01*
X163056613Y-94311595D01*
X162975363Y-94378276D01*
X162951185Y-94348815D01*
X162854494Y-94269463D01*
X162744180Y-94210498D01*
X162624482Y-94174188D01*
X162500000Y-94161928D01*
X162185750Y-94165000D01*
X162027000Y-94323750D01*
X162027000Y-95373000D01*
X162047000Y-95373000D01*
X162047000Y-95627000D01*
X162027000Y-95627000D01*
X162027000Y-96676250D01*
X162185750Y-96835000D01*
X162500000Y-96838072D01*
X162624482Y-96825812D01*
X162744180Y-96789502D01*
X162854494Y-96730537D01*
X162951185Y-96651185D01*
X162952501Y-96649582D01*
X162952500Y-98886343D01*
X162901185Y-98823815D01*
X162804494Y-98744463D01*
X162694180Y-98685498D01*
X162574482Y-98649188D01*
X162450000Y-98636928D01*
X162148250Y-98640000D01*
X161989500Y-98798750D01*
X161989500Y-99873000D01*
X162009500Y-99873000D01*
X162009500Y-100127000D01*
X161989500Y-100127000D01*
X161989500Y-101201250D01*
X162148250Y-101360000D01*
X162450000Y-101363072D01*
X162574482Y-101350812D01*
X162694180Y-101314502D01*
X162804494Y-101255537D01*
X162901185Y-101176185D01*
X162966658Y-101096406D01*
X162972038Y-101102962D01*
X163106614Y-101213405D01*
X163260150Y-101295472D01*
X163426746Y-101346008D01*
X163600000Y-101363072D01*
X164275000Y-101363072D01*
X164448254Y-101346008D01*
X164614850Y-101295472D01*
X164768386Y-101213405D01*
X164902962Y-101102962D01*
X164999770Y-100985000D01*
X165192426Y-100985000D01*
X165105557Y-101115008D01*
X165012460Y-101339764D01*
X164965000Y-101578363D01*
X164965000Y-101821637D01*
X165012460Y-102060236D01*
X165105557Y-102284992D01*
X165240713Y-102487267D01*
X165412733Y-102659287D01*
X165615008Y-102794443D01*
X165839764Y-102887540D01*
X166078363Y-102935000D01*
X166321637Y-102935000D01*
X166560236Y-102887540D01*
X166784992Y-102794443D01*
X166987267Y-102659287D01*
X167159287Y-102487267D01*
X167294443Y-102284992D01*
X167387540Y-102060236D01*
X167435000Y-101821637D01*
X167435000Y-101578363D01*
X167387540Y-101339764D01*
X167294443Y-101115008D01*
X167207574Y-100985000D01*
X168191758Y-100985000D01*
X168230013Y-101042252D01*
X168457748Y-101269987D01*
X168725537Y-101448918D01*
X169023088Y-101572168D01*
X169338967Y-101635000D01*
X169661033Y-101635000D01*
X169976912Y-101572168D01*
X170274463Y-101448918D01*
X170542252Y-101269987D01*
X170769987Y-101042252D01*
X170808242Y-100985000D01*
X174691758Y-100985000D01*
X174730013Y-101042252D01*
X174957748Y-101269987D01*
X175225537Y-101448918D01*
X175523088Y-101572168D01*
X175838967Y-101635000D01*
X176161033Y-101635000D01*
X176476912Y-101572168D01*
X176565001Y-101535680D01*
X176565001Y-104264990D01*
X170498389Y-104264990D01*
X170450009Y-104260225D01*
X170256916Y-104279243D01*
X170071243Y-104335566D01*
X169900126Y-104427030D01*
X169750140Y-104550120D01*
X169719294Y-104587706D01*
X169145072Y-105161928D01*
X168849999Y-105161928D01*
X168676745Y-105178992D01*
X168510149Y-105229528D01*
X168356613Y-105311595D01*
X168222038Y-105422038D01*
X168111595Y-105556613D01*
X168029528Y-105710149D01*
X167978992Y-105876745D01*
X167961928Y-106049999D01*
X167961928Y-106345072D01*
X167854490Y-106452510D01*
X154938072Y-106452510D01*
X154938072Y-105300000D01*
X154925812Y-105175518D01*
X154889502Y-105055820D01*
X154830537Y-104945506D01*
X154751185Y-104848815D01*
X154654494Y-104769463D01*
X154544180Y-104710498D01*
X154424482Y-104674188D01*
X154300000Y-104661928D01*
X153600809Y-104661928D01*
X153493093Y-104629253D01*
X153300000Y-104610235D01*
X153106906Y-104629253D01*
X152999190Y-104661928D01*
X152300000Y-104661928D01*
X152175518Y-104674188D01*
X152055820Y-104710498D01*
X151945506Y-104769463D01*
X151848815Y-104848815D01*
X151769463Y-104945506D01*
X151710498Y-105055820D01*
X151674188Y-105175518D01*
X151661928Y-105300000D01*
X151661928Y-106452510D01*
X145760010Y-106452510D01*
X145760010Y-100725000D01*
X160636928Y-100725000D01*
X160649188Y-100849482D01*
X160685498Y-100969180D01*
X160744463Y-101079494D01*
X160823815Y-101176185D01*
X160920506Y-101255537D01*
X161030820Y-101314502D01*
X161150518Y-101350812D01*
X161275000Y-101363072D01*
X161576750Y-101360000D01*
X161735500Y-101201250D01*
X161735500Y-100127000D01*
X160798750Y-100127000D01*
X160640000Y-100285750D01*
X160636928Y-100725000D01*
X145760010Y-100725000D01*
X145760010Y-99275000D01*
X160636928Y-99275000D01*
X160640000Y-99714250D01*
X160798750Y-99873000D01*
X161735500Y-99873000D01*
X161735500Y-98798750D01*
X161576750Y-98640000D01*
X161275000Y-98636928D01*
X161150518Y-98649188D01*
X161030820Y-98685498D01*
X160920506Y-98744463D01*
X160823815Y-98823815D01*
X160744463Y-98920506D01*
X160685498Y-99030820D01*
X160649188Y-99150518D01*
X160636928Y-99275000D01*
X145760010Y-99275000D01*
X145760010Y-96200000D01*
X160661928Y-96200000D01*
X160674188Y-96324482D01*
X160710498Y-96444180D01*
X160769463Y-96554494D01*
X160848815Y-96651185D01*
X160945506Y-96730537D01*
X161055820Y-96789502D01*
X161175518Y-96825812D01*
X161300000Y-96838072D01*
X161614250Y-96835000D01*
X161773000Y-96676250D01*
X161773000Y-95627000D01*
X160823750Y-95627000D01*
X160665000Y-95785750D01*
X160661928Y-96200000D01*
X145760010Y-96200000D01*
X145760010Y-94800000D01*
X160661928Y-94800000D01*
X160665000Y-95214250D01*
X160823750Y-95373000D01*
X161773000Y-95373000D01*
X161773000Y-94323750D01*
X161614250Y-94165000D01*
X161300000Y-94161928D01*
X161175518Y-94174188D01*
X161055820Y-94210498D01*
X160945506Y-94269463D01*
X160848815Y-94348815D01*
X160769463Y-94445506D01*
X160710498Y-94555820D01*
X160674188Y-94675518D01*
X160661928Y-94800000D01*
X145760010Y-94800000D01*
X145760010Y-92625000D01*
X160636928Y-92625000D01*
X160649188Y-92749482D01*
X160685498Y-92869180D01*
X160744463Y-92979494D01*
X160823815Y-93076185D01*
X160920506Y-93155537D01*
X161030820Y-93214502D01*
X161150518Y-93250812D01*
X161275000Y-93263072D01*
X161576750Y-93260000D01*
X161735500Y-93101250D01*
X161735500Y-92027000D01*
X160798750Y-92027000D01*
X160640000Y-92185750D01*
X160636928Y-92625000D01*
X145760010Y-92625000D01*
X145760010Y-92623389D01*
X145764775Y-92575009D01*
X145745757Y-92381916D01*
X145689434Y-92196243D01*
X145681420Y-92181250D01*
X145597970Y-92025126D01*
X145474880Y-91875140D01*
X145437294Y-91844294D01*
X144768000Y-91175000D01*
X160636928Y-91175000D01*
X160640000Y-91614250D01*
X160798750Y-91773000D01*
X161735500Y-91773000D01*
X161735500Y-90698750D01*
X161576750Y-90540000D01*
X161275000Y-90536928D01*
X161150518Y-90549188D01*
X161030820Y-90585498D01*
X160920506Y-90644463D01*
X160823815Y-90723815D01*
X160744463Y-90820506D01*
X160685498Y-90930820D01*
X160649188Y-91050518D01*
X160636928Y-91175000D01*
X144768000Y-91175000D01*
X142480726Y-88887726D01*
X142449880Y-88850140D01*
X142412294Y-88819294D01*
X141838072Y-88245072D01*
X141838072Y-87949999D01*
X141823299Y-87800000D01*
X160661928Y-87800000D01*
X160674188Y-87924482D01*
X160710498Y-88044180D01*
X160769463Y-88154494D01*
X160848815Y-88251185D01*
X160945506Y-88330537D01*
X161055820Y-88389502D01*
X161175518Y-88425812D01*
X161300000Y-88438072D01*
X161614250Y-88435000D01*
X161773000Y-88276250D01*
X161773000Y-87227000D01*
X160823750Y-87227000D01*
X160665000Y-87385750D01*
X160661928Y-87800000D01*
X141823299Y-87800000D01*
X141821008Y-87776745D01*
X141770472Y-87610149D01*
X141688405Y-87456613D01*
X141577962Y-87322038D01*
X141490184Y-87250000D01*
X141577962Y-87177962D01*
X141688405Y-87043387D01*
X141770472Y-86889851D01*
X141821008Y-86723255D01*
X141838072Y-86550001D01*
X141838072Y-86400000D01*
X160661928Y-86400000D01*
X160665000Y-86814250D01*
X160823750Y-86973000D01*
X161773000Y-86973000D01*
X161773000Y-85923750D01*
X161614250Y-85765000D01*
X161300000Y-85761928D01*
X161175518Y-85774188D01*
X161055820Y-85810498D01*
X160945506Y-85869463D01*
X160848815Y-85948815D01*
X160769463Y-86045506D01*
X160710498Y-86155820D01*
X160674188Y-86275518D01*
X160661928Y-86400000D01*
X141838072Y-86400000D01*
X141838072Y-85849999D01*
X141821008Y-85676745D01*
X141770472Y-85510149D01*
X141688405Y-85356613D01*
X141577962Y-85222038D01*
X141551109Y-85200000D01*
X141577962Y-85177962D01*
X141688405Y-85043387D01*
X141770472Y-84889851D01*
X141821008Y-84723255D01*
X141838072Y-84550001D01*
X141838072Y-83849999D01*
X141821008Y-83676745D01*
X141770472Y-83510149D01*
X141688405Y-83356613D01*
X141577962Y-83222038D01*
X141443387Y-83111595D01*
X141289851Y-83029528D01*
X141123255Y-82978992D01*
X140950001Y-82961928D01*
X140049999Y-82961928D01*
X139876745Y-82978992D01*
X139710149Y-83029528D01*
X139556613Y-83111595D01*
X139422038Y-83222038D01*
X139311595Y-83356613D01*
X139229528Y-83510149D01*
X139178992Y-83676745D01*
X139161928Y-83849999D01*
X139161928Y-84070000D01*
X134501620Y-84070000D01*
X134356906Y-84084253D01*
X134249190Y-84116928D01*
X133675000Y-84116928D01*
X133521255Y-84132071D01*
X133373418Y-84176916D01*
X133237171Y-84249742D01*
X133117749Y-84347749D01*
X133019742Y-84467171D01*
X132946916Y-84603418D01*
X132902071Y-84751255D01*
X132886928Y-84905000D01*
X132886928Y-85205000D01*
X132902071Y-85358745D01*
X132946916Y-85506582D01*
X133019742Y-85642829D01*
X133058454Y-85690000D01*
X133019742Y-85737171D01*
X132946916Y-85873418D01*
X132902071Y-86021255D01*
X132886928Y-86175000D01*
X132886928Y-86475000D01*
X132902071Y-86628745D01*
X132946916Y-86776582D01*
X133019742Y-86912829D01*
X133058454Y-86960000D01*
X133019742Y-87007171D01*
X132946916Y-87143418D01*
X132902071Y-87291255D01*
X132886928Y-87445000D01*
X132886928Y-87745000D01*
X132902071Y-87898745D01*
X132946916Y-88046582D01*
X133019742Y-88182829D01*
X133058454Y-88230000D01*
X133019742Y-88277171D01*
X132946916Y-88413418D01*
X132902071Y-88561255D01*
X132886928Y-88715000D01*
X132886928Y-89015000D01*
X132902071Y-89168745D01*
X132946916Y-89316582D01*
X133018730Y-89450936D01*
X132994463Y-89480506D01*
X132935498Y-89590820D01*
X132899188Y-89710518D01*
X132886928Y-89835000D01*
X132890000Y-89849250D01*
X133048750Y-90008000D01*
X134423000Y-90008000D01*
X134423000Y-89988000D01*
X134677000Y-89988000D01*
X134677000Y-90008000D01*
X134697000Y-90008000D01*
X134697000Y-90262000D01*
X134677000Y-90262000D01*
X134677000Y-91278000D01*
X134697000Y-91278000D01*
X134697000Y-91532000D01*
X134677000Y-91532000D01*
X134677000Y-92548000D01*
X134697000Y-92548000D01*
X134697000Y-92802000D01*
X134677000Y-92802000D01*
X134677000Y-93818000D01*
X136051250Y-93818000D01*
X136128750Y-93740500D01*
X136198750Y-93810500D01*
X137273000Y-93810500D01*
X137273000Y-93790500D01*
X137527000Y-93790500D01*
X137527000Y-93810500D01*
X138601250Y-93810500D01*
X138760000Y-93651750D01*
X138763072Y-93350000D01*
X138750812Y-93225518D01*
X138714502Y-93105820D01*
X138655537Y-92995506D01*
X138576185Y-92898815D01*
X138513657Y-92847500D01*
X140820508Y-92847500D01*
X140868888Y-92852265D01*
X140917268Y-92847500D01*
X141061982Y-92833247D01*
X141247655Y-92776924D01*
X141418772Y-92685460D01*
X141568758Y-92562370D01*
X141599603Y-92524785D01*
X142412299Y-91712089D01*
X142449880Y-91681248D01*
X142467175Y-91660175D01*
X143790010Y-92983010D01*
X143790011Y-105077470D01*
X143785750Y-105077500D01*
X143627000Y-105236250D01*
X143627000Y-106173000D01*
X143647000Y-106173000D01*
X143647000Y-106427000D01*
X143627000Y-106427000D01*
X143627000Y-106447000D01*
X143373000Y-106447000D01*
X143373000Y-106427000D01*
X142298750Y-106427000D01*
X142140000Y-106585750D01*
X142136928Y-106887500D01*
X142149188Y-107011982D01*
X142185498Y-107131680D01*
X142244463Y-107241994D01*
X142323815Y-107338685D01*
X142403594Y-107404158D01*
X142397038Y-107409538D01*
X142286595Y-107544114D01*
X142227325Y-107655000D01*
X141592719Y-107655000D01*
X141513405Y-107506614D01*
X141402962Y-107372038D01*
X141396406Y-107366658D01*
X141476185Y-107301185D01*
X141555537Y-107204494D01*
X141614502Y-107094180D01*
X141650812Y-106974482D01*
X141663072Y-106850000D01*
X141660000Y-106548250D01*
X141501250Y-106389500D01*
X140427000Y-106389500D01*
X140427000Y-106409500D01*
X140173000Y-106409500D01*
X140173000Y-106389500D01*
X139098750Y-106389500D01*
X138940000Y-106548250D01*
X138936928Y-106850000D01*
X138949188Y-106974482D01*
X138985498Y-107094180D01*
X139044463Y-107204494D01*
X139123815Y-107301185D01*
X139203594Y-107366658D01*
X139197038Y-107372038D01*
X139086595Y-107506614D01*
X139007281Y-107655000D01*
X136342454Y-107655000D01*
X136205120Y-107449465D01*
X136010535Y-107254880D01*
X135781727Y-107101995D01*
X135710057Y-107072308D01*
X135723023Y-107067636D01*
X135838980Y-107005656D01*
X135905960Y-106765565D01*
X135120000Y-105979605D01*
X134334040Y-106765565D01*
X134401020Y-107005656D01*
X134536760Y-107069485D01*
X134458273Y-107101995D01*
X134229465Y-107254880D01*
X134034880Y-107449465D01*
X133881995Y-107678273D01*
X133776686Y-107932510D01*
X133723000Y-108202408D01*
X133723000Y-108390000D01*
X131205017Y-105872017D01*
X133718090Y-105872017D01*
X133759078Y-106144133D01*
X133852364Y-106403023D01*
X133914344Y-106518980D01*
X134154435Y-106585960D01*
X134940395Y-105800000D01*
X135299605Y-105800000D01*
X136085565Y-106585960D01*
X136325656Y-106518980D01*
X136442756Y-106269952D01*
X136509023Y-106002865D01*
X136521910Y-105727983D01*
X136513930Y-105675000D01*
X138936928Y-105675000D01*
X138940000Y-105976750D01*
X139098750Y-106135500D01*
X140173000Y-106135500D01*
X140173000Y-105198750D01*
X140427000Y-105198750D01*
X140427000Y-106135500D01*
X141501250Y-106135500D01*
X141660000Y-105976750D01*
X141662690Y-105712500D01*
X142136928Y-105712500D01*
X142140000Y-106014250D01*
X142298750Y-106173000D01*
X143373000Y-106173000D01*
X143373000Y-105236250D01*
X143214250Y-105077500D01*
X142775000Y-105074428D01*
X142650518Y-105086688D01*
X142530820Y-105122998D01*
X142420506Y-105181963D01*
X142323815Y-105261315D01*
X142244463Y-105358006D01*
X142185498Y-105468320D01*
X142149188Y-105588018D01*
X142136928Y-105712500D01*
X141662690Y-105712500D01*
X141663072Y-105675000D01*
X141650812Y-105550518D01*
X141614502Y-105430820D01*
X141555537Y-105320506D01*
X141476185Y-105223815D01*
X141379494Y-105144463D01*
X141269180Y-105085498D01*
X141149482Y-105049188D01*
X141025000Y-105036928D01*
X140585750Y-105040000D01*
X140427000Y-105198750D01*
X140173000Y-105198750D01*
X140014250Y-105040000D01*
X139575000Y-105036928D01*
X139450518Y-105049188D01*
X139330820Y-105085498D01*
X139220506Y-105144463D01*
X139123815Y-105223815D01*
X139044463Y-105320506D01*
X138985498Y-105430820D01*
X138949188Y-105550518D01*
X138936928Y-105675000D01*
X136513930Y-105675000D01*
X136480922Y-105455867D01*
X136387636Y-105196977D01*
X136325656Y-105081020D01*
X136085565Y-105014040D01*
X135299605Y-105800000D01*
X134940395Y-105800000D01*
X134154435Y-105014040D01*
X133914344Y-105081020D01*
X133797244Y-105330048D01*
X133730977Y-105597135D01*
X133718090Y-105872017D01*
X131205017Y-105872017D01*
X128455408Y-103122408D01*
X133723000Y-103122408D01*
X133723000Y-103397592D01*
X133776686Y-103667490D01*
X133881995Y-103921727D01*
X134034880Y-104150535D01*
X134229465Y-104345120D01*
X134458273Y-104498005D01*
X134529943Y-104527692D01*
X134516977Y-104532364D01*
X134401020Y-104594344D01*
X134334040Y-104834435D01*
X135120000Y-105620395D01*
X135905960Y-104834435D01*
X135838980Y-104594344D01*
X135703240Y-104530515D01*
X135781727Y-104498005D01*
X136010535Y-104345120D01*
X136205120Y-104150535D01*
X136358005Y-103921727D01*
X136463314Y-103667490D01*
X136517000Y-103397592D01*
X136517000Y-103122408D01*
X136463314Y-102852510D01*
X136358005Y-102598273D01*
X136205120Y-102369465D01*
X136010535Y-102174880D01*
X135781727Y-102021995D01*
X135527490Y-101916686D01*
X135257592Y-101863000D01*
X134982408Y-101863000D01*
X134712510Y-101916686D01*
X134458273Y-102021995D01*
X134229465Y-102174880D01*
X134034880Y-102369465D01*
X133881995Y-102598273D01*
X133776686Y-102852510D01*
X133723000Y-103122408D01*
X128455408Y-103122408D01*
X124218687Y-98885687D01*
X124187841Y-98848101D01*
X124037855Y-98725011D01*
X123866738Y-98633547D01*
X123681065Y-98577224D01*
X123536351Y-98562971D01*
X123487971Y-98558206D01*
X123439591Y-98562971D01*
X116400409Y-98562971D01*
X116352029Y-98558206D01*
X116303649Y-98562971D01*
X116158935Y-98577224D01*
X115973262Y-98633547D01*
X115802145Y-98725011D01*
X115652159Y-98848101D01*
X115621318Y-98885681D01*
X100633944Y-113873056D01*
X100587540Y-113639764D01*
X100494443Y-113415008D01*
X100359287Y-113212733D01*
X100187267Y-113040713D01*
X99984992Y-112905557D01*
X99760236Y-112812460D01*
X99521637Y-112765000D01*
X99278363Y-112765000D01*
X99039764Y-112812460D01*
X98815008Y-112905557D01*
X98651215Y-113015000D01*
X80181293Y-113015000D01*
X80153475Y-112973368D01*
X79946632Y-112766525D01*
X79772240Y-112650000D01*
X79946632Y-112533475D01*
X80095107Y-112385000D01*
X87551215Y-112385000D01*
X87715008Y-112494443D01*
X87939764Y-112587540D01*
X88178363Y-112635000D01*
X88421637Y-112635000D01*
X88660236Y-112587540D01*
X88884992Y-112494443D01*
X89087267Y-112359287D01*
X89259287Y-112187267D01*
X89394443Y-111984992D01*
X89487540Y-111760236D01*
X89535000Y-111521637D01*
X89535000Y-111278363D01*
X89487540Y-111039764D01*
X89394443Y-110815008D01*
X89259287Y-110612733D01*
X89087267Y-110440713D01*
X88884992Y-110305557D01*
X88660236Y-110212460D01*
X88421637Y-110165000D01*
X88178363Y-110165000D01*
X87939764Y-110212460D01*
X87715008Y-110305557D01*
X87551215Y-110415000D01*
X80135107Y-110415000D01*
X79946632Y-110226525D01*
X79764466Y-110104805D01*
X79881355Y-110035178D01*
X80097588Y-109840269D01*
X80271641Y-109606920D01*
X80396825Y-109344099D01*
X80441476Y-109196890D01*
X80320155Y-108967000D01*
X79127000Y-108967000D01*
X79127000Y-108987000D01*
X78873000Y-108987000D01*
X78873000Y-108967000D01*
X78853000Y-108967000D01*
X78853000Y-108713000D01*
X78873000Y-108713000D01*
X78873000Y-108693000D01*
X79127000Y-108693000D01*
X79127000Y-108713000D01*
X80320155Y-108713000D01*
X80441476Y-108483110D01*
X80396825Y-108335901D01*
X80271641Y-108073080D01*
X80097588Y-107839731D01*
X80013534Y-107763966D01*
X80094180Y-107739502D01*
X80204494Y-107680537D01*
X80301185Y-107601185D01*
X80380537Y-107504494D01*
X80439502Y-107394180D01*
X80475812Y-107274482D01*
X80488072Y-107150000D01*
X80488072Y-105450000D01*
X80475812Y-105325518D01*
X80439502Y-105205820D01*
X80380537Y-105095506D01*
X80301185Y-104998815D01*
X80204494Y-104919463D01*
X80094180Y-104860498D01*
X79974482Y-104824188D01*
X79850000Y-104811928D01*
X78150000Y-104811928D01*
X78025518Y-104824188D01*
X77905820Y-104860498D01*
X77795506Y-104919463D01*
X77698815Y-104998815D01*
X77619463Y-105095506D01*
X77560498Y-105205820D01*
X77524188Y-105325518D01*
X77511928Y-105450000D01*
X77511928Y-106395072D01*
X76937710Y-106969290D01*
X76900130Y-107000131D01*
X76777040Y-107150117D01*
X76750377Y-107200000D01*
X76685575Y-107321235D01*
X76660000Y-107405545D01*
X76660000Y-95100000D01*
X83511928Y-95100000D01*
X83524188Y-95224482D01*
X83560498Y-95344180D01*
X83619463Y-95454494D01*
X83698815Y-95551185D01*
X83795506Y-95630537D01*
X83905820Y-95689502D01*
X84025518Y-95725812D01*
X84150000Y-95738072D01*
X85164250Y-95735000D01*
X85323000Y-95576250D01*
X85323000Y-93427000D01*
X85577000Y-93427000D01*
X85577000Y-95576250D01*
X85735750Y-95735000D01*
X86750000Y-95738072D01*
X86874482Y-95725812D01*
X86994180Y-95689502D01*
X87104494Y-95630537D01*
X87201185Y-95551185D01*
X87280537Y-95454494D01*
X87339502Y-95344180D01*
X87375812Y-95224482D01*
X87388072Y-95100000D01*
X87385000Y-93585750D01*
X87226250Y-93427000D01*
X85577000Y-93427000D01*
X85323000Y-93427000D01*
X83673750Y-93427000D01*
X83515000Y-93585750D01*
X83511928Y-95100000D01*
X76660000Y-95100000D01*
X76660000Y-91500000D01*
X83511928Y-91500000D01*
X83515000Y-93014250D01*
X83673750Y-93173000D01*
X85323000Y-93173000D01*
X85323000Y-91023750D01*
X85577000Y-91023750D01*
X85577000Y-93173000D01*
X87226250Y-93173000D01*
X87385000Y-93014250D01*
X87388072Y-91500000D01*
X112811928Y-91500000D01*
X112811928Y-95100000D01*
X112824188Y-95224482D01*
X112860498Y-95344180D01*
X112919463Y-95454494D01*
X112998815Y-95551185D01*
X113095506Y-95630537D01*
X113205820Y-95689502D01*
X113325518Y-95725812D01*
X113450000Y-95738072D01*
X116050000Y-95738072D01*
X116174482Y-95725812D01*
X116294180Y-95689502D01*
X116404494Y-95630537D01*
X116501185Y-95551185D01*
X116580537Y-95454494D01*
X116639502Y-95344180D01*
X116675812Y-95224482D01*
X116688072Y-95100000D01*
X116688072Y-94245000D01*
X123586928Y-94245000D01*
X123599188Y-94369482D01*
X123635498Y-94489180D01*
X123694463Y-94599494D01*
X123773815Y-94696185D01*
X123870506Y-94775537D01*
X123980820Y-94834502D01*
X124100518Y-94870812D01*
X124225000Y-94883072D01*
X124964250Y-94880000D01*
X125123000Y-94721250D01*
X125123000Y-94072000D01*
X125377000Y-94072000D01*
X125377000Y-94721250D01*
X125535750Y-94880000D01*
X126275000Y-94883072D01*
X126399482Y-94870812D01*
X126519180Y-94834502D01*
X126629494Y-94775537D01*
X126726185Y-94696185D01*
X126805537Y-94599494D01*
X126864502Y-94489180D01*
X126900812Y-94369482D01*
X126913072Y-94245000D01*
X132886928Y-94245000D01*
X132899188Y-94369482D01*
X132935498Y-94489180D01*
X132994463Y-94599494D01*
X133073815Y-94696185D01*
X133170506Y-94775537D01*
X133280820Y-94834502D01*
X133400518Y-94870812D01*
X133525000Y-94883072D01*
X134264250Y-94880000D01*
X134423000Y-94721250D01*
X134423000Y-94072000D01*
X134677000Y-94072000D01*
X134677000Y-94721250D01*
X134835750Y-94880000D01*
X135575000Y-94883072D01*
X135699482Y-94870812D01*
X135819180Y-94834502D01*
X135929494Y-94775537D01*
X136026185Y-94696185D01*
X136053324Y-94663116D01*
X136085498Y-94769180D01*
X136144463Y-94879494D01*
X136223815Y-94976185D01*
X136320506Y-95055537D01*
X136430820Y-95114502D01*
X136550518Y-95150812D01*
X136675000Y-95163072D01*
X137114250Y-95160000D01*
X137273000Y-95001250D01*
X137273000Y-94064500D01*
X137527000Y-94064500D01*
X137527000Y-95001250D01*
X137685750Y-95160000D01*
X138125000Y-95163072D01*
X138249482Y-95150812D01*
X138369180Y-95114502D01*
X138479494Y-95055537D01*
X138576185Y-94976185D01*
X138655537Y-94879494D01*
X138714502Y-94769180D01*
X138750812Y-94649482D01*
X138763072Y-94525000D01*
X138760000Y-94223250D01*
X138601250Y-94064500D01*
X137527000Y-94064500D01*
X137273000Y-94064500D01*
X136198750Y-94064500D01*
X136121250Y-94142000D01*
X136051250Y-94072000D01*
X134677000Y-94072000D01*
X134423000Y-94072000D01*
X133048750Y-94072000D01*
X132890000Y-94230750D01*
X132886928Y-94245000D01*
X126913072Y-94245000D01*
X126910000Y-94230750D01*
X126751250Y-94072000D01*
X125377000Y-94072000D01*
X125123000Y-94072000D01*
X123748750Y-94072000D01*
X123590000Y-94230750D01*
X123586928Y-94245000D01*
X116688072Y-94245000D01*
X116688072Y-92975000D01*
X123586928Y-92975000D01*
X123599188Y-93099482D01*
X123635498Y-93219180D01*
X123684043Y-93310000D01*
X123635498Y-93400820D01*
X123599188Y-93520518D01*
X123586928Y-93645000D01*
X123590000Y-93659250D01*
X123748750Y-93818000D01*
X125123000Y-93818000D01*
X125123000Y-92802000D01*
X125377000Y-92802000D01*
X125377000Y-93818000D01*
X126751250Y-93818000D01*
X126910000Y-93659250D01*
X126913072Y-93645000D01*
X126900812Y-93520518D01*
X126864502Y-93400820D01*
X126815957Y-93310000D01*
X126864502Y-93219180D01*
X126900812Y-93099482D01*
X126913072Y-92975000D01*
X132886928Y-92975000D01*
X132899188Y-93099482D01*
X132935498Y-93219180D01*
X132984043Y-93310000D01*
X132935498Y-93400820D01*
X132899188Y-93520518D01*
X132886928Y-93645000D01*
X132890000Y-93659250D01*
X133048750Y-93818000D01*
X134423000Y-93818000D01*
X134423000Y-92802000D01*
X133048750Y-92802000D01*
X132890000Y-92960750D01*
X132886928Y-92975000D01*
X126913072Y-92975000D01*
X126910000Y-92960750D01*
X126751250Y-92802000D01*
X125377000Y-92802000D01*
X125123000Y-92802000D01*
X123748750Y-92802000D01*
X123590000Y-92960750D01*
X123586928Y-92975000D01*
X116688072Y-92975000D01*
X116688072Y-92754928D01*
X117738000Y-91705000D01*
X123586928Y-91705000D01*
X123599188Y-91829482D01*
X123635498Y-91949180D01*
X123684043Y-92040000D01*
X123635498Y-92130820D01*
X123599188Y-92250518D01*
X123586928Y-92375000D01*
X123590000Y-92389250D01*
X123748750Y-92548000D01*
X125123000Y-92548000D01*
X125123000Y-91532000D01*
X125377000Y-91532000D01*
X125377000Y-92548000D01*
X126751250Y-92548000D01*
X126910000Y-92389250D01*
X126913072Y-92375000D01*
X126900812Y-92250518D01*
X126864502Y-92130820D01*
X126815957Y-92040000D01*
X126864502Y-91949180D01*
X126900812Y-91829482D01*
X126913072Y-91705000D01*
X132886928Y-91705000D01*
X132899188Y-91829482D01*
X132935498Y-91949180D01*
X132984043Y-92040000D01*
X132935498Y-92130820D01*
X132899188Y-92250518D01*
X132886928Y-92375000D01*
X132890000Y-92389250D01*
X133048750Y-92548000D01*
X134423000Y-92548000D01*
X134423000Y-91532000D01*
X133048750Y-91532000D01*
X132890000Y-91690750D01*
X132886928Y-91705000D01*
X126913072Y-91705000D01*
X126910000Y-91690750D01*
X126751250Y-91532000D01*
X125377000Y-91532000D01*
X125123000Y-91532000D01*
X123748750Y-91532000D01*
X123590000Y-91690750D01*
X123586928Y-91705000D01*
X117738000Y-91705000D01*
X119008000Y-90435000D01*
X123586928Y-90435000D01*
X123599188Y-90559482D01*
X123635498Y-90679180D01*
X123684043Y-90770000D01*
X123635498Y-90860820D01*
X123599188Y-90980518D01*
X123586928Y-91105000D01*
X123590000Y-91119250D01*
X123748750Y-91278000D01*
X125123000Y-91278000D01*
X125123000Y-90262000D01*
X125377000Y-90262000D01*
X125377000Y-91278000D01*
X126751250Y-91278000D01*
X126910000Y-91119250D01*
X126913072Y-91105000D01*
X126900812Y-90980518D01*
X126864502Y-90860820D01*
X126815957Y-90770000D01*
X126864502Y-90679180D01*
X126900812Y-90559482D01*
X126913072Y-90435000D01*
X132886928Y-90435000D01*
X132899188Y-90559482D01*
X132935498Y-90679180D01*
X132984043Y-90770000D01*
X132935498Y-90860820D01*
X132899188Y-90980518D01*
X132886928Y-91105000D01*
X132890000Y-91119250D01*
X133048750Y-91278000D01*
X134423000Y-91278000D01*
X134423000Y-90262000D01*
X133048750Y-90262000D01*
X132890000Y-90420750D01*
X132886928Y-90435000D01*
X126913072Y-90435000D01*
X126910000Y-90420750D01*
X126751250Y-90262000D01*
X125377000Y-90262000D01*
X125123000Y-90262000D01*
X123748750Y-90262000D01*
X123590000Y-90420750D01*
X123586928Y-90435000D01*
X119008000Y-90435000D01*
X120278000Y-89165000D01*
X123586928Y-89165000D01*
X123599188Y-89289482D01*
X123635498Y-89409180D01*
X123684043Y-89500000D01*
X123635498Y-89590820D01*
X123599188Y-89710518D01*
X123586928Y-89835000D01*
X123590000Y-89849250D01*
X123748750Y-90008000D01*
X125123000Y-90008000D01*
X125123000Y-88992000D01*
X125377000Y-88992000D01*
X125377000Y-90008000D01*
X126751250Y-90008000D01*
X126910000Y-89849250D01*
X126913072Y-89835000D01*
X126900812Y-89710518D01*
X126864502Y-89590820D01*
X126815957Y-89500000D01*
X126864502Y-89409180D01*
X126900812Y-89289482D01*
X126913072Y-89165000D01*
X126910000Y-89150750D01*
X126751250Y-88992000D01*
X125377000Y-88992000D01*
X125123000Y-88992000D01*
X123748750Y-88992000D01*
X123590000Y-89150750D01*
X123586928Y-89165000D01*
X120278000Y-89165000D01*
X120863000Y-88580000D01*
X123590750Y-88580000D01*
X123748750Y-88738000D01*
X125123000Y-88738000D01*
X125123000Y-88718000D01*
X125377000Y-88718000D01*
X125377000Y-88738000D01*
X126751250Y-88738000D01*
X126910000Y-88579250D01*
X126913072Y-88565000D01*
X126900812Y-88440518D01*
X126864502Y-88320820D01*
X126805537Y-88210506D01*
X126781270Y-88180936D01*
X126853084Y-88046582D01*
X126897929Y-87898745D01*
X126913072Y-87745000D01*
X126913072Y-87445000D01*
X126897929Y-87291255D01*
X126853084Y-87143418D01*
X126780258Y-87007171D01*
X126741546Y-86960000D01*
X126780258Y-86912829D01*
X126853084Y-86776582D01*
X126897929Y-86628745D01*
X126913072Y-86475000D01*
X126913072Y-86175000D01*
X126897929Y-86021255D01*
X126853084Y-85873418D01*
X126780258Y-85737171D01*
X126741546Y-85690000D01*
X126780258Y-85642829D01*
X126853084Y-85506582D01*
X126897929Y-85358745D01*
X126913072Y-85205000D01*
X126913072Y-84905000D01*
X126897929Y-84751255D01*
X126853084Y-84603418D01*
X126780258Y-84467171D01*
X126682251Y-84347749D01*
X126562829Y-84249742D01*
X126426582Y-84176916D01*
X126278745Y-84132071D01*
X126125000Y-84116928D01*
X125550809Y-84116928D01*
X125443094Y-84084253D01*
X125250000Y-84065235D01*
X125056907Y-84084253D01*
X124955547Y-84115000D01*
X119348785Y-84115000D01*
X119184992Y-84005557D01*
X118960236Y-83912460D01*
X118721637Y-83865000D01*
X118478363Y-83865000D01*
X118239764Y-83912460D01*
X118015008Y-84005557D01*
X117812733Y-84140713D01*
X117640713Y-84312733D01*
X117505557Y-84515008D01*
X117412460Y-84739764D01*
X117365000Y-84978363D01*
X117365000Y-85221637D01*
X117412460Y-85460236D01*
X117505557Y-85684992D01*
X117640713Y-85887267D01*
X117812733Y-86059287D01*
X117981435Y-86172011D01*
X117840713Y-86312733D01*
X117705557Y-86515008D01*
X117612460Y-86739764D01*
X117565000Y-86978363D01*
X117565000Y-87221637D01*
X117612460Y-87460236D01*
X117705557Y-87684992D01*
X117840713Y-87887267D01*
X118012733Y-88059287D01*
X118215008Y-88194443D01*
X118390052Y-88266948D01*
X115795072Y-90861928D01*
X113450000Y-90861928D01*
X113325518Y-90874188D01*
X113205820Y-90910498D01*
X113095506Y-90969463D01*
X112998815Y-91048815D01*
X112919463Y-91145506D01*
X112860498Y-91255820D01*
X112824188Y-91375518D01*
X112811928Y-91500000D01*
X87388072Y-91500000D01*
X87375812Y-91375518D01*
X87339502Y-91255820D01*
X87280537Y-91145506D01*
X87201185Y-91048815D01*
X87104494Y-90969463D01*
X86994180Y-90910498D01*
X86874482Y-90874188D01*
X86750000Y-90861928D01*
X85735750Y-90865000D01*
X85577000Y-91023750D01*
X85323000Y-91023750D01*
X85164250Y-90865000D01*
X84150000Y-90861928D01*
X84025518Y-90874188D01*
X83905820Y-90910498D01*
X83795506Y-90969463D01*
X83698815Y-91048815D01*
X83619463Y-91145506D01*
X83560498Y-91255820D01*
X83524188Y-91375518D01*
X83511928Y-91500000D01*
X76660000Y-91500000D01*
X76660000Y-79032279D01*
X76682334Y-78804495D01*
X77015000Y-78804495D01*
X77015000Y-79195505D01*
X77091282Y-79579003D01*
X77240915Y-79940250D01*
X77458149Y-80265364D01*
X77734636Y-80541851D01*
X78059750Y-80759085D01*
X78420997Y-80908718D01*
X78804495Y-80985000D01*
X79195505Y-80985000D01*
X79579003Y-80908718D01*
X79940250Y-80759085D01*
X80265364Y-80541851D01*
X80541851Y-80265364D01*
X80759085Y-79940250D01*
X80908718Y-79579003D01*
X80985000Y-79195505D01*
X80985000Y-78804495D01*
X174015000Y-78804495D01*
X174015000Y-79195505D01*
X174091282Y-79579003D01*
X174240915Y-79940250D01*
X174458149Y-80265364D01*
X174734636Y-80541851D01*
X175059750Y-80759085D01*
X175420997Y-80908718D01*
X175804495Y-80985000D01*
X176195505Y-80985000D01*
X176579003Y-80908718D01*
X176940250Y-80759085D01*
X177265364Y-80541851D01*
X177541851Y-80265364D01*
X177759085Y-79940250D01*
X177908718Y-79579003D01*
X177985000Y-79195505D01*
X177985000Y-78804495D01*
X177908718Y-78420997D01*
X177759085Y-78059750D01*
X177541851Y-77734636D01*
X177265364Y-77458149D01*
X176940250Y-77240915D01*
X176579003Y-77091282D01*
X176195505Y-77015000D01*
X175804495Y-77015000D01*
X175420997Y-77091282D01*
X175059750Y-77240915D01*
X174734636Y-77458149D01*
X174458149Y-77734636D01*
X174240915Y-78059750D01*
X174091282Y-78420997D01*
X174015000Y-78804495D01*
X80985000Y-78804495D01*
X80908718Y-78420997D01*
X80759085Y-78059750D01*
X80541851Y-77734636D01*
X80265364Y-77458149D01*
X79940250Y-77240915D01*
X79579003Y-77091282D01*
X79195505Y-77015000D01*
X78804495Y-77015000D01*
X78420997Y-77091282D01*
X78059750Y-77240915D01*
X77734636Y-77458149D01*
X77458149Y-77734636D01*
X77240915Y-78059750D01*
X77091282Y-78420997D01*
X77015000Y-78804495D01*
X76682334Y-78804495D01*
X76707670Y-78546107D01*
X76839489Y-78109502D01*
X77053600Y-77706815D01*
X77341848Y-77353388D01*
X77693261Y-77062673D01*
X78094439Y-76845758D01*
X78530113Y-76710894D01*
X79014344Y-76660000D01*
X175967721Y-76660000D01*
X176453893Y-76707670D01*
G37*
%TD.AperFunction*%
%TD*%
M02*
